<?xml version="1.0" encoding="UTF-8" standalone="no"?>
<!DOCTYPE svg  PUBLIC '-//W3C//DTD SVG 1.1//EN'  'http://www.w3.org/Graphics/SVG/1.1/DTD/svg11.dtd'>
<svg xmlns="http://www.w3.org/2000/svg">
<defs>
<font id="Xiomara-Regular" horiz-adv-x="950">
<font-face underline-position="-142" font-weight="400" descent="-410" panose-1="3 8 5 2 4 2 7 4 3 4" units-per-em="2048" unicode-range="U+0020-2265" bbox="-268 -1109 4009 2479" x-height="850" underline-thickness="150" font-family="Xiomara" ascent="1638" cap-height="2064"/>
<missing-glyph horiz-adv-x="2048"/>
<glyph glyph-name=".notdef" horiz-adv-x="2048"/>
<glyph glyph-name=".null" horiz-adv-x="0"/>
<glyph glyph-name="nonmarkingreturn" horiz-adv-x="2048"/>
<glyph glyph-name="space" horiz-adv-x="508" unicode=" "/>
<glyph glyph-name="space" horiz-adv-x="508" unicode=" "/>
<glyph glyph-name="exclam" horiz-adv-x="449" unicode="!" d="M182 549q8 34 8 90q0 82 -17 211q-29 216 -50 468q-9 97 -9 172q0 120 22 185q27 83 83 83q14 0 30 -5q57 -20 57 -141q0 -44 -7 -102q-15 -111 -15 -236q0 -118 13 -248q22 -219 22 -361q0 -31 -1 -58q-6 -148 -77 -148q-2 0 -4 1q-59 3 -59 56q0 15 4 33zM198 293 q32 18 62 18q21 0 40 -9q46 -21 58 -84q3 -18 3 -35q0 -46 -22 -94q-32 -67 -83 -100q-31 -19 -60 -19q-21 0 -42 10q-50 23 -62 86q-3 17 -3 35q0 46 22 94q31 66 87 98z"/>
<glyph glyph-name="quotedbl" horiz-adv-x="732" unicode='&quot;' d="M582 1756q0 -67 -25 -171q-19 -78 -19 -153q0 -27 2 -53q1 -11 1 -20q0 -80 -67 -80h-1q-73 1 -73 98v31q0 93 -21 182q-24 99 -24 166q-1 66 33 104t81 37q45 1 79 -37t34 -104zM282 1756q0 -67 -25 -171q-19 -78 -19 -153q0 -27 2 -53q1 -11 1 -20q0 -80 -67 -80h-1 q-73 1 -73 98v31q0 93 -21 182q-24 99 -24 166q-1 66 33 104t81 37q45 1 79 -37t34 -104z"/>
<glyph glyph-name="numbersign" horiz-adv-x="1327" unicode="#" d="M575 556q-11 -44 -23 -89q-28 -55 -45 -153q134 -7 248 -9q30 106 55 188l8 46q-102 4 -167 13q-40 3 -76 4zM399 318q20 72 42 136q26 27 41 103q-110 -2 -187 -24q-16 -19 -56 -19t-54 19q-13 16 -13 33q0 24 23 51q32 38 169 38q40 0 87 -2l46 -2q1 10 2 21q3 32 3 62 q0 44 -27 118q-13 34 -13 61q0 49 41 73q25 16 49 16q34 0 63 -32q30 -33 30 -104q0 -49 -14 -115q-16 -26 -34 -104q115 -5 221 -5h16q8 63 13 122q4 0 4 38q0 56 -8 84q-3 10 -3 20q0 36 40 70q24 20 50 20q27 0 56 -22q30 -24 30 -85q0 -52 -22 -130q-23 -33 -44 -104 q66 14 120 46q6 33 47 33q32 0 55 -21q25 -24 25 -52t-23 -58q-48 -64 -173 -66q-42 -1 -88 -1q-3 -10 -6 -19q-34 -102 -48 -211q107 7 201 58q12 34 55 34q34 0 57 -21q25 -24 25 -52t-23 -58q-48 -64 -173 -66q-28 -1 -57 -1q-45 0 -92 2q-10 -122 -16 -203 q-7 -84 -66 -84q-4 0 -9 1q-58 6 -58 120q0 17 1 36q7 51 25 135q-62 3 -128 9q-24 5 -87 5h-21q-2 -13 -3 -26q-17 -101 -17 -186t-57 -95q-9 -2 -17 -2q-44 0 -60 51q-6 20 -6 54q0 65 24 129q7 34 15 66q-42 -6 -77 -16q-15 -18 -55 -18q-41 0 -55 19q-13 15 -13 33 q0 24 23 51q32 37 174 37h30z"/>
<glyph glyph-name="dollar" horiz-adv-x="1200" unicode="$" d="M519 878q-264 93 -316 233q-16 42 -16 83q0 101 94 195q86 87 208 105q17 212 77 250q31 19 58 19q25 0 46 -16q30 -24 30 -61q0 -17 -6 -37q-16 -49 -47 -157q201 -30 257 -142q35 -71 35 -128q0 -37 -15 -68q-30 -63 -92 -63q-15 0 -32 4q-80 18 -80 83q0 6 1 12v15 q0 66 -61 120q-19 17 -44 27q-6 -54 -6 -129q0 -115 14 -280q38 -15 79 -29q209 -73 293 -223q60 -108 60 -236q0 -48 -9 -100q-32 -186 -162 -283q-81 -61 -179 -80q0 -27 -2 -47q-17 -155 -77 -192q-31 -20 -58 -20q-25 0 -46 17q-30 23 -30 61q0 17 6 37q17 54 51 139 q-153 16 -256 101q-113 93 -141 246q-9 45 -9 88q0 101 47 186q66 122 185 153q48 13 90 13q34 0 65 -9q-7 59 -12 113zM485 1362q-13 -2 -27 -4q-134 -28 -148 -133q-2 -14 -2 -26q0 -88 87 -146q45 -30 113 -61q-21 226 -23 370zM704 114q72 13 120 54q81 68 112 204 q9 40 9 80q0 95 -51 190q-61 110 -260 194q8 -73 17 -154q17 -25 23 -56q3 -18 3 -34q0 -30 -10 -52q30 -268 37 -426zM578 110q2 28 2 63q0 114 -18 301h-9q-53 0 -93 57q-28 38 -67 38q-23 0 -50 -13q-74 -37 -74 -156q0 -120 87 -200q83 -77 222 -90z"/>
<glyph glyph-name="percent" horiz-adv-x="1318" unicode="%" d="M1004 615q110 1 184 -95t75 -231q-1 -135 -75 -231t-179 -95q-106 -1 -180 95t-74 231t47 219q46 84 78 116t64 31q32 0 60 -40zM860 289q0 -86 44 -147t105 -61t105 61t43 147q0 87 -43 148q-42 59 -100 61q-6 -16 -15 -29q-23 -32 -48 -32q-25 -1 -58 -31t-33 -117z M304 1115q110 1 184 -95t75 -231q-1 -135 -75 -231t-179 -95q-106 -1 -180 95t-74 231t47 219q46 84 78 116t64 31q32 0 60 -40zM160 789q0 -86 44 -147t105 -61t105 61t43 147q0 87 -43 148q-42 59 -100 61q-6 -16 -15 -29q-23 -32 -48 -32q-25 -1 -58 -31t-33 -117z M468 32q-17 -104 -77 -142q-31 -20 -58 -20q-25 0 -46 17q-30 23 -30 61q0 17 6 37q19 63 63 119t276 482t276 542q42 115 102 153q31 19 58 19q25 0 46 -16q30 -24 30 -62q0 -17 -6 -36q-20 -64 -90 -126t-302 -494q-231 -430 -248 -534z"/>
<glyph glyph-name="ampersand" horiz-adv-x="1200" unicode="&amp;" d="M921 772q0 -21 2 -45q84 -39 137 -135q44 -81 44 -175q0 -48 -11 -99q-34 -153 -142 -246t-267 -103q-18 -2 -36 -2q-143 0 -295 73q-173 82 -233 281q-24 77 -24 152q0 116 57 224q72 138 196 254q-125 111 -125 276l-1 1q0 164 122 276q95 87 214 87q35 0 72 -7 q164 -33 222 -150q31 -63 31 -124q0 -52 -23 -102q-50 -110 -126 -121q-16 -2 -31 -2q-55 0 -94 32q-49 40 -49 100q-1 0 -1 1q0 59 61 103q37 26 37 61q0 23 -16 51q-29 48 -83 48q-23 0 -49 -8q-91 -28 -133 -113q-32 -63 -32 -136q0 -26 4 -53q13 -97 62 -134 q41 -31 82 -31q8 0 16 1q26 6 49 6q49 0 80 -27q26 -23 26 -53q0 -22 -13 -47q-29 -54 -88 -54q-8 0 -16 1q-61 5 -97 25q-11 6 -22 6q-29 0 -67 -38q-53 -53 -93 -147q-40 -91 -40 -182q0 -58 16 -116q41 -150 168 -224q111 -65 229 -65q15 0 32 1q134 11 216 91t87 200v15 q0 106 -68 141q-3 1 -5 2q-15 -47 -42 -90q-75 -117 -196 -139q-37 -7 -70 -7q-75 0 -130 36q-80 51 -93 113q-3 16 -3 31q0 42 26 76q35 46 100 48h3q62 0 100 -62q26 -43 69 -43q21 0 46 10q65 27 65 154q0 20 -1 44q-2 24 -2 47q0 137 64 237q75 117 196 140q37 6 70 6 q75 0 131 -35q79 -52 92 -113q3 -17 3 -32q0 -42 -25 -75q-36 -46 -100 -48h-5q-61 0 -99 62q-26 43 -69 43q-21 0 -46 -10q-66 -28 -66 -163z"/>
<glyph glyph-name="quotesingle" horiz-adv-x="432" unicode="&apos;" d="M282 1756q0 -67 -25 -171q-19 -78 -19 -153q0 -27 2 -53q1 -11 1 -20q0 -80 -67 -80h-1q-73 1 -73 98v31q0 93 -21 182q-24 99 -24 166q-1 66 33 104t81 37q45 1 79 -37t34 -104z"/>
<glyph glyph-name="parenleft" horiz-adv-x="757" unicode="(" d="M664 1289q38 -25 38 -61q0 -12 -5 -26q-18 -54 -113 -78q-94 -24 -194 -196t-142 -398q-22 -121 -22 -244q0 -109 17 -220q37 -237 144 -355q104 -116 164 -116q2 0 3 1h11q52 0 75 -22q24 -25 24 -60t-34 -59q-18 -13 -50 -13q-29 0 -70 11q-86 23 -198 179t-162 414 q-26 132 -26 272q0 132 23 271q47 283 169 459t209 225q52 29 91 29q27 0 48 -13z"/>
<glyph glyph-name="parenright" horiz-adv-x="757" unicode=")" d="M232 -528q-52 -30 -91 -30q-27 0 -47 14q-39 24 -39 60q0 12 5 27q18 53 113 77t195 196t141 398q22 121 22 244q0 109 -17 220q-37 237 -143 355q-105 116 -165 116h-3q-6 -1 -11 -1q-52 0 -74 23q-25 24 -25 59t34 59q18 13 50 13q29 0 70 -11q87 -23 199 -179 t162 -414q25 -132 25 -272q0 -132 -23 -270q-47 -284 -169 -460t-209 -224z"/>
<glyph glyph-name="asterisk" horiz-adv-x="900" unicode="*" d="M330 1259q-19 12 -47 18q-42 8 -83 8h-5q-1 -1 -2 -1q-42 0 -79 21q-39 20 -46 58q-1 6 -1 13q0 33 27 73q32 49 91 49h1q60 -1 110 -42t69 -65q16 -21 43 -39q-5 23 -14 41q-15 27 -33 89q-8 27 -8 52q0 34 14 65q23 54 81 65q19 3 36 3q33 0 54 -14q31 -21 35 -64v-14 q0 -36 -15 -69q-18 -40 -27 -85q-4 -17 -4 -33q0 -11 2 -21q22 5 45 22q36 25 66 57t72 46q16 5 30 5q24 0 43 -13q32 -21 45 -78q2 -14 2 -26q0 -42 -31 -74q-42 -43 -106 -50q-46 -6 -75 -6q-11 0 -20 1q-5 1 -10 1t-11 -1q11 -9 23 -16q26 -17 72 -62t52 -104v-15 q0 -50 -39 -82q-43 -35 -78 -35h-6q-38 3 -62 39t-28 80t-17 87q-14 44 -43 64q-25 -19 -39 -57q-17 -43 -24 -86q-8 -44 -34 -78t-64 -34q0 -1 -1 -1q-38 0 -80 41q-35 33 -35 77q0 11 3 23q10 58 59 100t77 57q8 4 15 10z"/>
<glyph glyph-name="plus" d="M548 459q74 1 134 37t104 36t65 -24q17 -20 17 -53q0 -7 -1 -15q-5 -44 -59 -74q-36 -20 -145 -20q-55 0 -128 5q-3 -30 -3 -56q0 -60 16 -106q22 -67 22 -104q0 -39 -22 -55t-58 -16q-38 0 -60 28t-27 99q-1 15 -1 34q0 66 14 170q-24 2 -46 2q-65 0 -110 -13 q-62 -18 -104 -18t-58 21t-16 54q0 32 28 55t98 33q17 3 39 3q65 0 171 -23q0 127 -37 190t-42 98q-1 5 -1 9q0 29 25 52q29 26 78 26q48 0 88 -59q26 -40 26 -163q0 -65 -7 -153z" unicode="+"/>
<glyph glyph-name="comma" horiz-adv-x="449" unicode="," d="M305 41l-29 -37q-10 -8 -20 -15q-30 -19 -60 -19q-21 0 -42 10q-50 23 -62 86q-3 17 -3 35q0 46 22 94q31 66 87 98q32 18 62 18q82 -1 128 -63t51 -195v-16q0 -123 -59 -219q-64 -102 -111 -113q-23 -13 -40 -13q-15 0 -25 9q-7 6 -11 13q-5 9 -5 17q0 23 33 43 q45 28 69 81t27 110v16q0 43 -12 60z"/>
<glyph glyph-name="hyphen" horiz-adv-x="827" unicode="-" d="M339 522q71 -8 125 -8q101 0 143 26q29 18 56 18q31 0 59 -25q25 -24 25 -52t-23 -58q-31 -41 -124 -41q-52 0 -124 13q-113 20 -188 20q-58 0 -93 -12q-34 -12 -59 -12q-34 0 -51 22q-13 16 -13 33q0 24 23 51q27 31 131 31q48 0 113 -6z"/>
<glyph glyph-name="hyphen" horiz-adv-x="827" unicode="­" d="M339 522q71 -8 125 -8q101 0 143 26q29 18 56 18q31 0 59 -25q25 -24 25 -52t-23 -58q-31 -41 -124 -41q-52 0 -124 13q-113 20 -188 20q-58 0 -93 -12q-34 -12 -59 -12q-34 0 -51 22q-13 16 -13 33q0 24 23 51q27 31 131 31q48 0 113 -6z"/>
<glyph glyph-name="period" horiz-adv-x="449" unicode="." d="M198 293q32 18 62 18q21 0 40 -9q46 -21 58 -84q3 -18 3 -35q0 -46 -22 -94q-32 -67 -83 -100q-31 -19 -60 -19q-21 0 -42 10q-50 23 -62 86q-3 17 -3 35q0 46 22 94q31 66 87 98z"/>
<glyph glyph-name="slash" horiz-adv-x="914" unicode="/" d="M268 32q-17 -104 -77 -142q-31 -20 -58 -20q-25 0 -46 17q-30 23 -30 61q0 17 6 37q19 63 63 119t276 882t276 942q42 115 102 153q31 19 58 19q25 0 46 -16q30 -24 30 -62q0 -17 -6 -36q-20 -64 -90 -126t-302 -894q-231 -830 -248 -934z"/>
<glyph glyph-name="zero" d="M766 888q116 -154 125 -362v-30q0 -191 -91 -346q-98 -167 -293 -177q-11 -1 -23 -1q-182 0 -300 156t-125 365q-1 20 -1 39q0 182 66 302q72 131 135 184t123 59h17q48 0 74 -26q177 -9 293 -163zM218 726q-35 -56 -35 -184q0 -21 1 -43q6 -163 86 -286t213 -123h17 q143 7 212 138q60 114 60 263q0 22 -1 46q-11 178 -81 286q-69 105 -193 105h-5q-20 -50 -84 -64t-107 -44q-43 -29 -83 -94z" unicode="0"/>
<glyph glyph-name="one" d="M711 196q23 -62 23 -108q0 -43 -19 -74q-31 -48 -74 -48q-15 0 -30 6q-64 21 -73 137q-2 28 -2 64q0 112 21 298q24 222 24 343v25q-39 -31 -113 -135q-97 -137 -169 -137q-5 0 -10 1q-73 11 -73 74v5q3 69 68 83t165 114t126 142q21 36 64 36q7 0 15 -1q46 -6 46 -50 q0 -8 -1 -16q-9 -59 -20 -350q-3 -61 -3 -114q0 -202 35 -295z" unicode="1"/>
<glyph glyph-name="two" d="M724 898q83 -97 83 -213q0 -13 -1 -25q-10 -132 -96 -224t-272 -172q-187 -80 -197 -140q26 28 120 28h19q110 -3 192 -36q33 -14 57 -14q37 0 56 29q31 49 86 71q16 6 32 6q38 0 74 -36q34 -34 34 -78q0 -20 -7 -43q-25 -70 -85 -92q-40 -14 -89 -14q-27 0 -57 4 q-85 12 -149 49q-59 33 -142 33h-13q-92 -3 -125 -55q-22 -35 -55 -35q-17 0 -38 10q-60 27 -68 96q-1 6 -1 13q0 66 62 134t284 184q224 116 256 246q8 33 8 62q0 87 -69 145q-85 71 -211 71h-21q-141 -7 -185 -98q-21 -45 -21 -76q0 -33 24 -50q21 -15 44 -15q29 0 62 22 q31 22 62 22q29 0 57 -18q42 -26 42 -75q0 -21 -7 -45q-25 -83 -140 -96q-18 -3 -34 -3q-94 0 -167 64q-87 75 -89 194v3q0 117 120 209q106 81 251 81q23 0 47 -1q175 -15 267 -122z" unicode="2"/>
<glyph glyph-name="three" d="M639 609q78 -26 138 -80q95 -85 95 -214q0 -16 -1 -31q-13 -151 -126 -247q-111 -96 -274 -96q-3 0 -5 1q-167 0 -266 94t-105 210v17q0 102 68 135q33 16 62 16q34 0 62 -23q39 -32 39 -81q0 -15 -3 -30q-4 -18 -4 -36q0 -52 33 -105q41 -65 142 -65h18q115 6 178 90 q38 50 38 129q0 18 -2 38q-11 105 -87 159q-70 48 -150 48h-15q-74 -4 -124 -4h-18q-54 1 -94 27q-33 21 -33 57q0 8 2 16q6 34 41 34q13 0 31 -5q63 -19 225 -29q59 25 104 65q81 73 90 133q-24 -27 -103 -27q-5 0 -9 1q-87 0 -144 24t-82 24q-36 0 -54 -28 q-32 -77 -120 -77q-38 0 -74 36q-34 34 -34 77q2 103 93 135q40 14 90 14q91 -1 177 -43q82 -41 149 -41h6q69 2 103 54q14 22 46 22q18 0 41 -6q66 -19 70 -92v-9q0 -70 -64 -149q-51 -63 -150 -138z" unicode="3"/>
<glyph glyph-name="four" d="M556 246q4 37 10 78q35 244 39 511q-112 -233 -283 -475q-48 -68 -89 -117q43 -2 91 -2q32 0 67 1q80 1 165 4zM740 132q9 -40 20 -79q23 -83 23 -141q0 -51 -17 -83q-30 -53 -82 -53q-16 0 -34 6q-77 21 -98 160q-8 52 -8 119q0 39 3 83q-99 -5 -248 -26 q-111 -16 -181 -16q-82 0 -106 22q-29 25 -29 53q0 18 11 36l6 8q13 46 77 53q77 7 262 287q184 277 184 377v2q-1 1 -1 2q0 86 89 86q11 0 24 -1q97 -10 97 -88q0 -14 -3 -28q-19 -105 -29 -227q-4 -53 -4 -116q0 -83 7 -183q5 -68 14 -132q9 1 17 1q31 2 59 2 q128 0 157 -39q16 -23 16 -44q0 -24 -20 -46q-25 -27 -63 -27q-22 0 -49 9q-41 14 -94 23z" unicode="4"/>
<glyph glyph-name="five" d="M278 701q53 8 104 8q180 0 325 -84t175 -256v-10q-5 -199 -130 -308q-124 -109 -288 -109q-3 0 -5 1q-167 1 -266 95t-105 209v17q0 102 68 135q33 16 62 16q34 0 62 -23q39 -32 39 -81q0 -15 -3 -30q-4 -18 -4 -36q0 -52 33 -105q41 -65 142 -65h18q115 6 191 103 q56 70 56 165q0 35 -8 74q-58 122 -168 150t-180 28h-15q-77 -5 -81 -39t-56 -44q-23 -5 -41 -5q-50 0 -72 35q-14 20 -14 43q0 29 23 61t23 64t-12 85q-27 65 -53 83t-31 57v6q0 35 54 60q21 10 39 10q34 0 56 -34q33 -52 124 -55q8 -1 15 -1q82 0 140 34q64 37 149 49 q29 3 56 3q50 0 90 -14q61 -22 86 -92q7 -23 7 -43q0 -43 -34 -77q-36 -36 -74 -36q-16 0 -32 7q-56 21 -87 70q-19 28 -55 28q-25 0 -58 -13q-81 -34 -190 -37q-85 4 -124 17q38 -32 49 -116z" unicode="5"/>
<glyph glyph-name="six" d="M92 327q-13 77 -13 154q0 117 31 233q50 189 140 304t186 154q48 19 86 19q39 0 67 -19q40 -27 40 -66q0 -17 -8 -37q-25 -63 -119 -85t-185 -116q-92 -94 -127 -249q-25 -106 -25 -197q0 -44 6 -84q40 141 180 227q86 53 179 53q56 0 115 -20q155 -52 205 -192 q21 -61 21 -120q0 -78 -38 -155q-66 -134 -232 -168q-43 -9 -85 -9q-121 0 -236 75q-155 100 -188 298zM682 119q49 51 49 124q0 11 -1 23q-9 87 -111 153q-62 39 -132 39q-46 0 -96 -17q-125 -44 -163 -192q14 -63 97 -131q76 -64 175 -64q8 0 17 1q109 5 165 64z" unicode="6"/>
<glyph glyph-name="seven" d="M426 442q100 118 222 222q122 103 132 164q-25 -28 -119 -28h-19q-211 3 -292 37q-33 13 -58 13q-36 0 -54 -28q-32 -49 -87 -70q-17 -7 -33 -7q-38 0 -74 36q-34 34 -34 77q0 20 8 43q24 70 85 92q40 14 90 14q27 0 56 -3q85 -12 149 -49q58 -34 240 -34q7 0 15 1 q91 3 125 55q21 34 55 34q17 0 38 -9q60 -28 68 -97v-13q0 -65 -70 -162q-77 -106 -175 -182t-180 -218t-96 -262t-23 -197q-10 -95 -95 -95q-5 0 -9 1q-88 5 -98 109q-2 13 -2 27q0 98 63 244q72 167 172 285z" unicode="7"/>
<glyph glyph-name="eight" d="M620 523q194 -79 244 -211q22 -61 22 -113q0 -93 -69 -160q-110 -106 -324 -109q-8 -1 -14 -1q-206 0 -309 117q-73 81 -73 173q0 45 18 91q41 113 228 205q-165 76 -219 169q-60 100 -60 179q0 14 3 28q12 86 47 124q25 29 64 29q11 0 24 -2q55 -12 70 -54q48 34 204 34 q154 0 258 -67q89 -57 89 -174q0 -18 -2 -38q-13 -118 -201 -220zM278 861q-38 -41 -38 -91q0 -31 14 -64q38 -88 233 -136q208 84 225 167q4 15 4 30q0 62 -59 101q-73 48 -200 50h-5q-123 0 -174 -57zM493 460q-175 -63 -218 -147q-19 -37 -19 -71q0 -47 33 -91 q57 -75 205 -75h4q150 0 220 61q42 36 42 86q0 34 -19 75q-47 100 -248 162z" unicode="8"/>
<glyph glyph-name="nine" d="M858 655q13 -78 13 -155q0 -117 -31 -232q-50 -190 -140 -305t-186 -153q-48 -20 -86 -20t-67 20q-40 26 -40 65q0 17 8 37q25 64 119 86t185 115q92 94 128 250q24 105 24 196q0 44 -6 84q-40 -141 -179 -226q-87 -54 -180 -54q-56 0 -115 20q-155 52 -204 193 q-22 60 -22 119q0 78 38 155q66 134 233 169q42 8 84 8q121 0 237 -74q154 -101 187 -298zM268 862q-49 -51 -49 -124q0 -11 2 -22q8 -88 111 -153q61 -40 131 -40q46 0 96 18q125 43 163 191q-14 62 -96 131q-77 63 -178 63h-14q-110 -5 -166 -64z" unicode="9"/>
<glyph glyph-name="colon" horiz-adv-x="449" unicode=":" d="M198 845q32 18 62 18q21 0 40 -9q46 -21 58 -84q3 -18 3 -35q0 -46 -22 -94q-32 -67 -83 -100q-31 -19 -60 -19q-21 0 -42 10q-50 23 -62 86q-3 17 -3 35q0 46 22 94q31 66 87 98zM198 293q32 18 62 18q21 0 40 -9q46 -21 58 -84q3 -18 3 -35q0 -46 -22 -94 q-32 -67 -83 -100q-31 -19 -60 -19q-21 0 -42 10q-50 23 -62 86q-3 17 -3 35q0 46 22 94q31 66 87 98z"/>
<glyph glyph-name="less" d="M180 576q282 108 383 206t139 167q29 54 81 54q8 0 19 -2q65 -10 81 -86q1 -7 1 -14q0 -74 -156 -195t-522 -241q366 -120 522 -241t156 -195q0 -7 -1 -14q-16 -76 -81 -86q-11 -2 -19 -2q-52 0 -81 54q-38 69 -139 167t-384 206q-114 29 -114 109v7q5 85 115 106z" unicode="&lt;"/>
<glyph glyph-name="equal" d="M665 293q59 20 100 20q48 0 73 -27q28 -32 28 -66q0 -22 -11 -44q-23 -49 -96 -49q-16 0 -35 3q-85 11 -142 11q-13 0 -24 -1q-62 -3 -243 -15q-34 -3 -63 -3q-124 0 -148 44q-13 23 -13 45q0 30 23 57q26 32 69 32q21 0 45 -8q75 -23 192 -33q22 -2 44 -2q97 0 201 36z M650 594q65 20 110 20q53 0 78 -28q28 -32 28 -66q0 -22 -11 -44q-23 -49 -96 -49q-16 0 -35 3q-85 11 -142 11q-13 0 -24 -1q-62 -3 -243 -15q-32 -3 -59 -3q-128 0 -157 49q-16 28 -16 54q0 30 21 58q24 33 62 33q23 0 50 -12q72 -31 182 -42q23 -3 47 -3q93 0 205 35z " unicode="="/>
<glyph glyph-name="greater" d="M884 470v-7q0 -80 -114 -109q-283 -108 -384 -206t-139 -167q-29 -54 -81 -54q-8 0 -18 2q-66 10 -82 86q-1 7 -1 14q1 74 157 195t522 241q-366 120 -522 241t-157 195q0 7 1 14q16 76 82 86q10 2 18 2q52 0 81 -54q38 -69 139 -167t383 -206q110 -21 115 -106z" unicode="&gt;"/>
<glyph glyph-name="question" horiz-adv-x="1387" unicode="?" d="M707 776q-1 -4 -1 -7q0 -50 23 -50q11 0 28 13q53 40 138 45h7q77 0 82 -87v-10q0 -85 -80 -146q-47 -36 -102 -36q-44 0 -93 23q-111 51 -111 210v3q1 162 329 364q314 192 314 404q0 9 -1 19q-15 222 -155 330q-127 97 -336 97q-21 0 -43 -1q-240 -11 -355 -127 q-108 -110 -108 -246q0 -9 1 -17q7 -147 68 -166q15 -5 29 -5q38 0 58 43q25 57 89 79q20 7 42 7q43 0 88 -30q59 -39 59 -118v-21q-9 -95 -123 -149q-62 -30 -124 -30q-52 0 -103 21q-113 45 -179 167q-45 81 -45 180q0 50 12 105q33 162 166 284t392 144q34 3 68 3 q219 0 403 -117q212 -135 212 -429v-1q-1 -296 -324 -480t-325 -268zM896 89q-32 -67 -87 -98q-31 -18 -61 -18q-23 0 -44 11q-51 23 -59 84q-2 12 -2 25q0 49 25 102q31 66 87 98q33 18 63 18q20 0 38 -8q47 -22 59 -85q3 -17 3 -35q0 -46 -22 -94z"/>
<glyph glyph-name="at" horiz-adv-x="1718" unicode="@" d="M1473 470q41 2 65 52t29 118q8 90 41 90q12 0 23 -5q32 -17 32 -83q0 -25 -6 -59q-20 -106 -69 -158q-59 -54 -123 -54h-1q-123 2 -189 86q-44 -47 -86 -71q-65 -37 -163 -37h-10q-106 2 -204 68t-116 187q-4 25 -4 49q0 91 56 167q71 95 253 132t214 113q2 28 2 55 q0 182 -79 273q-90 104 -260 123q-24 2 -49 2q-145 0 -292 -95q-172 -111 -260 -329q-69 -171 -69 -355q0 -52 6 -105q25 -242 161 -424t339 -266q153 -65 284 -65q42 0 82 7q164 27 222 100t123 95q20 6 40 6q42 0 82 -31q35 -29 35 -78q0 -30 -14 -69q-36 -100 -288 -158 q-90 -21 -183 -21q-168 0 -347 68q-278 105 -447 331t-196 488q-7 58 -7 116q0 200 75 390q95 244 311 387q176 116 360 116q41 0 83 -5q227 -33 337 -219t112 -559q3 -373 95 -373zM1233 539q-25 76 -25 211q0 69 3 157q-21 -19 -131 -47q-110 -27 -163 -81 q-40 -42 -40 -99q0 -19 4 -39q17 -83 93 -121q53 -27 120 -27q28 0 59 5q43 7 80 41z"/>
<glyph glyph-name="A" horiz-adv-x="2858" unicode="A" d="M741 -728q305 2 531 314t389 1137q-67 14 -134 14q-69 0 -138 -15q-135 -30 -197 -141t-164 -111q-46 0 -78 34t-31 81q10 123 145 193t341 77q56 2 103 2q124 0 181 -15q75 312 136 568t169 458q108 201 242 201q36 0 70 -41q16 -21 16 -43q0 -21 -17 -44 q-31 -55 -39 -142q0 -65 36 -385t196 -794q158 -476 243 -564t153 -120q64 -30 64 -89q-5 -72 -69 -92q-28 -9 -56 -9q-37 0 -73 16q-64 26 -106 85t-243 407q-202 348 -631 436q-174 -877 -436 -1214t-628 -337q-245 11 -415 157q-179 154 -187 382q12 246 168 384t370 146 q309 -3 434 -211q51 -88 51 -180q-1 -162 -104 -240q-44 -25 -89 -25q-54 0 -94 40t-40 95q0 86 78 123l2 2q39 39 39 95q-1 51 -65 115t-216 64q-160 0 -274 -113t-114 -284q0 -177 129 -297q122 -115 352 -120zM1807 812q321 -72 600 -379q-260 713 -260 1415 q-137 -150 -205 -439t-135 -597z"/>
<glyph glyph-name="B" horiz-adv-x="2180" unicode="B" d="M548 1819q-49 35 -147 40q-101 0 -130 -90q-31 -98 -108 -98q-99 0 -99 107q0 63 60 124q74 76 235 77q136 0 268 -92q232 200 538 200q201 0 360 -110q271 -185 271 -586q0 -300 -163 -495q388 -72 388 -522q0 -132 -55 -284q-178 -403 -628 -403q-186 0 -362 85 q-108 -74 -275 -74q-584 8 -584 989q0 662 431 1132zM1466 901q214 207 214 480q0 222 -122 389q-140 190 -398 190q-287 -14 -452 -159q507 -506 512 -1297q0 -445 -149 -631q74 -72 310 -72q168 0 300 100q179 136 201 477q0 215 -128 319q-85 61 -149 61q-46 0 -81 -31 q-83 -75 -156 -75q-71 2 -71 76q0 73 101 143q30 20 68 30zM705 59q-14 49 -14 85q0 48 24 74q28 31 71 31q78 0 84 -96t84 -201q119 136 119 485q0 845 -436 1267q-372 -307 -373 -1056q1 -789 489 -789q49 0 90 13q-106 73 -138 187z"/>
<glyph glyph-name="C" horiz-adv-x="1806" unicode="C" d="M2371 1525q-1 -194 -155 -321t-372 -127t-372 117q-128 128 -128 272q0 67 28 125q54 123 177 130q64 0 105 -45q37 -43 37 -88q0 -15 -4 -31q-18 -61 -79 -104q-41 -29 -41 -81q16 -179 295 -179q158 0 268 93t110 239q0 120 -64 211q-151 194 -575 223 q-652 1 -1004 -357t-352 -886q0 -317 155 -578q192 -326 578 -445q270 -85 505 -85q352 0 531 148q168 138 258 138q78 -1 78 -79q-10 -91 -278 -215t-616 -124q-287 0 -584 107q-410 147 -616 544q-147 283 -147 589q-1 592 411 976t1074 385q505 -28 694 -277 q83 -121 83 -275z"/>
<glyph glyph-name="D" horiz-adv-x="2866" unicode="D" d="M2389 1445q-437 -370 -1041 -372q-422 9 -635 122t-233 334q0 97 52 205q203 345 775 345q600 -4 1052 -400q38 89 38 150q-3 37 -3 56q0 66 26 109q32 53 91 53q101 -4 101 -114q0 -149 -142 -375q232 -310 232 -840q-53 -1025 -1034 -1065q-404 7 -702 193 q-167 -198 -372 -199q-126 0 -203 56q-91 66 -91 192q12 269 303 270q144 0 317 -136q87 155 97 396q-3 207 -89 280t-92 169q6 97 104 107q122 -2 179 -169q32 -101 32 -248q-10 -376 -138 -609q270 -167 657 -173q853 40 901 926q0 480 -182 737zM1355 1216q581 2 943 343 q-406 373 -1050 395q-393 -15 -573 -230q-42 -61 -42 -126q27 -356 722 -382zM863 -63q-145 111 -265 111q-161 -6 -171 -133q3 -137 173 -137q138 0 263 159z"/>
<glyph glyph-name="E" horiz-adv-x="1413" unicode="E" d="M1092 1984q-366 -3 -622 -217t-265 -559q0 -245 162 -425q230 -239 503 -248q86 0 121 39q53 59 108 59q69 -5 79 -81q0 -66 -54 -96q-69 -41 -191 -48q-87 -22 -176 -110q-113 -111 -113 -228q9 -241 292 -275q129 0 199 52t115 82q30 19 71 19q93 -1 93 -88 q0 -92 -130 -150t-284 -58q-273 4 -424 180q-80 110 -80 235q14 220 213 353q-305 67 -475 292q-180 238 -180 529q4 335 278 593t740 279q318 -1 531 -95t301 -234q77 -124 77 -259q-3 -217 -139 -345t-391 -129q-492 20 -500 395q12 268 205 275q64 0 105 -45 q37 -43 37 -88q0 -82 -83 -135q-41 -29 -41 -81q0 -26 11 -59q72 -126 291 -128q142 1 252 89t117 243q0 114 -81 217q-98 125 -268 186t-404 64z"/>
<glyph glyph-name="F" horiz-adv-x="1531" unicode="F" d="M1005 940q98 0 162 37q54 32 94 32q79 0 85 -88q-7 -123 -183 -123q-56 0 -131 11q13 -59 31 -125q69 -259 69 -442q-2 -260 -126 -406t-298 -175q-65 -11 -124 -11q-101 0 -207 31q-212 80 -222 237q9 99 103 100q76 -9 146 -109t229 -108q120 0 222 72q141 105 147 363 q0 175 -75 418q-30 98 -49 184q-106 19 -175 19q-88 0 -116 -31q-39 -43 -80 -43q-72 0 -82 76q7 120 208 128q116 0 222 -25q-9 69 -9 129q0 112 31 309q-292 -4 -424 -27q-257 -38 -260 -155q10 -63 101 -67q43 0 58 39q31 75 106 79q81 -6 91 -79q-4 -148 -215 -162 q-235 0 -246 200q3 223 337 277q153 22 488 25q72 208 263 380q267 223 637 237q415 0 445 -304q0 -207 -218 -327t-637 -119q-247 4 -380 4q-37 -180 -37 -273q0 -138 19 -188zM1060 1530q96 0 290 -3q436 1 594 99t158 209q-9 178 -294 178q-350 -36 -566 -231 q-123 -122 -182 -252z"/>
<glyph glyph-name="G" horiz-adv-x="2208" unicode="G" d="M961 -133q-867 22 -867 1113q0 468 270 772t667 321q271 0 433 -102q284 -176 285 -519q-5 -180 -121 -300t-309 -129q-92 0 -175 35q-189 90 -189 301q14 231 187 245q62 0 102 -40q37 -38 37 -89q-7 -81 -80 -142q-49 -33 -49 -78q11 -97 194 -101q110 0 179 64 q80 73 93 249q-3 265 -243 414q-125 70 -344 70q-321 -13 -557 -273t-240 -709q0 -944 737 -968q582 11 738 648q-3 35 -3 65q0 192 122 192q56 0 56 -86q0 -40 -12 -98q-15 -73 -15 -173q0 -174 58 -497q126 59 195 156q78 108 83 212t46 105q51 0 51 -86 q-11 -147 -83 -281q-71 -134 -271 -244q10 -99 10 -188q0 -217 -59 -378q-147 -367 -577 -369q-118 0 -231 44q-267 117 -271 355q0 144 113 254q141 138 441 223t441 143q-39 219 -61 372q-277 -499 -781 -503zM1038 -428q-94 -85 -94 -188q4 -145 202 -245q83 -31 173 -31 q331 2 449 291q40 119 40 258q0 94 -18 196q-199 -78 -417 -127t-335 -154z"/>
<glyph glyph-name="H" horiz-adv-x="2341" unicode="H" d="M168 1210q-95 120 -95 284q5 260 200 442q135 115 319 115q296 -8 494 -294t200 -846q0 -52 -2 -108q163 61 384 155q-17 157 -17 336q0 762 336 785q262 0 264 -451q-11 -440 -440 -714q121 -568 243 -744t195 -209q66 -32 66 -113q-8 -110 -112 -111q-103 0 -251 237 q-146 232 -269 870q-221 -112 -404 -181q-32 -490 -205 -756t-482 -266q-341 30 -379 366q0 62 20 127q56 183 245 321t653 292q5 89 5 170q-9 473 -170 732t-373 264q-298 -9 -359 -338q0 -104 81 -152q45 -26 100 -26q80 16 159 16q76 0 129 -53t53 -128q0 -76 -73 -129 q-67 -48 -208 -48q-189 15 -307 155zM1793 1026q316 216 334 604q-4 302 -158 302q-162 -1 -194 -642q0 -133 18 -264zM1121 609q-317 -85 -539 -225t-228 -341q0 -245 276 -256q234 3 385 331q77 195 106 491z"/>
<glyph glyph-name="I" horiz-adv-x="1361" unicode="I" d="M949 1838q-97 -50 -357 -176t-355 -314q-42 -84 -42 -201q3 -164 153 -255q68 -32 131 -32q185 4 188 127q0 46 -46 63q-86 50 -95 139q0 38 24 74q41 60 133 63q93 0 152 -97q39 -67 39 -142q-9 -175 -151 -278q-98 -73 -248 -73q-153 4 -275 114t-131 304q0 146 64 254 q111 196 459 372t384 225q40 55 82 55q16 0 31 -7q22 11 44 11q70 -4 75 -74q0 -51 -66 -121q-101 -104 -103 -318q1 -279 55 -594t54 -636q-8 -373 -163 -522t-393 -149q-245 1 -383 160q-46 51 -46 118q19 89 103 90q32 0 61 -19q45 -30 105 -110t204 -88q172 0 275 137 t110 447q0 205 -53 553t-53 631q1 166 34 269z"/>
<glyph glyph-name="J" horiz-adv-x="1768" unicode="J" d="M1473 55q140 73 197 153q78 108 83 212t46 105q51 0 51 -86q-11 -147 -83 -281q-71 -134 -271 -244q10 -99 10 -188q0 -217 -59 -378q-147 -367 -577 -369q-118 0 -231 44q-267 117 -271 355q0 144 113 254q142 138 442 223q251 71 425 143q-70 476 -167 956 q-48 235 -48 429q0 205 54 363q-250 -264 -623 -538t-375 -642q15 -147 76 -231q129 -180 378 -187q194 3 285 153q32 68 32 131q-4 185 -127 188q-46 0 -63 -46q-50 -86 -139 -95q-38 0 -74 24q-60 41 -63 133q0 93 97 152q67 39 142 39q175 -9 278 -151q73 -98 73 -248 q-4 -164 -114 -280t-314 -126q-286 3 -471 210q-111 145 -123 353q2 409 500 777t646 633q40 55 83 55q36 0 49 -18q22 12 45 12q61 -4 76 -74q0 -51 -66 -121q-111 -144 -113 -512q0 -259 61 -574q69 -358 130 -708zM598 -428q-94 -85 -94 -188q4 -145 202 -245 q83 -31 173 -31q331 2 449 291q40 119 40 258q0 94 -18 196q-199 -78 -417 -127t-335 -154z"/>
<glyph glyph-name="K" horiz-adv-x="2435" unicode="K" d="M1286 903q115 24 178 25q242 218 373 543q202 580 512 610q108 0 112 -94q0 -24 -16 -48q-44 -65 -192 -71t-334 -516q-103 -281 -285 -455q174 -59 259 -204q88 -151 200 -519t397 -376q98 0 136 70t102 69q69 -10 70 -77q0 -35 -30 -79q-86 -109 -248 -110 q-416 6 -558 443t-281 573q-89 87 -155 87q-139 -78 -247 -115q-33 -487 -205 -752q-173 -266 -482 -266q-341 30 -379 366q0 62 20 127q56 183 245 321t653 292q5 89 5 170q-9 473 -170 732t-373 264q-298 -9 -359 -338q0 -104 81 -152q45 -26 100 -26q80 16 159 16 q76 0 129 -53t53 -128q0 -76 -73 -129q-67 -48 -208 -48q-189 15 -307 155q-95 120 -95 284q5 260 200 442q135 115 319 115q296 -8 494 -294t200 -846v-8zM1121 609q-317 -85 -539 -225t-228 -341q0 -245 276 -256q234 3 385 331q77 195 106 491z"/>
<glyph glyph-name="L" horiz-adv-x="1345" unicode="L" d="M2105 -999q246 3 370 180q65 111 65 229q0 126 -76 228t-230 107q-147 0 -155 -119q0 -39 38 -66q61 -44 65 -95q0 -55 -34 -89q-29 -30 -96 -30q-177 15 -177 207q13 179 165 276q81 44 176 44q191 -5 319 -128t130 -328q0 -141 -73 -280q-152 -238 -479 -246 q-335 -1 -549 281t-415 621t-433 364q-34 -468 -361 -473q-229 20 -245 249q4 302 470 355q-57 454 -59 732q-188 63 -276 143q-116 104 -116 182q0 108 103 114q30 0 61 -16q56 -29 90 -155q25 -95 140 -155q8 189 46 336q165 628 818 644q566 -14 589 -442 q-19 -523 -769 -700q-165 -31 -298 -31q-137 0 -260 33q0 -252 63 -692q304 -31 526 -387t408 -624t459 -269zM652 1095q128 -28 259 -28q186 0 397 57q504 186 521 511q-9 321 -450 341q-527 -7 -682 -531q-36 -151 -45 -350zM579 172q-339 -50 -340 -219q8 -116 120 -126 q192 0 220 345z"/>
<glyph glyph-name="M" horiz-adv-x="3101" unicode="M" d="M1270 2062q327 -4 514 -379q137 365 461 367q245 0 396 -272q130 -235 130 -692q0 -108 -7 -228q-10 -162 -10 -297q0 -388 82 -547q109 -216 274 -216q90 5 128 72t102 67q69 -5 70 -77q0 -35 -30 -79q-86 -109 -251 -110q-265 13 -397 264q-100 188 -100 568 q0 123 11 267q12 159 12 296q0 367 -84 577q-115 287 -343 287q-263 -3 -367 -433q-23 -119 -23 -209q19 -184 53 -260q17 -40 17 -98q-3 -108 -110 -108t-114 232q0 74 11 274q0 203 -65 362q-131 236 -381 240q-174 0 -315 -136q490 -536 495 -1300q0 -796 -499 -796 q-554 8 -583 846q0 629 432 1227q-80 54 -158 58q-101 0 -130 -90q-31 -98 -108 -98q-99 0 -99 107q0 63 60 124q74 76 235 77q134 0 263 -89q214 202 428 202zM866 1694q-367 -483 -367 -1188q15 -637 424 -677q379 0 379 668q-49 775 -436 1197z"/>
<glyph glyph-name="N" horiz-adv-x="2726" unicode="N" d="M686 -728q246 2 447 195q291 346 314 1087q-7 531 -73 785t-136 342q-30 38 -30 69q10 79 113 85q49 0 88 -48q53 -65 225 -395t734 -1202q-96 416 -96 730q5 584 313 906q305 319 760 319q209 -4 343 -59q176 -73 253 -215q68 -126 68 -264q-2 -177 -125 -310t-294 -138 q-125 0 -206 45q-162 86 -165 265q3 175 145 210q20 4 38 4q46 0 80 -26q44 -35 44 -94q-4 -57 -65 -100q-38 -28 -38 -67q0 -23 14 -50q34 -69 141 -69q134 5 220 97t86 240q0 115 -60 213q-69 111 -221 169q-106 39 -258 43q-429 -17 -681 -303q-256 -289 -270 -864 q0 -236 53 -506t147 -412q64 -81 64 -132q-10 -69 -102 -79q-49 0 -88 48q-48 59 -208 301t-750 1249q83 -333 83 -823q-43 -816 -392 -1170q-242 -209 -539 -209q-245 11 -415 157q-179 154 -187 382q12 246 168 384t370 146q309 -3 434 -211q51 -88 51 -180 q-1 -162 -104 -240q-44 -25 -89 -25q-54 0 -94 40t-40 95q0 86 78 123l2 2q39 39 39 95q-1 51 -65 115t-216 64q-160 0 -274 -113t-114 -284q0 -177 129 -297q122 -114 351 -120z"/>
<glyph glyph-name="O" horiz-adv-x="2321" unicode="O" d="M2025 736q0 237 -94 418q-116 -132 -322 -137q-348 13 -368 330q0 66 35 132q55 103 160 103q145 0 151 -134q0 -68 -80 -115q-49 -33 -49 -78q21 -97 185 -100q119 0 211 94q-71 53 -73 131q10 72 76 80q38 0 63 -17q1 17 1 33q0 102 -48 197q-162 279 -586 282 q-351 -5 -597 -281t-260 -797q10 -521 234 -763t649 -244h6q649 0 706 866zM1306 -265q-508 15 -757 319t-259 834q12 560 296 869t709 320q569 -2 722 -399q36 -107 36 -200q0 -105 -33 -174q85 -160 108 -490q-5 -1028 -822 -1079z"/>
<glyph glyph-name="P" horiz-adv-x="1475" unicode="P" d="M989 1094q-44 -11 -89 -11q-280 7 -302 147q0 82 95 90q65 0 99 -55q35 -45 113 -45q20 0 39 2q-107 275 -288 472q-367 -483 -367 -1188q15 -637 424 -677q379 0 379 668q-21 331 -103 597zM1064 1264q51 30 96 83q108 126 108 286q0 263 -249 268q-162 -7 -291 -125 q107 -105 211 -272q71 -116 125 -240zM1109 1147q107 -304 110 -653q0 -796 -499 -796q-554 8 -583 846q0 629 432 1227q-80 54 -158 58q-101 0 -130 -90q-31 -98 -108 -98q-99 0 -99 107q0 63 60 124q74 76 235 77q144 0 284 -108q158 179 381 181q323 -8 350 -366 q0 -248 -156 -410q-58 -61 -119 -99z"/>
<glyph glyph-name="Q" horiz-adv-x="2067" unicode="Q" d="M803 -91q441 -1 681 299t240 724q0 474 -216 748t-575 274q-338 0 -564 -247q-145 -188 -151 -475q2 -382 308 -577q127 -66 244 -66q271 9 302 249q0 96 -80 139q-142 53 -150 169q0 38 27 79q39 58 146 58q257 -25 257 -344q-32 -461 -498 -461q-278 15 -466 211 t-199 529q2 308 154 525q242 324 670 324q405 1 653 -307t248 -828q0 -472 -272 -804t-703 -333q196 -100 419 -367q354 -426 627 -427q246 3 370 180q65 111 65 229q0 126 -76 228t-230 107q-147 0 -155 -119q0 -39 38 -66q61 -44 65 -95q0 -55 -34 -89q-29 -30 -96 -30 q-177 15 -177 207q13 179 165 276q81 44 176 44q191 -5 319 -128t130 -328q0 -141 -73 -280q-152 -238 -479 -246q-336 0 -688 418q-352 417 -571 420q-196 -4 -196 -206q10 -92 92 -93q35 0 62 37q43 61 102 61h1q60 -1 101 -50q31 -39 31 -94q-3 -97 -122 -157 q-51 -23 -103 -23q-61 0 -124 31q-147 88 -157 294q6 378 462 380z"/>
<glyph glyph-name="R" horiz-adv-x="2189" unicode="R" d="M731 1773q105 -104 208 -269q275 -446 280 -1010q0 -796 -499 -796q-554 8 -583 846q0 629 432 1227q-80 54 -158 58q-101 0 -130 -90q-31 -98 -108 -98q-99 0 -99 107q0 63 60 124q74 76 235 77q138 0 272 -98q250 236 554 236q201 0 360 -110q271 -185 271 -586 q0 -263 -204 -523q104 -51 171 -175q88 -151 200 -519t397 -376q98 0 136 70t102 69q69 -10 70 -77q0 -35 -30 -79q-86 -109 -248 -110q-416 6 -558 443t-231 549q-51 81 -130 81q-37 0 -67 -27q-61 -74 -139 -74q-81 2 -81 76q0 75 82 133q68 49 200 49q214 207 214 480 q0 222 -122 389q-140 190 -398 190q-277 -14 -459 -187zM656 1694q-367 -483 -367 -1188q15 -637 424 -677q379 0 379 668q-49 775 -436 1197z"/>
<glyph glyph-name="S" horiz-adv-x="1392" unicode="S" d="M202 1270q6 -266 270 -478t556 -402t292 -413q-7 -148 -93 -234t-250 -90q-275 9 -312 192q2 102 81 102q64 0 102 -82t146 -90q75 -1 131 55t56 143q-7 175 -251 331t-541 394t-308 565q0 392 304 603t749 211q585 -8 794 -277q83 -121 83 -275q-1 -194 -155 -321 t-372 -127t-372 117q-128 128 -128 272q0 67 28 125q54 123 177 130q64 0 105 -45q37 -43 37 -88q-2 -82 -83 -135q-41 -29 -41 -81q26 -179 295 -179q158 0 268 93t110 239q0 120 -64 211q-171 214 -675 223q-411 0 -675 -180t-264 -509z"/>
<glyph glyph-name="T" horiz-adv-x="1362" unicode="T" d="M877 1396q-325 -6 -424 -23q-257 -38 -260 -155q10 -63 101 -67q43 0 58 39q31 75 106 79q81 -6 91 -79q-4 -148 -215 -162q-235 0 -246 200q3 223 337 277q153 22 488 25q72 208 263 380q267 223 637 237q415 0 445 -304q0 -207 -218 -327t-637 -119q-135 2 -281 2 q-58 0 -111 -1q-25 -118 -25 -269q0 -148 24 -327q60 -453 84 -663q10 -86 10 -155q0 -98 -20 -159q-28 -84 -84 -84q-14 0 -29 6q-61 20 -61 86q0 19 5 42q19 84 19 243q0 35 -1 74q-5 214 -52 611q-24 200 -24 353q0 139 20 240zM1060 1530q96 0 290 -3q436 1 594 99 t158 209q-9 178 -294 178q-350 -36 -566 -231q-123 -122 -182 -252z"/>
<glyph glyph-name="U" horiz-adv-x="2429" unicode="U" d="M1901 400q-108 343 -120 661q-1 32 -1 62q0 300 130 303h3q140 0 171 -325q13 -146 13 -287q0 -176 -21 -345l-2 -2q-10 -66 -23 -126q165 -509 395 -543q51 0 91 38t55 56h1l1 1q26 26 63 26t63 -26t26 -63q0 -76 -74 -118t-162 -43q-306 8 -516 478q-96 -257 -280 -394 q-158 -109 -331 -109q-293 2 -455 228q-133 185 -133 660q0 104 7 222q20 379 20 601q0 164 -11 243q-31 220 -152 300q-72 47 -138 47q-45 0 -87 -22q-103 -55 -104 -162v-3q0 -67 50 -118q50 -54 58 -86t9 -52q0 -66 -48 -114t-115 -48q-86 0 -150 62t-74 202q-1 14 -1 28 q0 128 83 263q91 150 286 185q38 6 75 6q149 0 271 -112q152 -141 174 -409q6 -68 6 -178q0 -230 -24 -641q-8 -132 -8 -243q0 -405 101 -546q129 -181 336 -184q185 0 318 110q136 111 195 290q29 91 45 171q-9 27 -18 55zM1969 588q-10 658 -39 665h-2q-21 0 -21 -115 q0 -29 1 -65q7 -187 61 -485z"/>
<glyph glyph-name="V" horiz-adv-x="1677" unicode="V" d="M2561 2036q-413 -6 -699 -206t-465 -544t-236 -739q-38 -257 -38 -455q0 -107 11 -196q14 -25 14 -47q0 -83 -114 -83q-178 4 -188 172q-73 734 -210 1113q-136 379 -268 564t-250 252q-59 32 -59 90q3 102 102 111q119 0 312 -279t313 -689t197 -1068q23 738 226 1186 t543 684t809 240q215 -10 327 -56q176 -73 253 -215q68 -126 68 -264q-2 -177 -125 -310t-294 -138q-125 0 -206 45q-162 86 -165 265q3 175 145 210q20 4 38 4q46 0 80 -26q44 -35 44 -94q-4 -57 -65 -100q-38 -28 -38 -67q0 -23 14 -50q34 -69 141 -69q134 5 220 97 t86 240q0 115 -60 213q-69 111 -221 169q-82 30 -242 40z"/>
<glyph glyph-name="W" horiz-adv-x="2477" unicode="W" d="M2197 1286q-179 -344 -236 -739q-38 -257 -38 -455q0 -107 11 -196q14 -25 14 -47q0 -83 -114 -83q-148 4 -158 172q-103 734 -240 1113q-34 95 -68 177q-155 -319 -207 -681q-38 -257 -38 -455q0 -107 11 -196q14 -25 14 -47q0 -83 -114 -83q-148 4 -158 172 q-103 734 -240 1113q-136 379 -268 564t-250 252q-59 32 -59 90q3 102 102 111q119 0 312 -279t313 -689t197 -1068q23 739 226 1187q41 90 87 171q-65 135 -128 225q-132 185 -250 252q-59 32 -59 90q3 102 102 111q119 0 312 -279t313 -689t197 -1068q23 738 226 1186 t546 684t806 240q215 -10 327 -56q176 -73 253 -215q68 -126 68 -264q-2 -177 -125 -310t-294 -138q-125 0 -206 45q-162 86 -165 265q3 175 145 210q20 4 38 4q46 0 80 -26q44 -35 44 -94q-4 -57 -65 -100q-38 -28 -38 -67q0 -23 14 -50q34 -69 141 -69q134 5 220 97 t86 240q0 115 -60 213q-69 111 -221 169q-82 30 -242 40q-397 -4 -691 -206q-294 -200 -473 -544z"/>
<glyph glyph-name="X" horiz-adv-x="2633" unicode="X" d="M1956 717q-431 -1021 -690 -1300t-577 -279q-263 4 -442 158t-187 382q12 246 168 384t370 146q309 -3 434 -211q51 -88 51 -180q-1 -162 -104 -240q-44 -25 -89 -25q-54 0 -94 40t-40 95q0 86 78 123l2 2q39 39 39 95q-1 51 -65 115t-216 64q-160 0 -274 -113t-114 -284 q0 -177 128 -297t375 -120q271 9 499 277t672 1318q-178 389 -328 605t-282 291q-37 32 -37 81q8 82 95 82q86 -1 258 -238t364 -669q232 477 562 796t804 330q229 0 372 -59q176 -73 253 -215q68 -126 68 -264q-2 -177 -125 -310t-294 -138q-125 0 -206 45 q-162 86 -165 265q3 175 145 210q20 4 38 4q46 0 80 -26q44 -35 44 -94q-4 -57 -65 -100q-38 -28 -38 -67q0 -23 14 -50q34 -69 141 -69q134 5 220 97t86 240q0 115 -60 213q-69 111 -221 169q-119 44 -297 44q-410 -10 -720 -326t-562 -842q162 -324 252 -473t169 -245 q132 -159 204 -193q66 -42 66 -113q-8 -110 -102 -111q-113 0 -261 237q-66 104 -142 248t-254 495z"/>
<glyph glyph-name="Y" horiz-adv-x="2438" unicode="Y" d="M1714 53q-158 -109 -331 -109q-35 0 -71 5q-212 27 -349 221q-127 178 -127 656q0 20 1 40v147q0 397 -26 585q-31 220 -152 300q-72 47 -138 47q-45 0 -87 -22q-103 -55 -104 -162v-3q0 -67 50 -118q50 -54 58 -86t9 -52q0 -66 -48 -114t-115 -48q-86 0 -150 62t-74 202 q-1 14 -1 28q0 128 83 263q91 150 286 185q38 6 75 6q149 0 271 -112q152 -141 174 -409q17 -211 17 -535q0 -88 -1 -185v-42q0 -416 116 -568q122 -159 292 -161q3 -1 7 -1q165 0 298 110q136 111 215 282q37 112 49 181q-2 24 -3 45l-2 23q0 192 122 192q56 0 56 -86 q0 -40 -12 -98q-15 -73 -15 -173q0 -174 58 -497q126 59 195 156q78 108 83 212t46 105q51 0 51 -86q-11 -147 -83 -281q-71 -134 -271 -244q10 -99 10 -188q0 -217 -59 -378q-147 -367 -577 -369q-118 0 -231 44q-267 117 -271 355q0 144 113 254q141 138 441 223t441 143 q-39 219 -61 372q-111 -216 -258 -317zM1268 -428q-94 -85 -94 -188q4 -145 202 -245q83 -31 173 -31q331 2 449 291q40 119 40 258q0 94 -18 196q-199 -78 -417 -127t-335 -154z"/>
<glyph glyph-name="Z" horiz-adv-x="1473" unicode="Z" d="M745 150q-106 -264 -253 -348q-98 -57 -177 -57q-46 0 -85 19q-109 51 -119 188q0 148 127 253q127 103 407 103q405 1058 483 1288q-134 0 -292 163q-178 186 -328 186q-60 0 -108 -35q-84 -62 -84 -162q2 -61 21 -102q36 -41 36 -96q-1 -61 -43 -104t-103 -43t-103 43 q-48 48 -52 171q12 325 313 433q70 17 133 17q185 0 386 -179q125 -112 209 -112q51 0 87 41q95 108 156 109q96 0 104 -92q0 -39 -37 -71q-53 -46 -126 -160t-515 -1334q261 -61 457 -375q221 -356 407 -624t459 -269q246 3 370 180q65 111 65 229q0 126 -76 228t-230 107 q-147 0 -155 -119q0 -39 38 -66q61 -44 65 -95q0 -55 -34 -89q-29 -30 -96 -30q-177 15 -177 207q13 179 165 276q81 44 176 44q191 -5 319 -128t130 -328q0 -141 -73 -280q-152 -238 -479 -246q-335 -1 -549 281t-415 611q-188 308 -404 367zM603 194q-189 -3 -293 -88 q-76 -63 -76 -126q0 -96 78 -96q36 0 88 31q115 69 203 279z"/>
<glyph glyph-name="bracketleft" horiz-adv-x="840" unicode="[" d="M184 1363h5q27 0 58 -19q12 -8 21 -21q29 -11 65 -19q64 -15 123 -15q17 0 35 1q74 6 145 37q32 14 57 14q32 0 53 -21q23 -22 23 -47q0 -17 -11 -35q-28 -45 -139 -56q-45 -5 -99 -5q-80 0 -180 10q-14 1 -28 3q8 -45 13 -101q14 -177 14 -636q0 -460 -14 -636 q-5 -56 -13 -101l28 4q97 9 176 9q56 0 103 -4q111 -12 139 -56q11 -19 11 -36q0 -25 -23 -47q-21 -21 -53 -21q-25 0 -57 14q-71 31 -145 37q-18 1 -37 1q-58 0 -121 -14q-36 -9 -65 -20q-9 -13 -21 -20q-31 -20 -58 -20h-5q-3 -1 -7 -1q-21 0 -40 22q-24 22 -24 56 q0 18 6 38q21 63 66 225q35 126 35 570t-35 570q-45 162 -66 226q-6 20 -6 37q0 34 24 56q19 22 40 22q4 0 7 -1z"/>
<glyph glyph-name="backslash" horiz-adv-x="914" unicode="\" d="M96 1860q-70 62 -90 126q-6 19 -6 36q0 38 30 62q21 16 46 16q27 0 58 -19q60 -38 102 -153q42 -116 276 -942q232 -826 276 -882t63 -119q6 -20 6 -37q0 -38 -30 -61q-21 -17 -46 -17q-27 0 -58 20q-60 38 -77 142t-248 934q-232 832 -302 894z"/>
<glyph glyph-name="bracketright" horiz-adv-x="840" unicode="]" d="M655 1363q3 1 7 1q21 0 40 -22q25 -23 25 -56q0 -17 -6 -37q-21 -64 -66 -226q-35 -126 -35 -570t35 -570q45 -162 66 -225q6 -20 6 -37q0 -34 -25 -57q-19 -22 -40 -22q-4 0 -7 1h-5q-27 0 -57 20q-12 7 -22 20q-28 11 -64 20q-63 14 -121 14q-19 0 -36 -1 q-75 -6 -146 -37q-32 -14 -57 -14q-32 0 -53 21q-23 22 -23 47q0 17 12 36q27 44 139 56q46 4 102 4q79 0 176 -9q14 -2 27 -4q-7 45 -12 101q-14 176 -14 636q0 459 14 636q5 56 12 101q-13 -2 -27 -3q-100 -10 -180 -10q-54 0 -98 5q-112 11 -139 56q-12 18 -12 35 q0 25 23 47q21 21 53 21q25 0 57 -14q71 -31 146 -37q17 -1 34 -1q59 0 123 15q36 8 64 19q10 13 22 21q30 19 57 19h5z"/>
<glyph glyph-name="asciicircum" d="M471 1475h7q79 0 108 -115q158 -182 206 -234t117 -88q54 -30 54 -82q0 -8 -2 -18q-10 -65 -86 -82q-7 -1 -14 -1q-74 1 -145 107t-241 372q-170 -266 -241 -372t-145 -107q-7 0 -14 1q-76 17 -86 82q-2 10 -2 18q0 52 54 82q69 36 117 88t206 234q21 109 107 115z" unicode="^"/>
<glyph glyph-name="underscore" horiz-adv-x="884" unicode="_" d="M-36 -463q-28 0 -46 19t-18 46q0 28 18 46t52 18h944q34 0 52 -18t18 -46q0 -27 -18 -46t-46 -19h-956z"/>
<glyph glyph-name="grave" horiz-adv-x="601" unicode="`" d="M424 1121q27 -34 27 -58q0 -11 -5 -20q-14 -24 -37 -24q-41 1 -150 89t-109 158q0 15 6 28q16 38 61 38q55 -2 111 -83t96 -128z"/>
<glyph glyph-name="a" horiz-adv-x="1147" unicode="a" d="M698 179q-109 -195 -323 -195q-163 0 -279 136t-116 327q0 212 116 338t279 126t279 -132q14 71 83 71q45 0 72 -57q20 -45 20 -129q0 -58 -10 -135q-9 -68 -9 -127q1 -297 142 -297q70 1 118 71t57 186q8 97 56 97q46 0 46 -89q0 -35 -9 -84q-28 -147 -107 -218 t-160 -71h-2q-83 1 -153 45t-100 137zM630 613q-93 163 -235 163q-123 0 -197 -92t-74 -240q0 -138 80 -235t191 -97q182 0 265 253q-27 148 -30 248z"/>
<glyph glyph-name="b" horiz-adv-x="1095" unicode="b" d="M489 102q158 10 219 128q-155 51 -258 185q-99 127 -99 259v13q5 138 68 190q45 37 107 37q25 0 54 -6q108 -21 208 -145t100 -316q0 -82 -21 -154q19 -3 36 -3q72 0 127 49q67 61 68 177q0 66 36 66q33 0 39 -71q0 -171 -105 -256q-85 -69 -191 -69q-27 0 -55 4 q-126 -206 -330 -206q-251 0 -422 362q-17 -15 -46 -15q-64 7 -74 86q0 86 69 121q-56 259 -56 610q10 608 223 620q192 0 193 -482q-7 -415 -228 -798q131 -376 338 -386zM130 641q128 269 138 650q-17 327 -84 327q-86 -17 -98 -370q0 -242 44 -607zM614 781 q-41 20 -69 20q-57 0 -65 -80q-4 -16 -4 -33q0 -73 69 -175q84 -127 220 -184q4 60 4 130q0 51 -12 108q-41 153 -143 214z"/>
<glyph glyph-name="c" horiz-adv-x="867" unicode="c" d="M-20 441q0 136 58 254q68 139 187 189q66 28 133 28q51 0 102 -16q167 -59 169 -227q0 -48 -20 -92q-38 -82 -104 -82q-95 3 -102 90q0 31 24 58q31 37 31 73q0 54 -52 73q-13 4 -29 4q-113 1 -185 -103t-72 -240q0 -108 56 -201q98 -151 294 -160q158 7 258 109t128 267 q6 47 46 47q36 -6 36 -54q-25 -186 -146 -332t-355 -150q-209 8 -331 128t-126 337z"/>
<glyph glyph-name="d" horiz-adv-x="1175" unicode="d" d="M335 1161q32 583 270 595q167 0 266 -274q102 -286 102 -580q-3 -320 -123 -626q66 -77 159 -79q55 0 97 37q55 49 61 144q4 78 45 78q39 0 39 -62q-1 -121 -73 -216t-200 -97q-100 0 -213 77q-143 -176 -372 -180q-50 0 -103 9q-146 26 -229 138t-83 245q0 212 114 346 t269 151q-26 161 -26 294zM760 356q87 287 87 562q-30 482 -156 670q-41 45 -78 45q-127 0 -142 -408q0 -543 289 -869zM310 646q-182 -60 -195 -263q6 -184 160 -277q68 -35 135 -35q179 2 274 160q-202 205 -284 471q-22 -43 -90 -56z"/>
<glyph glyph-name="e" horiz-adv-x="812" unicode="e" d="M188 867q85 44 164 44q52 0 101 -19q125 -47 139 -193q1 -16 1 -31q0 -129 -105 -234q-112 -113 -329 -158q14 -30 33 -60q77 -127 243 -127q148 7 253 109t113 267q6 47 46 47q36 -6 36 -54q-5 -186 -131 -332t-340 -150q-190 0 -312 124t-125 341q0 58 10 112 q33 204 203 314zM154 592q-29 -90 -29 -152q0 -34 9 -60q175 27 269 134q66 76 66 147q0 29 -11 57q-27 67 -89 67q-27 0 -59 -12q-111 -41 -156 -181z"/>
<glyph glyph-name="f" horiz-adv-x="657" unicode="f" d="M129 597q171 390 172 705q0 316 -87 316q-97 -5 -120 -468q0 -227 35 -553zM19 545q-58 371 -58 627q5 566 247 582q92 0 145 -112t53 -299q0 -154 -39 -370q-48 -259 -202 -531q53 -324 286 -325q82 0 134 62t59 171t52 109q39 0 39 -59q0 -65 -9 -114 q-28 -147 -116 -212t-180 -65q-116 0 -194 39q93 -394 98 -634q0 -152 -24 -220t-90 -68q-60 6 -85 49q-12 20 -12 50q0 32 14 76q27 83 27 192q-6 368 -110 826q-12 -4 -25 -4q-38 0 -65 34t-27 81q0 48 27 82q23 28 55 33z"/>
<glyph glyph-name="g" horiz-adv-x="1119" unicode="g" d="M630 613q-93 163 -235 163q-111 0 -191 -88t-80 -244q0 -138 80 -235t191 -97q182 0 265 253q-27 148 -30 248zM836 484q-5 -56 -5 -107q0 -162 45 -287q108 64 173 145t67 185t43 105q50 0 50 -80q1 -133 -61 -243t-220 -211q159 -297 159 -496q-2 -412 -383 -418 q-413 4 -414 321q1 323 458 609q-35 102 -49 173q-120 -196 -324 -196q-163 0 -279 136t-116 327q0 212 116 338t279 126q159 0 273 -128q23 67 84 67q52 0 83 -57q26 -52 26 -176q0 -59 -5 -133zM408 -605q1 -203 275 -203q255 9 264 303q0 176 -142 412 q-390 -252 -397 -512z"/>
<glyph glyph-name="h" horiz-adv-x="982" unicode="h" d="M164 322q25 -77 57 -138q40 -78 40 -125q-10 -75 -83 -75q-42 0 -76 45q-82 137 -146 437t-65 682q0 195 29 337q61 271 184 283q82 0 150 -122q63 -116 63 -355q-1 -249 -79 -470q76 90 217 90q147 -1 224 -104q57 -76 57 -322q0 -28 -1 -57v-37q0 -257 95 -259 q31 0 63 35q66 72 76 231q0 77 47 77q46 0 46 -74q-6 -202 -118 -340q-67 -65 -138 -65q-78 4 -143 102q-54 80 -54 291q0 46 3 100q1 23 1 45q0 248 -172 255q-239 0 -277 -467zM14 1178q0 -312 44 -537q158 329 168 650q-7 327 -104 327q-96 -17 -108 -440z"/>
<glyph glyph-name="i" horiz-adv-x="484" unicode="i" d="M49 1319q32 18 62 18q21 0 40 -9q46 -21 58 -84q3 -18 3 -35q0 -46 -22 -94q-32 -67 -83 -100q-31 -19 -60 -19q-21 0 -42 10q-50 23 -62 86q-3 17 -3 35q0 46 22 94q31 66 87 98zM-32 548q0 101 -10 174q-3 21 -3 38q0 87 69 90q69 0 99 -81q16 -43 16 -139 q0 -87 -13 -219q-4 -37 -4 -69q0 -212 156 -238q1 0 1 1q71 -1 129 75t64 242q0 57 37 57q47 0 47 -59q0 -171 -78 -297t-220 -126q-133 1 -220 98q-66 83 -68 233t-2 220z"/>
<glyph glyph-name="j" horiz-adv-x="456" unicode="j" d="M58 27q-85 134 -85 346q0 19 1 38q4 106 4 179q0 91 -6 132q-3 21 -3 38q0 87 69 90q69 0 99 -81q16 -43 16 -139q0 -87 -15 -237q-3 -29 -3 -58q0 -120 51 -235q243 126 263 332q5 52 36 53q41 0 46 -56q-21 -277 -293 -438q159 -257 159 -476q-2 -422 -341 -429 q-304 11 -324 345q7 387 326 596zM-140 -544q22 -254 196 -255q192 20 201 294q0 176 -142 412q-250 -182 -255 -451zM63 1319q32 18 62 18q21 0 40 -9q46 -21 58 -84q3 -17 3 -34q0 -47 -23 -95q-31 -67 -82 -100q-31 -19 -60 -19q-21 0 -42 10q-51 23 -62 86q-4 16 -4 34 q0 46 23 95q31 66 87 98z"/>
<glyph glyph-name="k" horiz-adv-x="1014" unicode="k" d="M860 132q31 0 63 35q66 72 76 231q0 77 47 77q46 0 46 -74q-6 -202 -118 -340q-67 -65 -138 -65q-128 4 -211 190t-273 192q-103 0 -124 58q-10 26 -10 48q0 42 36 67q20 13 40 13q35 0 73 -42q34 -39 89 -39q51 5 79 33q43 43 43 104t-43 104t-104 43q-91 0 -162 -78 q-66 -72 -109 -249q-3 -27 -7 -56q36 -139 68 -200q40 -78 40 -125q-10 -75 -83 -75q-42 0 -76 45q-82 137 -146 437t-65 682q0 195 29 337q61 271 184 283q82 0 150 -122q63 -116 63 -355q-1 -249 -95 -501q99 120 245 121q107 -1 181 -75t74 -180q0 -105 -74 -180 q-35 -35 -77 -54q127 -3 177 -146t112 -144zM14 1178q0 -312 44 -537q158 329 168 650q-7 327 -104 327q-96 -17 -108 -440z"/>
<glyph glyph-name="l" horiz-adv-x="573" unicode="l" d="M202 183q64 -69 172 -78q70 -1 128 75t65 242q0 57 37 57q47 0 47 -59q1 -171 -77 -297t-231 -126q-274 1 -388 424q-95 300 -95 676q1 659 224 671q82 0 150 -122q63 -116 63 -355q-1 -394 -195 -914q36 -125 100 -194zM4 1178q0 -512 54 -667q118 379 128 780 q-7 347 -84 347q-86 -17 -98 -460z"/>
<glyph glyph-name="m" horiz-adv-x="1404" unicode="m" d="M128 378q7 -50 55 -196q18 -58 18 -99q0 -61 -43 -83q-23 -11 -44 -11q-46 0 -85 52q-53 70 -53 294q0 23 1 49q2 99 2 172q0 120 -6 166q-3 21 -3 38q0 87 69 90q43 0 73 -39q97 100 233 100q187 -1 251 -157q109 157 279 157q147 -1 224 -115q68 -101 68 -325 q0 -31 -1 -63q-2 -28 -2 -52q0 -222 86 -224q31 0 63 35q66 72 76 231q0 77 47 77q46 0 46 -74q-6 -202 -118 -340q-67 -65 -138 -65q-98 4 -163 102q-52 77 -52 390q0 294 -150 301q-201 0 -201 -305q0 -42 4 -91h-2q9 -84 51 -211q18 -58 18 -99q0 -61 -43 -83 q-23 -11 -44 -11q-46 0 -85 52q-43 57 -50 268l-4 -4q-8 79 -8 184q-1 292 -166 300q-200 0 -203 -411z"/>
<glyph glyph-name="n" horiz-adv-x="1026" unicode="n" d="M128 378q7 -50 55 -196q18 -58 18 -99q0 -61 -43 -83q-23 -11 -44 -11q-46 0 -85 52q-53 70 -53 294q0 23 1 49q2 99 2 172q0 120 -6 166q-3 21 -3 38q0 87 69 90q69 0 105 -113q123 152 311 174q177 0 254 -114q65 -98 65 -322q0 -38 -2 -79q-2 -34 -2 -64 q0 -223 87 -227q61 -1 109 75t54 242q0 57 37 57q47 0 47 -59q0 -171 -78 -297t-200 -126q-93 1 -154 92q-51 74 -51 292q0 46 2 99q1 19 1 36q0 266 -203 273q-229 -25 -293 -411z"/>
<glyph glyph-name="o" horiz-adv-x="1051" unicode="o" d="M966 424q65 41 79 102q16 49 48 49q38 0 38 -42q-1 -77 -88 -161t-244 -91q-121 -297 -396 -297q-175 0 -299 136t-123 327q-1 192 123 328t299 136t299 -136t124 -328q0 -33 -4 -64q79 0 144 41zM670 284q-190 16 -317 103q-147 100 -173 246q-46 -83 -46 -189 q0 -143 83 -244t200 -101q168 0 253 185zM697 387q4 27 4 57q0 144 -83 244t-201 100q-111 -6 -111 -99q5 -168 233 -263q79 -30 158 -39z"/>
<glyph glyph-name="p" horiz-adv-x="1075" unicode="p" d="M-36 624q0 219 107 226q53 0 89 -89q139 150 311 150q175 0 299 -136t124 -328q0 -83 -24 -156q8 -1 16 -1q71 0 131 60t61 166q0 63 36 66q33 0 39 -64q0 -168 -85 -250t-211 -82q-17 0 -35 2q-96 -204 -371 -204q-219 14 -223 188q11 213 252 215q109 0 255 -69 q14 39 14 110q-7 159 -95 260t-212 101q-173 0 -273 -215q-12 -58 -12 -136q0 -166 54 -422q78 -377 83 -602q0 -152 -24 -220t-90 -68q-60 6 -85 49q-12 20 -12 50q0 32 14 76q27 83 27 192q-6 317 -82 617t-78 514zM702 214q-136 68 -241 68q-132 -5 -134 -107 q4 -93 132 -101q94 4 159 46t84 94z"/>
<glyph glyph-name="q" horiz-adv-x="1226" unicode="q" d="M1094 15q275 -244 276 -562q-20 -349 -240 -349q-169 4 -306 304q-112 259 -153 732q-132 -156 -296 -156q-163 0 -279 136t-116 327q0 192 116 328t279 136q154 0 266 -121q14 55 80 60q100 0 100 -177q0 -41 -5 -91q-9 -83 -9 -151q0 -148 43 -215q63 -99 170 -99 q82 0 138 72t55 181q7 89 52 89q39 0 39 -59q0 -65 -9 -114q-17 -127 -87 -195t-114 -76zM630 613q-93 163 -235 163q-111 0 -191 -88t-80 -244q0 -138 80 -235t191 -97q182 0 265 253q-27 148 -30 248zM821 28q78 -534 192 -700q61 -90 111 -90q113 0 121 215 q-8 276 -306 535q-62 7 -118 40z"/>
<glyph glyph-name="r" horiz-adv-x="791" unicode="r" d="M591 104q1 0 1 1q70 -1 128 75t65 242q0 57 37 57q47 0 47 -59q1 -171 -77 -297t-221 -126q-173 1 -257 164q-44 85 -44 197q0 104 38 232q-85 -72 -193 -72q-156 12 -213 154q-18 57 -18 102q20 154 151 162q122 -7 132 -143q0 -63 -39 -153q112 0 192 97q58 70 106 70 q70 -5 70 -79q0 -40 -31 -107q-52 -126 -52 -251q0 -45 7 -90q25 -170 171 -176z"/>
<glyph glyph-name="s" horiz-adv-x="744" unicode="s" d="M564 333q133 0 155 86t68 89q28 0 28 -50q-28 -234 -233 -245q-31 -245 -265 -245q-198 24 -208 203q0 130 121 190q51 26 111 26q20 0 40 -3q-50 39 -136 81q-236 113 -244 252q0 96 54 141q50 42 110 42q90 -2 130 -70q14 -28 14 -52q0 -26 -17 -46q-29 -35 -65 -35 q-52 0 -68 42q-10 27 -29 27q-25 0 -25 -25q9 -95 215 -185t244 -223zM213 181q9 -90 111 -95q105 0 113 123q0 24 -8 49q-50 24 -93 24q-123 -5 -123 -101z"/>
<glyph glyph-name="t" horiz-adv-x="549" unicode="t" d="M106 887q-19 -5 -41 -10q7 -112 21 -259q12 152 20 269zM58 1015q28 -3 56 -3q5 101 5 163q-3 160 -22 160q-19 -9 -29 -95t-11 -151q0 -33 1 -74zM218 927q-22 -205 -93 -464q9 -105 81 -223t167 -127q78 0 117 83t45 167q12 96 59 96q49 0 49 -89q-7 -141 -81 -257 t-208 -116q-92 1 -182 77t-158 243q-68 168 -97 547q-22 -3 -41 -3q-52 0 -85 24q-46 32 -46 89l-1 1q0 56 53 86q23 14 52 14q35 0 77 -20q4 431 161 436q140 0 140 -452q315 207 449 207q84 0 94 -89q0 -102 -126 -102q-153 0 -426 -128z"/>
<glyph glyph-name="u" horiz-adv-x="1074" unicode="u" d="M887 105q71 1 119 71t56 186q8 97 56 97q46 0 46 -89q0 -35 -9 -84q-28 -147 -107 -218t-160 -71h-2q-116 0 -191 80q-28 30 -54 85l-32 -38q-1 1 -1 2q-95 -107 -192 -130q-50 -12 -96 -12q-73 0 -139 30q-109 48 -157 171q-49 123 -51 261t-28 254q-14 43 -14 73 q0 50 38 67q22 10 43 10q37 0 69 -32q49 -51 55 -158q2 -30 2 -60q0 -80 -12 -164q-4 -32 -4 -62q0 -79 31 -142q60 -120 190 -120l1 -1q129 0 193 111q19 32 33 94t13 104q0 129 -18 247q-6 37 -6 67q0 94 58 111q17 5 32 5q53 0 80 -62q23 -55 23 -135q0 -37 -5 -79 q-8 -56 -8 -124q0 -77 10 -170q18 -175 138 -175z"/>
<glyph glyph-name="v" horiz-adv-x="957" unicode="v" d="M737 397q23 -9 47 -9q44 0 90 28t61 78q14 50 45 53q33 0 33 -37q0 -82 -79 -154t-178 -73q-41 0 -85 14q-44 -75 -205 -295q-28 -38 -59 -38q-14 0 -29 9q-36 20 -36 48q0 9 5 26q1 41 -211 203t-212 393q0 86 34 150q30 57 82 57q90 -1 90 -99q0 -29 -8 -68 q-11 -48 -11 -92q2 -197 314 -450q90 97 154 200q-218 111 -223 317q0 63 34 114q62 92 181 92q215 -4 224 -238q-1 -131 -58 -229zM645 452q32 42 32 157q-5 140 -94 140q-80 0 -80 -97q0 -109 142 -200z"/>
<glyph glyph-name="w" horiz-adv-x="1247" unicode="w" d="M544 212q-33 -80 -128 -210q-28 -38 -59 -38q-14 0 -29 9q-36 20 -36 48q0 9 5 26q-1 41 -187 203t-186 393q0 86 34 150q30 57 82 57q90 -1 90 -99q0 -29 -8 -68q-11 -48 -11 -92q2 -197 264 -450q64 69 91 141q-152 153 -152 361q0 86 34 150q30 57 82 57q90 -1 90 -99 q0 -29 -8 -68q-11 -48 -11 -92q2 -197 264 -450q70 97 124 200q-238 111 -243 317q0 63 34 114q62 92 181 92q215 -4 224 -228q-1 -111 -58 -239q23 -9 47 -9q44 0 90 28t61 78q14 50 45 53q33 0 33 -37q0 -82 -79 -154t-178 -73q-41 0 -65 14q-34 -75 -175 -295 q-28 -38 -59 -38q-14 0 -29 9q-36 20 -36 48q0 9 5 26q0 36 -143 165zM935 452q32 72 32 167q-5 130 -94 130q-80 0 -80 -97q0 -109 142 -200z"/>
<glyph glyph-name="x" horiz-adv-x="858" unicode="x" d="M152 -41q-78 1 -82 76q-1 3 -1 6q0 71 101 121q76 47 128 152q-50 59 -106 149q-56 91 -128 109t-110 56t-38 93t38 93t93 38q45 0 101 -41t112 -169t127 -226q84 161 111 301t90 146h9q55 0 63 -65q1 -7 1 -14q0 -73 -79 -236q-62 -128 -141 -237q149 -202 225 -202h3 q87 3 134 92t48 188q0 81 34 81q8 0 17 -4q35 -15 35 -80q0 -30 -7 -69q-23 -127 -85 -216t-141 -102q-24 -4 -48 -4q-57 0 -116 21q-73 25 -186 200q-124 -257 -202 -257z"/>
<glyph glyph-name="y" horiz-adv-x="1020" unicode="y" d="M608 126q-95 -107 -192 -130q-50 -12 -96 -12q-73 0 -139 30q-109 48 -157 171q-49 123 -51 261t-28 254q-14 43 -14 73q0 50 38 67q22 10 43 10q37 0 69 -32q49 -51 55 -158q2 -30 2 -60q0 -80 -12 -164q-4 -32 -4 -62q0 -79 31 -142q60 -120 190 -120l1 -1 q129 0 193 111q19 32 33 94t13 104q0 129 -18 247q-6 37 -6 67q0 94 58 111q17 5 32 5q53 0 80 -62q23 -55 23 -135q0 -37 -5 -79q-11 -84 -15 -197q0 -162 45 -287q108 64 173 145q66 81 68 185t42 105q50 0 50 -80q0 -133 -62 -243t-219 -211q159 -297 159 -496 q-2 -412 -383 -418q-413 4 -414 321q1 323 458 609q-29 57 -35 87t-6 32zM309 -605q1 -203 275 -203q255 9 264 303q0 176 -142 412q-390 -252 -397 -512z"/>
<glyph glyph-name="z" horiz-adv-x="824" unicode="z" d="M533 660q-119 -89 -241 -97q-55 -4 -99 -4q-82 0 -128 13q-73 18 -111 56t-38 93t38 93t93 38q45 0 101 -41t212 -69q34 -6 69 -6q63 0 128 20q28 102 81 107h9q55 0 63 -65q1 -7 1 -14q0 -73 -79 -236q-61 -125 -225 -330q30 -16 62 -41q52 -42 97 -98q142 114 183 166 q55 71 60 175t45 105h1q51 0 51 -86q0 -14 -1 -30q-9 -117 -59 -217t-208 -201q16 -34 92 -174q67 -123 67 -302q0 -24 -1 -50q-11 -212 -141 -314q-83 -65 -189 -65q-32 0 -66 6q-148 25 -224 158q-44 77 -44 181q0 75 23 164q54 213 297 396q0 1 1 1q-68 70 -144 70 q-26 0 -54 -9q-63 -54 -103 -54q-78 1 -82 76q-1 3 -1 6q0 71 101 121q104 52 228 214q98 128 135 244zM301 -370q-41 -85 -41 -174q0 -53 14 -107q38 -147 181 -147q0 -1 1 -1q142 0 191 204q10 43 10 90q0 176 -142 412q-150 -142 -214 -277z"/>
<glyph glyph-name="braceleft" horiz-adv-x="867" unicode="{" d="M306 526q56 -60 75 -166q7 -40 7 -81q0 -119 -63 -243q-48 -95 -48 -165q0 -53 28 -91q62 -84 154 -84h8q61 2 102 30t96 27q61 -1 104 -43t43 -103t-43 -103q-38 -38 -129 -49q-17 -3 -36 -3q-82 0 -201 41q-190 71 -238 272q-17 70 -17 133q0 115 58 203q59 91 59 167 q0 38 -15 73q-32 76 -91 100q-57 22 -57 89q0 3 1 6q3 72 59 86t88 89q15 35 15 73q0 76 -59 167q-58 88 -58 203q0 63 17 134q48 200 238 271q120 41 202 41q19 0 35 -2q91 -11 129 -49q43 -43 43 -104t-43 -103t-104 -43q-55 -1 -96 27t-102 30h-8q-92 0 -154 -84 q-28 -38 -28 -91q0 -70 48 -164q63 -125 63 -244q0 -40 -7 -80q-19 -107 -75 -167z"/>
<glyph glyph-name="bar" horiz-adv-x="1014" unicode="|" d="M412 780q41 471 41 716q0 162 -18 227q-45 162 -65 226q-7 20 -7 37q0 37 31 61q21 16 46 16q27 0 58 -19q59 -38 77 -255q4 -45 4 -114q0 -262 -54 -875q-42 -481 -42 -721q0 -149 16 -207q45 -161 66 -224q6 -21 6 -38q0 -37 -30 -60q-22 -17 -47 -17q-27 0 -57 20 q-60 37 -78 254q-3 36 -3 94q0 246 56 879z"/>
<glyph glyph-name="braceright" horiz-adv-x="867" unicode="}" d="M486 693q-7 40 -7 80q0 119 63 244q48 94 48 164q0 53 -28 91q-62 84 -154 84h-8q-61 -2 -102 -30t-96 -27q-61 1 -104 43t-43 103t43 104q38 38 129 49q16 2 35 2q82 0 202 -41q190 -71 238 -271q17 -71 17 -134q0 -115 -57 -203q-60 -91 -60 -167q0 -38 15 -73 q33 -75 89 -89t59 -86v-6q0 -67 -57 -89q-59 -24 -91 -100q-15 -35 -15 -73q0 -76 60 -167q57 -88 57 -203q0 -63 -17 -133q-48 -201 -238 -272q-119 -41 -201 -41q-19 0 -36 3q-91 11 -129 49q-43 42 -43 103t43 103t104 43q55 1 96 -27t102 -30h8q92 0 154 84q28 38 28 91 q0 70 -48 165q-63 124 -63 243q0 41 7 81q20 106 75 166q-55 60 -75 167z"/>
<glyph glyph-name="asciitilde" horiz-adv-x="919" unicode="~" d="M569 311q8 -2 15 -2q43 0 61 48q21 55 73 73q17 6 33 6q34 0 66 -26q25 -20 25 -53q0 -30 -21 -71q-43 -87 -150 -100q-19 -3 -36 -3q-85 0 -150 54q-80 64 -135 79q-11 3 -21 3q-38 0 -55 -44q-21 -56 -73 -74q-17 -6 -33 -6q-34 0 -66 26q-25 20 -25 53q0 30 21 72 q43 86 150 90h12q99 0 175 -56q79 -60 134 -69z"/>
<glyph glyph-name="exclamdown" horiz-adv-x="449" unicode="¡" d="M267 990q-8 -35 -8 -92q0 -81 17 -209q28 -217 50 -469q8 -97 8 -172q0 -120 -21 -184q-28 -84 -84 -84q-14 0 -29 6q-58 19 -58 140q0 44 8 102q14 112 14 238q0 117 -12 246q-22 222 -22 364q0 29 1 56q5 147 76 147h5q59 -4 59 -57q0 -14 -4 -32zM251 1246 q-33 -19 -63 -19q-21 0 -40 9q-46 21 -57 84q-4 17 -4 34q0 47 23 95q31 67 83 100q30 19 59 19q21 0 43 -9q50 -24 62 -86q3 -18 3 -35q0 -46 -23 -95q-31 -66 -86 -97z"/>
<glyph glyph-name="cent" horiz-adv-x="1200" unicode="¢" d="M687 1168l6 24q24 102 24 168q0 53 -15 82q-12 24 -12 46q0 39 37 71q29 25 59 25q31 0 64 -26q59 -47 59 -97q0 -5 -1 -10q-7 -56 -77 -249q-24 -66 -52 -144q17 -46 17 -89q0 -48 -21 -92q-38 -82 -104 -82h-5q-70 3 -90 55q-7 18 -7 35q0 31 24 58q31 37 31 73v12 q-6 42 -52 61q-13 4 -29 4q-44 0 -116 -36q-99 -51 -131 -214q-10 -48 -10 -93q0 -108 56 -201q78 -131 223 -154q36 -6 71 -6q99 0 176 50q102 67 146 146q32 59 62 59q10 0 20 -6q15 -10 15 -32q0 -33 -37 -94q-61 -101 -193 -185q-112 -71 -250 -71q-27 0 -54 3 q-23 -92 -23 -196q0 -14 1 -28v-11q0 -109 -68 -113q-4 -1 -9 -1q-63 0 -85 65q-5 14 -5 37q0 86 69 292q-77 24 -159 122t-94 264q-2 26 -2 51q0 136 58 254q68 139 187 189q67 28 134 28q50 0 101 -16q34 -12 61 -28z"/>
<glyph glyph-name="sterling" horiz-adv-x="1000" unicode="£" d="M309 467q21 -1 40 -1q88 0 124 23q24 15 47 15q28 0 54 -23q24 -22 24 -48q0 -24 -21 -52q-29 -37 -111 -37q-44 0 -105 11q-13 2 -25 4q15 -82 15 -158v-9q13 1 26 1q94 0 177 -46q69 -38 121 -38q20 0 37 5q55 17 55 57q0 6 -1 13q-2 9 -2 19q0 38 31 65q28 25 65 25 q13 0 28 -3q55 -13 74 -65q7 -19 7 -41q0 -39 -22 -88q-34 -78 -175 -100q-37 -6 -70 -6q-94 0 -157 46q-81 58 -138 58h-8q-60 -5 -75 -53q-15 -47 -67 -47h-2q-54 1 -73 53q-5 14 -5 28q0 40 40 86q1 23 1 45q0 82 -14 166q-54 0 -86 -11q-29 -10 -50 -10q-32 0 -48 21 q-12 15 -12 31q0 22 21 46q24 29 117 29q16 0 35 -1q-17 61 -41 122q-61 154 -61 293q0 63 12 123q40 193 193 279q117 66 248 66q39 0 79 -5q175 -26 269 -123t109 -211q3 -27 3 -52q0 -86 -40 -164q-53 -102 -143 -154q-60 -36 -130 -36q-35 0 -72 9q-112 26 -161 115 q-30 54 -30 105q0 32 12 63q31 80 100 91q12 1 24 1q53 0 88 -39q28 -32 28 -71q0 -20 -8 -42q-7 -21 -7 -38q0 -34 33 -47q11 -6 25 -6q40 0 92 48q68 62 72 153v9q0 86 -77 168q-81 86 -210 102q-24 2 -48 2q-103 0 -199 -53q-118 -67 -129 -248q-2 -24 -2 -47 q0 -159 67 -330q18 -47 32 -93z"/>
<glyph glyph-name="currency" horiz-adv-x="954" unicode="¤" d="M267 262q-30 -31 -36 -44q-5 -12 -11 -25l-4 -10q-37 -80 -85 -80q-11 0 -24 5q-4 1 -9 3q-51 23 -51 80q0 7 1 14q1 15 11 35q13 30 125 137q-36 78 -36 173t36 172q-112 107 -126 137q-9 21 -10 36q-1 7 -1 14q0 57 51 80q5 2 9 3q13 5 24 5q48 0 85 -80l4 -10 q5 -13 11 -25q6 -13 35 -44q89 85 208 85q121 -3 216 -84q29 30 34 43q7 12 11 25l4 10q37 80 85 80q11 0 24 -5q4 -1 9 -3q51 -23 51 -80q0 -7 -1 -14q-1 -15 -10 -36q-13 -29 -120 -131q27 -59 30 -132q-5 -123 -43 -212q119 -113 132 -144q10 -20 11 -35q1 -7 1 -14 q0 -57 -51 -80q-5 -2 -9 -3q-13 -5 -24 -5q-48 0 -85 80l-4 10q-5 13 -11 25q-6 14 -40 48q-89 -89 -210 -89q-119 0 -207 85zM478 795q-85 1 -145 -71t-60 -174t60 -174t145 -71q84 -1 144 71t60 174t-60 174t-144 71z"/>
<glyph glyph-name="yen" horiz-adv-x="1000" unicode="¥" d="M388 709l-10 24q-98 181 -196 282t-162 137q-57 30 -57 84q0 8 1 17q10 66 87 82q6 1 13 1q74 0 190 -149q127 -164 226 -377q5 -14 20 -54q15 40 20 54q100 213 227 377q115 149 189 149q7 0 14 -1q76 -16 86 -82q1 -9 1 -17q0 -54 -56 -84q-65 -36 -163 -137t-196 -282 q-7 -16 -13 -33q59 6 88 24t56 18q31 0 59 -25q25 -24 25 -52t-23 -58q-31 -41 -123 -41q-52 0 -124 13h-2q-4 -10 -7 -20q11 -62 20 -121q82 3 119 26q29 18 56 18q31 0 59 -25q25 -24 25 -52q0 -27 -23 -58q-31 -41 -125 -41q-41 0 -94 8l2 -22q10 -46 10 -90 q0 -60 -18 -116q-27 -80 -77 -80q-12 0 -25 5q-53 17 -53 78q0 19 5 43q18 78 18 167q0 18 -1 35q-44 5 -79 5q-57 0 -91 -12q-35 -12 -61 -12q-34 0 -50 22q-13 16 -13 33q0 24 23 51q27 32 132 32q48 0 112 -7q11 -2 22 -3q-5 69 -14 134q-3 10 -7 20q-26 2 -48 2 q-60 0 -96 -12q-35 -12 -61 -12q-34 0 -50 22q-13 15 -13 33q0 24 23 51q27 31 130 31q33 0 73 -3z"/>
<glyph glyph-name="brokenbar" horiz-adv-x="1014" unicode="¦" d="M417 30q11 62 11 132q0 76 -13 161q-26 162 -46 226q-6 19 -6 36q0 38 30 62q21 16 46 16q27 0 58 -19q60 -38 78 -255q-23 -213 -35 -378q-3 -44 -3 -81q0 -102 24 -151q33 -68 53 -131q6 -20 6 -37q0 -38 -30 -61q-21 -17 -46 -17q-27 0 -58 20q-60 37 -76 192 q-7 63 -7 123q0 85 14 162zM417 1430q11 62 11 132q0 76 -13 161q-26 162 -46 226q-6 19 -6 36q0 38 30 62q21 16 46 16q27 0 58 -19q60 -38 78 -255q-23 -213 -30 -365q-1 -30 -1 -58q0 -110 22 -174q28 -81 48 -144q6 -20 6 -37q0 -38 -30 -61q-21 -17 -46 -17 q-27 0 -58 20q-60 37 -76 192q-7 63 -7 123q0 85 14 162z"/>
<glyph glyph-name="section" horiz-adv-x="1775" unicode="§" d="M1494 308q27 87 27 159q0 107 -59 182q-110 139 -477 229t-580 214q-71 41 -124 94q-26 -86 -26 -158q0 -107 59 -182q109 -140 476 -230t580 -213q71 -42 124 -95zM1564 221q46 -74 65 -163q12 -57 12 -112q0 -155 -97 -287q-131 -179 -431 -229q-105 -17 -202 -17 q-181 0 -336 61q-239 93 -314 287q-28 71 -28 141q0 119 81 233q127 181 329 202q40 4 79 4q153 0 271 -66q147 -82 195 -220q22 -64 22 -123q0 -68 -29 -128q-55 -114 -148 -127q-19 -3 -36 -3q-67 0 -105 44q-33 38 -33 82q0 17 5 35q19 63 67 111q30 30 30 79 q0 28 -10 63q-28 93 -193 117q-28 4 -54 4q-134 0 -245 -101q-89 -82 -89 -188q0 -52 21 -109q65 -176 279 -239q129 -39 261 -39q88 0 178 17q224 42 322 176q69 94 69 211q0 50 -12 104q-42 179 -224 273t-530 191q-350 97 -462 190t-133 250q-5 33 -5 68q0 127 59 268 l18 -8q-46 74 -65 164q-12 57 -12 111q0 155 97 288q131 178 431 228q105 17 202 17q181 0 337 -60q238 -94 313 -287q28 -72 28 -142q0 -119 -80 -233q-128 -181 -330 -201q-40 -5 -79 -5q-152 0 -270 66q-148 82 -195 220q-23 64 -23 123q0 68 30 129q54 113 148 127 q18 2 35 2q67 0 105 -43q33 -39 33 -83q0 -17 -5 -35q-19 -63 -67 -111q-30 -30 -30 -79q0 -28 10 -62q28 -94 194 -118q27 -4 53 -4q134 0 245 102q89 81 89 187q0 52 -21 110q-65 175 -279 239q-129 38 -261 38q-88 0 -177 -17q-225 -42 -323 -176q-69 -94 -69 -211 q0 -50 13 -103q40 -180 222 -274t532 -191t462 -190t133 -249q4 -34 4 -69q0 -127 -59 -268z"/>
<glyph glyph-name="dieresis" horiz-adv-x="700" unicode="¨" d="M215 1204q19 10 36 10q12 0 24 -5q27 -13 34 -50q1 -10 1 -20q0 -27 -13 -56q-18 -39 -48 -58q-18 -12 -36 -12q-12 0 -24 6q-30 14 -37 51q-2 10 -2 20q0 27 13 56q19 39 52 58zM455 1204q19 10 36 10q12 0 24 -5q27 -13 34 -50q1 -10 1 -20q0 -27 -13 -56 q-18 -39 -48 -58q-18 -12 -36 -12q-12 0 -24 6q-30 14 -37 51q-2 10 -2 20q0 27 13 56q19 39 52 58z"/>
<glyph glyph-name="copyright" horiz-adv-x="2057" unicode="©" d="M1195 1788q11 13 35 13h9q31 -3 63 -26q22 -17 142 -80t241 -179q272 -272 272 -657q0 -384 -272 -656t-657 -272q-384 0 -656 272t-272 656q0 385 246 636t616 308q64 7 112 7q86 0 121 -22zM452 1449q-245 -245 -245 -591q1 -346 245 -590t590 -245q348 1 592 245 t244 590t-244 591q-156 141 -289 184t-144 76q0 -51 -50 -78q-31 -17 -85 -17q-34 0 -77 7q-43 6 -88 6q-73 0 -152 -17q-130 -28 -297 -161zM1301 1286q-96 47 -211 47q-197 0 -337 -139t-140 -337q0 -196 140 -336t337 -140q158 0 279 89q26 17 54 35q25 17 42 17 q14 0 23 -11t9 -22q0 -13 -15 -27q-165 -165 -397 -165q-235 0 -399 165t-164 397q0 235 164 399t399 164q232 0 346 -107q104 -98 104 -199q0 -9 -1 -18q-3 -25 -8 -48q-15 -76 -59 -121q-57 -58 -151 -77q-34 -7 -67 -7q-59 0 -116 22q-90 34 -118 115q-13 37 -13 67 q0 38 19 67q28 43 80 43q11 0 22 -1q68 -11 91 -92q20 -71 79 -71q9 0 19 2q74 12 99 90q6 22 6 43q0 54 -45 102q-33 32 -71 54z"/>
<glyph glyph-name="guillemotleft" horiz-adv-x="901" unicode="«" d="M444 332q-40 19 -40 67v5q2 51 40 78q16 8 108 169q91 160 161 160h1q70 -1 82 -75q1 -9 1 -17q0 -62 -82 -95q-92 -38 -202 -217q110 -179 202 -216q86 -36 86 -101v-9q-6 -72 -87 -82q-5 -1 -10 -1q-76 0 -147 154q-76 163 -113 180zM95 332q-40 19 -40 67v5 q2 51 40 78q16 8 108 169q91 160 161 160h1q70 -1 82 -75q1 -9 1 -17q0 -62 -82 -95q-92 -38 -202 -217q110 -179 202 -216q86 -36 86 -101v-9q-6 -72 -87 -82q-5 -1 -10 -1q-76 0 -147 154q-76 163 -113 180z"/>
<glyph glyph-name="logicalnot" d="M861 418q-19 -100 -19 -123q0 -60 16 -106q22 -67 22 -104q0 -39 -22 -55t-58 -16q-38 0 -60 28t-27 99q-1 15 -1 34q0 49 20 173q-30 -2 -69 -2q-55 0 -206 1h-12q-142 0 -185 -13q-62 -18 -104 -18t-58 21t-16 54q0 32 28 55t98 33q17 3 39 3q65 0 220 -10q35 -3 66 -3 q103 0 149 28q60 35 104 35t65 -24q17 -20 17 -53q0 -7 -1 -15q-1 -11 -6 -22z" unicode="¬"/>
<glyph glyph-name="registered" horiz-adv-x="2057" unicode="®" d="M1615 165q-38 -18 -80 -18q-62 0 -132 41q-110 63 -110 334q0 18 1 38v20q0 206 -122 206q-44 0 -105 -27q-18 -491 -279 -491h-15q-276 15 -306 378q-4 47 -4 91q0 305 178 526q190 237 403 237q16 0 31 -1q231 -18 302 -240q23 -73 23 -140q0 -140 -98 -258 q96 -97 96 -262q0 -166 24 -240t127 -92q9 -2 18 -2q93 0 190 160q107 176 107 417v17q0 346 -244 591t-592 245q-346 0 -590 -245t-245 -591q1 -347 245 -591t590 -244q194 0 315 57q44 29 73 29q24 0 38 -20q9 -12 9 -24q0 -32 -60 -61q-143 -74 -375 -74q-384 0 -656 272 t-272 656q0 385 272 657t656 272q385 0 657 -272t272 -657q-31 -341 -139 -495t-203 -199zM1065 856q198 77 207 261v19q0 169 -139 248q-56 32 -113 32q-91 0 -183 -83q153 -140 228 -477zM734 371q20 -6 38 -6q136 0 182 304q10 64 10 124q0 264 -186 451 q-175 -139 -194 -483q-2 -35 -2 -67q0 -282 152 -323z"/>
<glyph glyph-name="macron" horiz-adv-x="706" unicode="¯" d="M165 1059q-15 12 -15 34v5q2 26 22 39q11 7 24 7q11 0 24 -5q21 -9 69 -9q14 0 31 1q71 3 134 20q17 5 31 5q39 0 59 -32q12 -21 12 -40q0 -22 -17 -42q-25 -29 -63 -29q-12 0 -26 4q-57 11 -127 17q-69 6 -105 8t-53 17z"/>
<glyph glyph-name="degree" horiz-adv-x="373" unicode="°" d="M312 941q31 -49 31 -103q0 -9 -1 -18q-6 -64 -49 -107q-46 -44 -108 -44h-5q-65 2 -109 49q-41 42 -41 106q0 8 1 15q5 74 55 119q46 42 111 42h9q70 -3 106 -59zM197 888q-20 7 -34 7q-18 0 -29 -11q-25 -24 -26 -57v-4q0 -31 19 -51q21 -23 54 -23t58 23q25 24 27 60v7 q0 30 -15 47q-6 -7 -18 -7q-14 0 -36 9z"/>
<glyph glyph-name="plusminus" d="M467 -228q35 -3 66 -3q103 0 149 28q60 35 104 35t65 -24q17 -20 17 -53q0 -7 -1 -15q-5 -44 -59 -74q-36 -20 -145 -20q-55 0 -206 1h-12q-142 0 -185 -13q-62 -18 -104 -18t-58 21t-16 54q0 32 28 55t98 33q17 3 39 3q65 0 220 -10zM548 459q74 1 134 37t104 36t65 -24 q17 -20 17 -53q0 -7 -1 -15q-5 -44 -59 -74q-36 -20 -145 -20q-55 0 -128 5q-3 -30 -3 -56q0 -60 16 -106q22 -67 22 -104q0 -39 -22 -55t-58 -16q-38 0 -60 28t-27 99q-1 15 -1 34q0 66 14 170q-24 2 -46 2q-65 0 -110 -13q-62 -18 -104 -18t-58 21t-16 54q0 32 28 55 t98 33q17 3 39 3q65 0 171 -23q0 127 -37 190t-42 98q-1 5 -1 9q0 29 25 52q29 26 78 26q48 0 88 -59q26 -40 26 -163q0 -65 -7 -153z" unicode="±"/>
<glyph glyph-name="uni00B2" horiz-adv-x="899" unicode="²" d="M628 1216q56 -66 56 -145q0 -9 -1 -17q-23 -149 -145 -198t-212 -109q41 16 82 16q59 0 117 -33q15 -6 24 -6q8 0 12 7q23 36 65 54q15 5 31 5q35 0 63 -28q29 -29 29 -64q0 -14 -6 -31q-18 -54 -66 -72q-30 -10 -66 -10q-18 0 -39 2q-59 9 -103 35q-30 17 -73 17h-8 q-42 -2 -56 -24q-20 -33 -56 -33q-17 0 -36 9q-48 22 -55 76v10q-1 47 41 95t178 120t154 144q5 19 5 36q0 47 -36 78q-45 38 -113 38h-12q-71 -4 -92 -49q-11 -25 -11 -41q0 -12 6 -16q6 -5 11 -5q9 0 22 9q26 19 55 19q26 0 50 -16q36 -22 36 -63q0 -15 -5 -32 q-20 -66 -107 -76q-13 -2 -25 -2q-70 0 -122 47q-61 53 -62 135v2q0 82 82 146q73 57 173 57q15 0 31 -1q121 -10 184 -86z"/>
<glyph glyph-name="uni00B3" horiz-adv-x="899" unicode="³" d="M594 1045q20 -7 64 -46q69 -62 69 -154q0 -11 -1 -21q-9 -106 -89 -175t-198 -69q-14 0 -15 1q-109 0 -181 68t-76 151v11q0 78 57 106q27 13 53 13q33 0 59 -21q33 -27 33 -67q0 -11 -2 -24q-3 -9 -3 -19q0 -29 19 -60q20 -32 71 -32h11q62 3 97 49q20 28 20 75 q0 11 -1 24q-6 60 -48 90q-39 27 -82 27h-9q-49 -3 -83 -3h-11q-45 1 -77 22q-32 20 -32 53q0 7 2 15q7 38 52 38q12 0 28 -4q27 -8 79 -8q21 0 47 1q88 5 132 96q-40 -36 -80 -36q-10 0 -21 3q-50 12 -76 21t-36 9q-9 0 -12 -5q-26 -64 -102 -64q-37 0 -67 30 q-29 29 -29 64q1 81 76 107q31 11 69 11q67 -1 129 -31q48 -24 85 -24h4q30 1 45 24q17 26 53 26q15 0 35 -5q59 -18 62 -80v-5q0 -52 -46 -109q-35 -44 -74 -73z"/>
<glyph glyph-name="acute" horiz-adv-x="601" unicode="´" d="M274 1249q56 81 110 83q45 0 61 -38q6 -13 6 -28q0 -70 -109 -158t-150 -89q-23 0 -37 24q-5 9 -5 20q0 24 27 58q41 47 97 128z"/>
<glyph glyph-name="mu" horiz-adv-x="1082" unicode="µ" d="M17 219q-2 8 -4 15l1 1q-48 210 -50 379v10q0 199 75 221q19 6 36 6q48 0 70 -51q20 -50 20 -141q0 -33 -2 -72q-9 -123 -9 -216v-35q5 -58 15 -123q60 -101 180 -101h2q129 0 192 110q22 39 51 104q-3 29 -3 60q0 16 1 32q2 35 2 69q0 96 -13 180q-6 38 -6 68 q0 93 58 110q17 5 32 5q53 0 80 -62q23 -55 23 -135q0 -37 -5 -79q-14 -112 -18 -226q5 -73 26 -131q43 -113 113 -113q1 0 1 1q71 1 123 71t62 176q8 106 50 108q35 0 35 -94q0 -19 -1 -41q-9 -136 -88 -232t-171 -96h-1q-93 1 -163 45q-69 43 -98 129q-85 -145 -211 -175 q-50 -12 -97 -12q-60 0 -116 20q45 -203 69 -445q10 -101 10 -177q0 -111 -20 -172q-28 -84 -84 -84q-14 0 -29 6q-61 20 -61 86q0 19 5 42q19 84 19 267q0 40 -1 85q-5 249 -78 522q-12 43 -22 85z"/>
<glyph glyph-name="paragraph" horiz-adv-x="1360" unicode="¶" d="M413 989q-312 194 -313 542q16 275 190 407q161 121 379 121q18 0 37 -1q242 -11 369 -86t168 -197q17 -50 17 -92q0 -60 -35 -105q-40 -49 -88 -49q-27 0 -57 15q-70 33 -70 124q0 19 3 39q2 16 2 29q0 68 -53 111q-18 -76 -18 -739q0 -19 1 -37q0 -699 3 -1143v-34 q0 -412 -61 -450q-35 -23 -65 -23q-26 0 -48 18q-31 24 -31 64q0 21 8 45q23 72 46 421q13 207 13 487q0 193 -6 421q-16 559 -20 1040q-50 12 -95 12q-52 0 -98 -16q-31 -1525 -31 -1974q0 -34 1 -61v-30q0 -366 -61 -404q-35 -23 -65 -23q-26 0 -47 18q-32 24 -32 64 q0 21 9 45q23 72 45 371q12 160 12 457q0 256 -9 613z"/>
<glyph glyph-name="cedilla" horiz-adv-x="615" unicode="¸" d="M465 -302q0 -78 -60 -129q-51 -42 -111 -42q-12 0 -25 2q-75 10 -103 58q-16 26 -16 51q0 21 11 42q22 41 63 41h6q44 -3 61 -47q11 -30 33 -30q11 0 25 7q33 17 33 55q0 9 -2 20q-11 54 -47 87t-68 43q-19 5 -19 30q0 18 10 47q24 68 40 91t38 26h6q18 0 25 -17 q1 -3 1 -7q0 -28 -52 -131q52 -15 102 -67t49 -130z"/>
<glyph glyph-name="uni00B9" horiz-adv-x="720" unicode="¹" d="M534 770q19 -49 19 -86t-18 -65q-28 -45 -74 -45q-17 0 -32 5q-61 20 -68 120q-1 22 -1 49q0 86 17 186t17 170l-47 -70q-80 -113 -146 -113q-8 0 -13 1q-72 11 -72 73v4q3 64 57 76q55 12 127 85t92 104q20 37 67 37q7 0 15 -1q53 -6 53 -55q0 -7 -1 -14 q-7 -44 -12 -219q-2 -30 -2 -57q0 -128 22 -185z"/>
<glyph glyph-name="guillemotright" horiz-adv-x="896" unicode="»" d="M806 332q-37 -17 -113 -180q-71 -154 -147 -154q-5 0 -10 1q-81 10 -87 82v9q0 65 86 101q91 37 201 216q-110 179 -201 217q-82 33 -82 95q0 8 2 17q11 74 82 75q70 0 162 -160q91 -161 107 -169q37 -27 40 -78v-6q0 -47 -40 -66zM457 332q-37 -17 -113 -180 q-71 -154 -147 -154q-5 0 -10 1q-81 10 -87 82v9q0 65 86 101q91 37 201 216q-110 179 -201 217q-82 33 -82 95q0 8 2 17q11 74 82 75q70 0 162 -160q91 -161 107 -169q37 -27 40 -78v-6q0 -47 -40 -66z"/>
<glyph glyph-name="onequarter" horiz-adv-x="1842" unicode="¼" d="M1422 322q27 175 28 227q-22 -42 -134 -188l-33 -42q106 2 139 3zM1598 208q21 -69 21 -106q0 -35 -13 -58q-27 -44 -77 -44q-16 0 -31 5q-65 17 -81 113q-5 32 -5 102q-34 -2 -175 -13q-50 -4 -85 -4q-65 0 -73 65q-1 8 -1 14q0 52 53 57q37 3 151 162q116 161 116 217 v2q0 72 83 72q8 0 18 -1q87 -8 87 -79t-20 -186q-12 -66 -12 -122q0 -42 6 -77h8q130 0 156 -32q14 -19 14 -36q0 -21 -18 -40q-25 -24 -62 -24q-19 0 -60 13zM544 182q-117 -204 -177 -242q-31 -20 -58 -20q-25 0 -46 17q-30 23 -30 61q0 17 6 37q19 63 163 219t426 482 t426 542q142 215 202 253q31 19 58 19q25 0 46 -16q30 -24 30 -62q0 -17 -6 -36q-20 -64 -190 -226t-452 -494q-281 -330 -398 -534zM534 770q19 -49 19 -86t-18 -65q-28 -45 -74 -45q-17 0 -32 5q-61 20 -68 120q-1 22 -1 49q0 86 17 186t17 170l-47 -70 q-80 -113 -146 -113q-8 0 -13 1q-72 11 -72 73v4q3 64 57 76q55 12 127 85t92 104q20 37 67 37q7 0 15 -1q53 -6 53 -55q0 -7 -1 -14q-7 -44 -12 -219q-2 -30 -2 -57q0 -128 22 -185z"/>
<glyph glyph-name="onehalf" horiz-adv-x="1842" unicode="½" d="M1571 634q56 -66 56 -145q0 -9 -1 -17q-24 -149 -146 -198t-211 -109q41 16 82 16q59 0 117 -33q15 -6 24 -6q8 0 12 7q23 36 65 54q15 5 31 5q35 0 63 -28q29 -29 29 -64q0 -14 -6 -31q-18 -54 -66 -72q-30 -10 -66 -10q-18 0 -39 2q-59 9 -103 35q-30 17 -73 17h-8 q-42 -2 -56 -24q-20 -33 -56 -33q-17 0 -36 9q-48 22 -55 76v10q0 47 42 95t177 120q136 72 154 144q5 19 5 36q0 47 -36 78q-45 38 -113 38h-12q-71 -4 -92 -49q-11 -25 -11 -41q0 -12 6 -16q6 -5 11 -5q9 0 22 9q26 19 55 19q26 0 50 -16q36 -22 36 -63q0 -15 -5 -32 q-20 -66 -107 -76q-13 -2 -25 -2q-70 0 -122 47q-61 53 -62 135v2q0 82 82 146q73 57 173 57q15 0 31 -1q121 -10 184 -86zM544 182q-117 -204 -177 -242q-31 -20 -58 -20q-25 0 -46 17q-30 23 -30 61q0 17 6 37q19 63 163 219t426 482t426 542q142 215 202 253q31 19 58 19 q25 0 46 -16q30 -24 30 -62q0 -17 -6 -36q-20 -64 -190 -226t-452 -494q-281 -330 -398 -534zM534 770q19 -49 19 -86t-18 -65q-28 -45 -74 -45q-17 0 -32 5q-61 20 -68 120q-1 22 -1 49q0 86 17 186t17 170l-47 -70q-80 -113 -146 -113q-8 0 -13 1q-72 11 -72 73v4 q3 64 57 76q55 12 127 85t92 104q20 37 67 37q7 0 15 -1q53 -6 53 -55q0 -7 -1 -14q-7 -44 -12 -219q-2 -30 -2 -57q0 -128 22 -185z"/>
<glyph glyph-name="threequarters" horiz-adv-x="2021" unicode="¾" d="M1601 322q27 175 28 227q-22 -42 -134 -188l-33 -42q106 2 139 3zM1777 208q21 -69 21 -106q0 -35 -13 -58q-27 -44 -77 -44q-16 0 -31 5q-65 17 -81 113q-5 32 -5 102q-34 -2 -175 -13q-50 -4 -85 -4q-65 0 -73 65q-1 8 -1 14q0 52 53 57q37 3 151 162q116 161 116 217 v2q0 72 83 72q8 0 18 -1q87 -8 87 -79t-20 -186q-12 -66 -12 -122q0 -42 6 -77h8q130 0 156 -32q14 -19 14 -36q0 -21 -18 -40q-25 -24 -62 -24q-19 0 -60 13zM723 182q-117 -204 -177 -242q-31 -20 -58 -20q-25 0 -46 17q-30 23 -30 61q0 17 6 37q20 63 164 219t426 482 t424 542q142 215 203 253q31 19 58 19q25 0 46 -16q30 -24 30 -62q0 -17 -6 -36q-21 -64 -191 -226t-451 -494q-281 -330 -398 -534zM594 1045q20 -7 64 -46q69 -62 69 -154q0 -11 -1 -21q-9 -106 -89 -175t-198 -69q-14 0 -15 1q-109 0 -181 68t-76 151v11q0 78 57 106 q27 13 53 13q33 0 59 -21q33 -27 33 -67q0 -11 -2 -24q-3 -9 -3 -19q0 -29 19 -60q20 -32 71 -32h11q62 3 97 49q20 28 20 75q0 11 -1 24q-6 60 -48 90q-39 27 -82 27h-9q-49 -3 -83 -3h-11q-45 1 -77 22q-32 20 -32 53q0 7 2 15q7 38 52 38q12 0 28 -4q27 -8 79 -8 q21 0 47 1q88 5 132 96q-40 -36 -80 -36q-10 0 -21 3q-50 12 -76 21t-36 9q-9 0 -12 -5q-26 -64 -102 -64q-37 0 -67 30q-29 29 -29 64q1 81 76 107q31 11 69 11q67 -1 129 -31q48 -24 85 -24h4q30 1 45 24q17 26 53 26q15 0 35 -5q59 -18 62 -80v-5q0 -52 -46 -109 q-35 -44 -74 -73z"/>
<glyph glyph-name="questiondown" horiz-adv-x="1387" unicode="¿" d="M731 765v7q0 50 -23 50q-11 0 -28 -13q-53 -40 -137 -44q-4 -1 -8 -1q-77 0 -81 88v8q0 86 80 147q46 36 101 36q44 0 94 -23q110 -51 110 -210v-3q-1 -162 -329 -363q-314 -193 -314 -405q0 -9 1 -19q15 -222 155 -329q127 -98 336 -98q21 0 44 1q239 11 354 128 q108 109 108 245v18q-8 146 -69 166q-15 4 -29 4q-38 0 -57 -42q-26 -58 -89 -79q-21 -8 -43 -8q-43 0 -88 30q-59 39 -59 118q0 10 1 21q8 95 122 150q62 29 124 29q52 0 103 -20q113 -46 180 -168q44 -81 44 -180q0 -50 -11 -104q-34 -164 -167 -286t-391 -143 q-35 -3 -69 -3q-219 0 -402 117q-213 135 -213 429q0 1 1 2q0 295 323 479t326 268zM541 1452q32 67 87 98q31 18 61 18q23 0 45 -10q50 -24 58 -84q2 -13 2 -26q0 -49 -25 -102q-31 -66 -86 -97q-33 -19 -62 -19q-21 0 -40 9q-47 22 -58 85q-4 17 -4 34q0 46 22 94z"/>
<glyph glyph-name="Agrave" horiz-adv-x="2858" unicode="À" d="M2209 2237q27 -34 27 -58q0 -11 -5 -20q-14 -24 -37 -24q-41 1 -150 89t-109 158q0 15 6 28q16 38 61 38q54 -2 110 -83t97 -128zM741 -728q305 2 531 314t389 1137q-67 14 -134 14q-69 0 -138 -15q-135 -30 -197 -141t-164 -111q-46 0 -78 34t-31 81q10 123 145 193 t341 77q56 2 103 2q124 0 181 -15q75 312 136 568t169 458q108 201 242 201q36 0 70 -41q16 -21 16 -43q0 -21 -17 -44q-31 -55 -39 -142q0 -65 36 -385t196 -794q158 -476 243 -564t153 -120q64 -30 64 -89q-5 -72 -69 -92q-28 -9 -56 -9q-37 0 -73 16q-64 26 -106 85 t-243 407q-202 348 -631 436q-174 -877 -436 -1214t-628 -337q-245 11 -415 157q-179 154 -187 382q12 246 168 384t370 146q309 -3 434 -211q51 -88 51 -180q-1 -162 -104 -240q-44 -25 -89 -25q-54 0 -94 40t-40 95q0 86 78 123l2 2q39 39 39 95q-1 51 -65 115t-216 64 q-160 0 -274 -113t-114 -284q0 -177 129 -297q122 -115 352 -120zM1807 812q321 -72 600 -379q-260 713 -260 1415q-137 -150 -205 -439t-135 -597z"/>
<glyph glyph-name="Aacute" horiz-adv-x="2858" unicode="Á" d="M2160 2365q56 81 110 83q45 0 61 -38q6 -13 6 -28q0 -70 -109 -158t-150 -89q-23 0 -37 24q-5 9 -5 20q0 24 27 58q41 47 97 128zM741 -728q305 2 531 314t389 1137q-67 14 -134 14q-69 0 -138 -15q-135 -30 -197 -141t-164 -111q-46 0 -78 34t-31 81q10 123 145 193 t341 77q56 2 103 2q124 0 181 -15q75 312 136 568t169 458q108 201 242 201q36 0 70 -41q16 -21 16 -43q0 -21 -17 -44q-31 -55 -39 -142q0 -65 36 -385t196 -794q158 -476 243 -564t153 -120q64 -30 64 -89q-5 -72 -69 -92q-28 -9 -56 -9q-37 0 -73 16q-64 26 -106 85 t-243 407q-202 348 -631 436q-174 -877 -436 -1214t-628 -337q-245 11 -415 157q-179 154 -187 382q12 246 168 384t370 146q309 -3 434 -211q51 -88 51 -180q-1 -162 -104 -240q-44 -25 -89 -25q-54 0 -94 40t-40 95q0 86 78 123l2 2q39 39 39 95q-1 51 -65 115t-216 64 q-160 0 -274 -113t-114 -284q0 -177 129 -297q122 -115 352 -120zM1807 812q321 -72 600 -379q-260 713 -260 1415q-137 -150 -205 -439t-135 -597z"/>
<glyph glyph-name="Acircumflex" horiz-adv-x="2858" unicode="Â" d="M2086 2270q-33 -42 -62 -92q-28 -48 -76 -48h-2q-50 2 -64 52q-4 10 -4 20q0 37 44 64q56 35 104 83t56 68t18 33q12 13 37 16q4 1 9 1q18 0 30 -11q14 -12 18 -36t53 -72q48 -48 103 -83q44 -27 44 -64q0 -10 -3 -20q-15 -50 -64 -52h-3q-48 0 -76 48q-29 51 -62 93 t-50 63q-17 -21 -50 -63zM741 -728q305 2 531 314t389 1137q-67 14 -134 14q-69 0 -138 -15q-135 -30 -197 -141t-164 -111q-46 0 -78 34t-31 81q10 123 145 193t341 77q56 2 103 2q124 0 181 -15q75 312 136 568t169 458q108 201 242 201q36 0 70 -41q16 -21 16 -43 q0 -21 -17 -44q-31 -55 -39 -142q0 -65 36 -385t196 -794q158 -476 243 -564t153 -120q64 -30 64 -89q-5 -72 -69 -92q-28 -9 -56 -9q-37 0 -73 16q-64 26 -106 85t-243 407q-202 348 -631 436q-174 -877 -436 -1214t-628 -337q-245 11 -415 157q-179 154 -187 382 q12 246 168 384t370 146q309 -3 434 -211q51 -88 51 -180q-1 -162 -104 -240q-44 -25 -89 -25q-54 0 -94 40t-40 95q0 86 78 123l2 2q39 39 39 95q-1 51 -65 115t-216 64q-160 0 -274 -113t-114 -284q0 -177 129 -297q122 -115 352 -120zM1807 812q321 -72 600 -379 q-260 713 -260 1415q-137 -150 -205 -439t-135 -597z"/>
<glyph glyph-name="Atilde" horiz-adv-x="2858" unicode="Ã" d="M2150 2269q41 -33 62 -33q14 0 19 17q11 40 53 53q12 3 24 3q27 0 50 -20q19 -19 19 -49q0 -18 -7 -41q-20 -61 -89 -69q-9 -1 -17 -1q-63 0 -138 53q-48 33 -73 33q-18 0 -23 -19q-11 -46 -58 -54q-8 -1 -15 -1q-36 0 -53 32q-9 15 -9 34q0 27 19 61q30 56 98 57h2 q66 0 136 -56zM741 -728q305 2 531 314t389 1137q-67 14 -134 14q-69 0 -138 -15q-135 -30 -197 -141t-164 -111q-46 0 -78 34t-31 81q10 123 145 193t341 77q56 2 103 2q124 0 181 -15q75 312 136 568t169 458q108 201 242 201q36 0 70 -41q16 -21 16 -43q0 -21 -17 -44 q-31 -55 -39 -142q0 -65 36 -385t196 -794q158 -476 243 -564t153 -120q64 -30 64 -89q-5 -72 -69 -92q-28 -9 -56 -9q-37 0 -73 16q-64 26 -106 85t-243 407q-202 348 -631 436q-174 -877 -436 -1214t-628 -337q-245 11 -415 157q-179 154 -187 382q12 246 168 384t370 146 q309 -3 434 -211q51 -88 51 -180q-1 -162 -104 -240q-44 -25 -89 -25q-54 0 -94 40t-40 95q0 86 78 123l2 2q39 39 39 95q-1 51 -65 115t-216 64q-160 0 -274 -113t-114 -284q0 -177 129 -297q122 -115 352 -120zM1807 812q321 -72 600 -379q-260 713 -260 1415 q-137 -150 -205 -439t-135 -597z"/>
<glyph glyph-name="Adieresis" horiz-adv-x="2858" unicode="Ä" d="M2001 2320q19 10 36 10q12 0 24 -5q27 -13 34 -50q1 -10 1 -20q0 -27 -13 -56q-18 -39 -48 -58q-18 -12 -36 -12q-12 0 -24 6q-30 14 -37 51q-2 10 -2 20q0 27 13 56q19 39 52 58zM2241 2320q19 10 36 10q12 0 24 -5q27 -13 34 -50q1 -10 1 -20q0 -27 -13 -56 q-18 -39 -48 -58q-18 -12 -36 -12q-12 0 -24 6q-30 14 -37 51q-2 10 -2 20q0 27 13 56q19 39 52 58zM741 -728q305 2 531 314t389 1137q-67 14 -134 14q-69 0 -138 -15q-135 -30 -197 -141t-164 -111q-46 0 -78 34t-31 81q10 123 145 193t341 77q56 2 103 2q124 0 181 -15 q75 312 136 568t169 458q108 201 242 201q36 0 70 -41q16 -21 16 -43q0 -21 -17 -44q-31 -55 -39 -142q0 -65 36 -385t196 -794q158 -476 243 -564t153 -120q64 -30 64 -89q-5 -72 -69 -92q-28 -9 -56 -9q-37 0 -73 16q-64 26 -106 85t-243 407q-202 348 -631 436 q-174 -877 -436 -1214t-628 -337q-245 11 -415 157q-179 154 -187 382q12 246 168 384t370 146q309 -3 434 -211q51 -88 51 -180q-1 -162 -104 -240q-44 -25 -89 -25q-54 0 -94 40t-40 95q0 86 78 123l2 2q39 39 39 95q-1 51 -65 115t-216 64q-160 0 -274 -113t-114 -284 q0 -177 129 -297q122 -115 352 -120zM1807 812q321 -72 600 -379q-260 713 -260 1415q-137 -150 -205 -439t-135 -597z"/>
<glyph glyph-name="Aring" horiz-adv-x="2858" unicode="Å" d="M2256 2066q25 -8 50 -38q16 -21 16 -43q0 -21 -17 -44q-31 -55 -39 -142q0 -65 36 -385t196 -794q158 -476 243 -564t153 -120q64 -30 64 -89q-5 -72 -69 -92q-28 -9 -56 -9q-37 0 -73 16q-64 26 -106 85t-243 407q-202 348 -631 436q-174 -877 -436 -1214t-628 -337 q-245 11 -415 157q-179 154 -187 382q12 246 168 384t370 146q309 -3 434 -211q51 -88 51 -180q-1 -162 -104 -240q-44 -25 -89 -25q-54 0 -94 40t-40 95q0 86 78 123l2 2q39 39 39 95q-1 51 -65 115t-216 64q-160 0 -274 -113t-114 -284q0 -177 129 -297q122 -115 352 -120 q305 2 531 314t389 1137q-67 14 -134 14q-69 0 -138 -15q-135 -30 -197 -141t-164 -111q-46 0 -78 34t-31 81q10 123 145 193t341 77q56 2 103 2q124 0 181 -15q75 312 136 568t169 458q59 112 128 161q-76 5 -130 57q-59 56 -59 148q-1 92 37 144t64 76q26 25 50 25 q26 0 48 -32q88 -1 148 -61t59 -152q0 -92 -59 -148q-12 -11 -24 -20zM2041 2235q-1 -41 27 -71t68 -30q39 0 67 30t28 71q1 43 -27 75t-65 33q-4 -10 -10 -19q-14 -20 -30 -20t-37 -13t-21 -56zM1807 812q321 -72 600 -379q-260 713 -260 1415q-137 -150 -205 -439 t-135 -597z"/>
<glyph glyph-name="AE" horiz-adv-x="3299" unicode="Æ" d="M2404 190q-136 226 -389 369q-155 87 -289 131q-50 -228 -162 -702t-372 -679q-223 -176 -475 -176q-41 0 -84 5q-299 34 -441 218q-120 155 -120 316q0 30 4 60q26 192 142 310t290 146q59 9 117 9q111 0 215 -36q156 -56 222 -174q44 -81 44 -166q0 -40 -9 -80 q-31 -128 -113 -159q-37 -14 -69 -14q-41 0 -76 22q-55 35 -55 84q0 7 2 14q8 57 70 102q39 27 39 78q0 31 -14 71q-38 105 -214 128q-36 5 -69 5q-133 0 -235 -72q-129 -91 -152 -257q-4 -26 -4 -52q0 -137 106 -259q125 -144 371 -157q15 -1 31 -1q227 0 421 181 q207 194 313 621t158 647q-47 9 -103 9q-69 0 -153 -14q-151 -26 -209 -118t-119 -119q-25 -11 -49 -11q-36 0 -68 25q-41 32 -41 90q0 17 4 38q16 85 136 149t313 84q71 7 132 7q106 0 185 -21q75 312 136 568t127 391q66 134 113 181q76 75 130 79h1q22 8 40 8 q36 0 62 -29q21 -24 21 -52q0 -22 -14 -47q-23 -42 -34 -102q151 143 336 206q203 68 424 68q41 0 83 -2q266 -15 454 -101t276 -226q77 -124 77 -259q0 -19 -1 -39q-14 -156 -114 -270t-291 -152q-63 -13 -124 -13q-125 0 -244 53q-178 77 -230 225q-26 73 -26 137 q0 67 28 125q54 113 143 128q17 2 34 2q64 0 105 -45q37 -43 37 -88q0 -15 -4 -31q-18 -61 -79 -104q-41 -29 -41 -81q0 -26 11 -59q32 -96 207 -122q44 -6 84 -6q122 0 217 59q125 78 148 221q4 26 4 52q0 114 -81 217q-98 125 -248 181t-363 67q-31 2 -61 2 q-182 0 -359 -57q-205 -66 -363 -280t-164 -414v-26q0 -245 161 -424q170 -189 368 -231q78 -17 135 -17q86 0 121 39q53 59 108 59h9q59 -5 69 -73q1 -10 1 -18q0 -56 -54 -86q-69 -41 -191 -48q-87 -22 -176 -110q-113 -111 -113 -228q0 -8 1 -16q8 -125 117 -199 q86 -60 184 -60q26 0 52 5q127 19 167 59t85 70q30 19 61 19q17 0 34 -5q50 -16 66 -70q3 -12 3 -23q0 -41 -46 -75q-58 -44 -195 -94q-79 -29 -173 -29q-70 0 -149 17q-184 37 -275 163q-80 109 -80 234q0 18 2 36q3 45 20 88zM2484 319q25 29 57 57q26 24 54 44 q-305 67 -475 292q-180 238 -180 517v12q4 250 145 448q-6 86 -7 159q-152 -240 -204 -484t-121 -552q276 -66 731 -493z"/>
<glyph glyph-name="Ccedilla" horiz-adv-x="1806" unicode="Ç" d="M1505 -523q-24 -1 -49 -1q-287 0 -584 107q-410 147 -616 544q-147 283 -147 589q-1 592 411 976t1074 385q505 -28 694 -277q83 -121 83 -275q-1 -194 -155 -321t-372 -127t-372 117q-128 128 -128 272q0 67 28 125q54 123 177 130q64 0 105 -45q37 -43 37 -88 q0 -15 -4 -31q-18 -61 -79 -104q-41 -29 -41 -81q16 -179 295 -179q158 0 268 93t110 239q0 120 -64 211q-151 194 -575 223q-652 1 -1004 -357t-352 -886q0 -317 155 -578q192 -326 578 -445q270 -85 505 -85q352 0 531 148q168 138 258 138q78 -1 78 -79 q-10 -90 -278 -214q-217 -101 -485 -120q-13 -33 -40 -86q51 -15 101 -67t50 -130t-60 -129q-51 -42 -111 -42q-12 0 -25 2q-75 10 -103 58q-16 26 -16 51q0 21 11 42q22 41 63 41h6q44 -3 61 -47q11 -30 33 -30q11 0 25 7q33 17 33 55q0 9 -2 20q-11 54 -47 87t-68 43 q-19 5 -19 30q0 18 10 47q9 25 16 44z"/>
<glyph glyph-name="Egrave" horiz-adv-x="1413" unicode="È" d="M1091 2237q27 -34 27 -58q0 -11 -5 -20q-14 -24 -37 -24q-41 1 -150 89t-109 158q0 15 6 28q16 38 61 38q54 -2 110 -83t97 -128zM1092 1984q-366 -3 -622 -217t-265 -559q0 -245 162 -425q230 -239 503 -248q86 0 121 39q53 59 108 59q69 -5 79 -81q0 -66 -54 -96 q-69 -41 -191 -48q-87 -22 -176 -110q-113 -111 -113 -228q9 -241 292 -275q129 0 199 52t115 82q30 19 71 19q93 -1 93 -88q0 -92 -130 -150t-284 -58q-273 4 -424 180q-80 110 -80 235q14 220 213 353q-305 67 -475 292q-180 238 -180 529q4 335 278 593t740 279 q318 -1 531 -95t301 -234q77 -124 77 -259q-3 -217 -139 -345t-391 -129q-492 20 -500 395q12 268 205 275q64 0 105 -45q37 -43 37 -88q0 -82 -83 -135q-41 -29 -41 -81q0 -26 11 -59q72 -126 291 -128q142 1 252 89t117 243q0 114 -81 217q-98 125 -268 186t-404 64z"/>
<glyph glyph-name="Eacute" horiz-adv-x="1413" unicode="É" d="M1040 2365q56 81 111 83q45 0 61 -38q6 -13 6 -28q0 -70 -109 -158t-150 -89q-23 0 -37 24q-5 9 -5 20q0 24 27 58q40 47 96 128zM1092 1984q-366 -3 -622 -217t-265 -559q0 -245 162 -425q230 -239 503 -248q86 0 121 39q53 59 108 59q69 -5 79 -81q0 -66 -54 -96 q-69 -41 -191 -48q-87 -22 -176 -110q-113 -111 -113 -228q9 -241 292 -275q129 0 199 52t115 82q30 19 71 19q93 -1 93 -88q0 -92 -130 -150t-284 -58q-273 4 -424 180q-80 110 -80 235q14 220 213 353q-305 67 -475 292q-180 238 -180 529q4 335 278 593t740 279 q318 -1 531 -95t301 -234q77 -124 77 -259q-3 -217 -139 -345t-391 -129q-492 20 -500 395q12 268 205 275q64 0 105 -45q37 -43 37 -88q0 -82 -83 -135q-41 -29 -41 -81q0 -26 11 -59q72 -126 291 -128q142 1 252 89t117 243q0 114 -81 217q-98 125 -268 186t-404 64z"/>
<glyph glyph-name="Ecircumflex" horiz-adv-x="1413" unicode="Ê" d="M968 2270q-33 -42 -62 -92q-28 -48 -76 -48h-2q-50 2 -64 52q-4 10 -4 20q0 37 44 64q56 35 104 83t56 68t18 33q12 13 37 16q4 1 9 1q18 0 30 -11q14 -12 18 -36t53 -72q48 -48 103 -83q44 -27 44 -64q0 -10 -3 -20q-15 -50 -64 -52h-3q-48 0 -76 48q-29 51 -62 93 t-50 63q-17 -21 -50 -63zM1092 1984q-366 -3 -622 -217t-265 -559q0 -245 162 -425q230 -239 503 -248q86 0 121 39q53 59 108 59q69 -5 79 -81q0 -66 -54 -96q-69 -41 -191 -48q-87 -22 -176 -110q-113 -111 -113 -228q9 -241 292 -275q129 0 199 52t115 82q30 19 71 19 q93 -1 93 -88q0 -92 -130 -150t-284 -58q-273 4 -424 180q-80 110 -80 235q14 220 213 353q-305 67 -475 292q-180 238 -180 529q4 335 278 593t740 279q318 -1 531 -95t301 -234q77 -124 77 -259q-3 -217 -139 -345t-391 -129q-492 20 -500 395q12 268 205 275 q64 0 105 -45q37 -43 37 -88q0 -82 -83 -135q-41 -29 -41 -81q0 -26 11 -59q72 -126 291 -128q142 1 252 89t117 243q0 114 -81 217q-98 125 -268 186t-404 64z"/>
<glyph glyph-name="Edieresis" horiz-adv-x="1413" unicode="Ë" d="M883 2320q19 10 36 10q12 0 24 -5q27 -13 34 -50q1 -10 1 -20q0 -27 -13 -56q-18 -39 -48 -58q-18 -12 -36 -12q-12 0 -24 6q-30 14 -37 51q-2 10 -2 20q0 27 13 56q19 39 52 58zM1123 2320q19 10 36 10q12 0 24 -5q27 -13 34 -50q1 -10 1 -20q0 -27 -13 -56 q-18 -39 -48 -58q-18 -12 -36 -12q-12 0 -24 6q-30 14 -37 51q-2 10 -2 20q0 27 13 56q19 39 52 58zM1092 1984q-366 -3 -622 -217t-265 -559q0 -245 162 -425q230 -239 503 -248q86 0 121 39q53 59 108 59q69 -5 79 -81q0 -66 -54 -96q-69 -41 -191 -48q-87 -22 -176 -110 q-113 -111 -113 -228q9 -241 292 -275q129 0 199 52t115 82q30 19 71 19q93 -1 93 -88q0 -92 -130 -150t-284 -58q-273 4 -424 180q-80 110 -80 235q14 220 213 353q-305 67 -475 292q-180 238 -180 529q4 335 278 593t740 279q318 -1 531 -95t301 -234q77 -124 77 -259 q-3 -217 -139 -345t-391 -129q-492 20 -500 395q12 268 205 275q64 0 105 -45q37 -43 37 -88q0 -82 -83 -135q-41 -29 -41 -81q0 -26 11 -59q72 -126 291 -128q142 1 252 89t117 243q0 114 -81 217q-98 125 -268 186t-404 64z"/>
<glyph glyph-name="Igrave" horiz-adv-x="1361" unicode="Ì" d="M1012 2237q27 -34 27 -58q0 -11 -5 -20q-14 -24 -37 -24q-41 1 -150 89t-109 158q0 15 6 28q16 38 61 38q55 -2 111 -83t96 -128zM949 1838q-97 -50 -357 -176t-355 -314q-42 -84 -42 -201q3 -164 153 -255q68 -32 131 -32q185 4 188 127q0 46 -46 63q-86 50 -95 139 q0 38 24 74q41 60 133 63q93 0 152 -97q39 -67 39 -142q-9 -175 -151 -278q-98 -73 -248 -73q-153 4 -275 114t-131 304q0 146 64 254q111 196 459 372t384 225q40 55 82 55q16 0 31 -7q22 11 44 11q70 -4 75 -74q0 -51 -66 -121q-101 -104 -103 -318q1 -279 55 -594 t54 -636q-8 -373 -163 -522t-393 -149q-245 1 -383 160q-46 51 -46 118q19 89 103 90q32 0 61 -19q45 -30 105 -110t204 -88q172 0 275 137t110 447q0 205 -53 553t-53 631q1 166 34 269z"/>
<glyph glyph-name="Iacute" horiz-adv-x="1361" unicode="Í" d="M962 2365q56 81 110 83q45 0 61 -38q6 -13 6 -28q0 -70 -109 -158t-150 -89q-23 0 -37 24q-5 9 -5 20q0 24 27 58q41 47 97 128zM949 1838q-97 -50 -357 -176t-355 -314q-42 -84 -42 -201q3 -164 153 -255q68 -32 131 -32q185 4 188 127q0 46 -46 63q-86 50 -95 139 q0 38 24 74q41 60 133 63q93 0 152 -97q39 -67 39 -142q-9 -175 -151 -278q-98 -73 -248 -73q-153 4 -275 114t-131 304q0 146 64 254q111 196 459 372t384 225q40 55 82 55q16 0 31 -7q22 11 44 11q70 -4 75 -74q0 -51 -66 -121q-101 -104 -103 -318q1 -279 55 -594 t54 -636q-8 -373 -163 -522t-393 -149q-245 1 -383 160q-46 51 -46 118q19 89 103 90q32 0 61 -19q45 -30 105 -110t204 -88q172 0 275 137t110 447q0 205 -53 553t-53 631q1 166 34 269z"/>
<glyph glyph-name="Icircumflex" horiz-adv-x="1361" unicode="Î" d="M889 2270q-33 -42 -62 -92q-28 -48 -76 -48h-2q-50 2 -64 52q-4 10 -4 20q0 37 44 64q55 35 103 83t56 68t20 33t36 16q4 1 9 1q18 0 30 -11q15 -12 19 -36t52 -72t103 -83q44 -27 44 -64q0 -10 -3 -20q-15 -50 -64 -52h-3q-48 0 -76 48q-29 51 -62 93t-50 63 q-17 -21 -50 -63zM949 1838q-97 -50 -357 -176t-355 -314q-42 -84 -42 -201q3 -164 153 -255q68 -32 131 -32q185 4 188 127q0 46 -46 63q-86 50 -95 139q0 38 24 74q41 60 133 63q93 0 152 -97q39 -67 39 -142q-9 -175 -151 -278q-98 -73 -248 -73q-153 4 -275 114 t-131 304q0 146 64 254q111 196 459 372t384 225q40 55 82 55q16 0 31 -7q22 11 44 11q70 -4 75 -74q0 -51 -66 -121q-101 -104 -103 -318q1 -279 55 -594t54 -636q-8 -373 -163 -522t-393 -149q-245 1 -383 160q-46 51 -46 118q19 89 103 90q32 0 61 -19q45 -30 105 -110 t204 -88q172 0 275 137t110 447q0 205 -53 553t-53 631q1 166 34 269z"/>
<glyph glyph-name="Idieresis" horiz-adv-x="1361" unicode="Ï" d="M804 2320q19 10 36 10q12 0 24 -5q27 -13 34 -50q1 -10 1 -20q0 -27 -13 -56q-18 -39 -48 -58q-18 -12 -36 -12q-12 0 -24 6q-30 14 -37 51q-2 10 -2 20q0 27 13 56q19 39 52 58zM1044 2320q19 10 36 10q12 0 24 -5q27 -13 34 -50q1 -10 1 -20q0 -27 -13 -56 q-18 -39 -48 -58q-18 -12 -36 -12q-12 0 -24 6q-30 14 -37 51q-2 10 -2 20q0 27 13 56q19 39 52 58zM949 1838q-97 -50 -357 -176t-355 -314q-42 -84 -42 -201q3 -164 153 -255q68 -32 131 -32q185 4 188 127q0 46 -46 63q-86 50 -95 139q0 38 24 74q41 60 133 63 q93 0 152 -97q39 -67 39 -142q-9 -175 -151 -278q-98 -73 -248 -73q-153 4 -275 114t-131 304q0 146 64 254q111 196 459 372t384 225q40 55 82 55q16 0 31 -7q22 11 44 11q70 -4 75 -74q0 -51 -66 -121q-101 -104 -103 -318q1 -279 55 -594t54 -636q-8 -373 -163 -522 t-393 -149q-245 1 -383 160q-46 51 -46 118q19 89 103 90q32 0 61 -19q45 -30 105 -110t204 -88q172 0 275 137t110 447q0 205 -53 553t-53 631q1 166 34 269z"/>
<glyph glyph-name="Eth" horiz-adv-x="2866" unicode="Ð" d="M1140 399q-28 -264 -127 -444q270 -167 657 -173q853 40 901 926q0 480 -182 737q-437 -370 -1041 -372q-422 9 -635 122t-233 334q0 97 52 205q203 345 775 345q600 -4 1052 -400q38 89 38 150q-3 37 -3 56q0 66 26 109q32 53 91 53q101 -4 101 -114q0 -149 -142 -375 q232 -310 232 -840q-53 -1025 -1034 -1065q-404 7 -702 193q-167 -198 -372 -199q-126 0 -203 56q-91 66 -91 192q12 269 303 270q144 0 317 -136q82 147 96 370h-352q-28 0 -46 19t-18 46q0 28 18 46t52 18h339q-19 124 -81 177q-87 73 -92 169q6 97 104 107 q122 -2 179 -169q32 -101 32 -248q0 -18 -1 -36h464q34 0 52 -18t18 -46q0 -27 -18 -46t-46 -19h-480zM1355 1216q581 2 943 343q-406 373 -1050 395q-393 -15 -573 -230q-42 -61 -42 -126q27 -356 722 -382zM863 -63q-145 111 -265 111q-161 -6 -171 -133q3 -137 173 -137 q138 0 263 159z"/>
<glyph glyph-name="Ntilde" horiz-adv-x="2726" unicode="Ñ" d="M2049 2269q41 -33 62 -33q14 0 19 17q11 40 53 53q12 3 24 3q27 0 50 -20q19 -19 19 -49q0 -18 -7 -41q-20 -61 -89 -69q-9 -1 -17 -1q-63 0 -138 53q-48 33 -73 33q-18 0 -23 -19q-11 -46 -58 -54q-8 -1 -15 -1q-36 0 -53 32q-9 15 -9 34q0 27 19 61q30 56 98 57h2 q66 0 136 -56zM686 -728q246 2 447 195q291 346 314 1087q-7 531 -73 785t-136 342q-30 38 -30 69q10 79 113 85q49 0 88 -48q53 -65 225 -395t734 -1202q-96 416 -96 730q5 584 313 906q305 319 760 319q209 -4 343 -59q176 -73 253 -215q68 -126 68 -264 q-2 -177 -125 -310t-294 -138q-125 0 -206 45q-162 86 -165 265q3 175 145 210q20 4 38 4q46 0 80 -26q44 -35 44 -94q-4 -57 -65 -100q-38 -28 -38 -67q0 -23 14 -50q34 -69 141 -69q134 5 220 97t86 240q0 115 -60 213q-69 111 -221 169q-106 39 -258 43 q-429 -17 -681 -303q-256 -289 -270 -864q0 -236 53 -506t147 -412q64 -81 64 -132q-10 -69 -102 -79q-49 0 -88 48q-48 59 -208 301t-750 1249q83 -333 83 -823q-43 -816 -392 -1170q-242 -209 -539 -209q-245 11 -415 157q-179 154 -187 382q12 246 168 384t370 146 q309 -3 434 -211q51 -88 51 -180q-1 -162 -104 -240q-44 -25 -89 -25q-54 0 -94 40t-40 95q0 86 78 123l2 2q39 39 39 95q-1 51 -65 115t-216 64q-160 0 -274 -113t-114 -284q0 -177 129 -297q122 -114 351 -120z"/>
<glyph glyph-name="Ograve" horiz-adv-x="2321" unicode="Ò" d="M1282 2237q27 -34 27 -58q0 -11 -5 -20q-14 -24 -37 -24q-41 1 -150 89t-109 158q0 15 6 28q16 38 61 38q55 -2 111 -83t96 -128zM2025 736q0 237 -94 418q-116 -132 -322 -137q-348 13 -368 330q0 66 35 132q55 103 160 103q145 0 151 -134q0 -68 -80 -115 q-49 -33 -49 -78q21 -97 185 -100q119 0 211 94q-71 53 -73 131q10 72 76 80q38 0 63 -17q1 17 1 33q0 102 -48 197q-162 279 -586 282q-351 -5 -597 -281t-260 -797q10 -521 234 -763t649 -244h6q649 0 706 866zM1306 -265q-508 15 -757 319t-259 834q12 560 296 869 t709 320q569 -2 722 -399q36 -107 36 -200q0 -105 -33 -174q85 -160 108 -490q-5 -1028 -822 -1079z"/>
<glyph glyph-name="Oacute" horiz-adv-x="2321" unicode="Ó" d="M1232 2365q56 81 111 83q45 0 61 -38q6 -13 6 -28q0 -70 -109 -158t-150 -89q-23 0 -37 24q-5 9 -5 20q0 24 27 58q40 47 96 128zM2025 736q0 237 -94 418q-116 -132 -322 -137q-348 13 -368 330q0 66 35 132q55 103 160 103q145 0 151 -134q0 -68 -80 -115 q-49 -33 -49 -78q21 -97 185 -100q119 0 211 94q-71 53 -73 131q10 72 76 80q38 0 63 -17q1 17 1 33q0 102 -48 197q-162 279 -586 282q-351 -5 -597 -281t-260 -797q10 -521 234 -763t649 -244h6q649 0 706 866zM1306 -265q-508 15 -757 319t-259 834q12 560 296 869 t709 320q569 -2 722 -399q36 -107 36 -200q0 -105 -33 -174q85 -160 108 -490q-5 -1028 -822 -1079z"/>
<glyph glyph-name="Ocircumflex" horiz-adv-x="2321" unicode="Ô" d="M1159 2270q-33 -42 -62 -92q-28 -48 -76 -48h-2q-50 2 -64 52q-4 10 -4 20q0 37 44 64q55 35 103 83t56 68t20 33t36 16q4 1 9 1q18 0 30 -11q15 -12 19 -36t52 -72t103 -83q44 -27 44 -64q0 -10 -3 -20q-15 -50 -64 -52h-3q-48 0 -76 48q-29 51 -62 93t-50 63 q-17 -21 -50 -63zM2025 736q0 237 -94 418q-116 -132 -322 -137q-348 13 -368 330q0 66 35 132q55 103 160 103q145 0 151 -134q0 -68 -80 -115q-49 -33 -49 -78q21 -97 185 -100q119 0 211 94q-71 53 -73 131q10 72 76 80q38 0 63 -17q1 17 1 33q0 102 -48 197 q-162 279 -586 282q-351 -5 -597 -281t-260 -797q10 -521 234 -763t649 -244h6q649 0 706 866zM1306 -265q-508 15 -757 319t-259 834q12 560 296 869t709 320q569 -2 722 -399q36 -107 36 -200q0 -105 -33 -174q85 -160 108 -490q-5 -1028 -822 -1079z"/>
<glyph glyph-name="Otilde" horiz-adv-x="2321" unicode="Õ" d="M1223 2269q41 -33 62 -33q14 0 19 17q11 40 53 53q12 3 24 3q27 0 50 -20q19 -19 19 -49q0 -18 -7 -41q-20 -61 -89 -69q-9 -1 -17 -1q-63 0 -138 53q-48 33 -73 33q-18 0 -23 -19q-11 -46 -58 -54q-8 -1 -15 -1q-36 0 -53 32q-9 15 -9 34q0 27 19 61q30 56 98 57h2 q66 0 136 -56zM2025 736q0 237 -94 418q-116 -132 -322 -137q-348 13 -368 330q0 66 35 132q55 103 160 103q145 0 151 -134q0 -68 -80 -115q-49 -33 -49 -78q21 -97 185 -100q119 0 211 94q-71 53 -73 131q10 72 76 80q38 0 63 -17q1 17 1 33q0 102 -48 197 q-162 279 -586 282q-351 -5 -597 -281t-260 -797q10 -521 234 -763t649 -244h6q649 0 706 866zM1306 -265q-508 15 -757 319t-259 834q12 560 296 869t709 320q569 -2 722 -399q36 -107 36 -200q0 -105 -33 -174q85 -160 108 -490q-5 -1028 -822 -1079z"/>
<glyph glyph-name="Odieresis" horiz-adv-x="2321" unicode="Ö" d="M1074 2320q19 10 36 10q12 0 24 -5q27 -13 34 -50q1 -10 1 -20q0 -27 -13 -56q-18 -39 -48 -58q-18 -12 -36 -12q-12 0 -24 6q-30 14 -37 51q-2 10 -2 20q0 27 13 56q19 39 52 58zM1314 2320q19 10 36 10q12 0 24 -5q27 -13 34 -50q1 -10 1 -20q0 -27 -13 -56 q-18 -39 -48 -58q-18 -12 -36 -12q-12 0 -24 6q-30 14 -37 51q-2 10 -2 20q0 27 13 56q19 39 52 58zM2025 736q0 237 -94 418q-116 -132 -322 -137q-348 13 -368 330q0 66 35 132q55 103 160 103q145 0 151 -134q0 -68 -80 -115q-49 -33 -49 -78q21 -97 185 -100 q119 0 211 94q-71 53 -73 131q10 72 76 80q38 0 63 -17q1 17 1 33q0 102 -48 197q-162 279 -586 282q-351 -5 -597 -281t-260 -797q10 -521 234 -763t649 -244h6q649 0 706 866zM1306 -265q-508 15 -757 319t-259 834q12 560 296 869t709 320q569 -2 722 -399 q36 -107 36 -200q0 -105 -33 -174q85 -160 108 -490q-5 -1028 -822 -1079z"/>
<glyph glyph-name="multiply" d="M531 614q87 86 134 96q20 4 38 4q42 0 65 -24q35 -35 37 -74v-6q0 -30 -19 -48q-3 -3 -7 -6q-28 -22 -99 -40t-160 -108q91 -58 137 -104q15 -16 25 -30q43 -56 47 -92v-10q0 -30 -20 -49q-23 -24 -49 -27q-3 -1 -6 -1q-24 0 -50 27q-30 30 -61 86q-23 41 -69 87 q-15 16 -34 31q-63 -83 -110 -130q-13 -13 -25 -23q-54 -47 -89 -50q-5 -1 -9 -1q-30 0 -53 23q-25 25 -29 53q-1 3 -1 7q0 23 24 46q26 27 89 58q44 22 86 64q18 18 37 42q-55 48 -94 87q-77 77 -88 116q-6 23 -6 42q0 31 17 52q5 7 10 12q23 23 49 25h4q30 0 59 -29 q31 -30 49 -98t68 -122q57 68 103 114z" unicode="×"/>
<glyph glyph-name="Oslash" horiz-adv-x="2115" unicode="Ø" d="M1257 1226q20 -58 152 -70q14 -1 28 -1q119 0 211 94q-51 53 -68 102q-5 15 -5 29q0 32 26 59q20 21 50 21q28 0 63 -17q1 17 1 33q0 102 -48 197q-39 75 -108 136q-59 -125 -172 -340q2 -10 2 -19q0 -16 -6 -30q-16 -38 -61 -72q-31 -59 -65 -122zM622 24 q137 -104 311 -136q92 -17 176 -17q228 0 404 129q239 176 291 539q15 103 15 197q0 237 -94 418q-86 -102 -237 -129q-44 -8 -84 -8q-104 0 -190 51q-17 9 -32 20q-57 -104 -122 -221q-324 -585 -438 -843zM1612 1931q152 -114 199 -253q36 -107 36 -200q0 -45 -8 -86 q-9 -46 -25 -88q45 -100 89 -296q19 -83 19 -194q0 -151 -35 -355q-60 -353 -337 -573q-189 -151 -449 -151q-121 0 -258 33q-155 36 -277 110q-3 -12 -5 -22q-29 -165 -37 -231t-62 -78q-10 -3 -19 -3q-43 0 -74 49q-13 20 -13 56q0 72 50 207q14 38 46 105 q-137 119 -221 301q-137 297 -137 626q0 105 14 213q58 447 322 706t607 270q24 1 47 1q229 0 385 -64q15 95 21 141q8 66 63 79q9 2 18 2q43 0 75 -49q13 -20 13 -56q0 -70 -47 -200zM1446 1889q-127 66 -365 66h-34q-287 -5 -513 -221t-286 -658q-14 -102 -14 -198 q0 -323 156 -585q61 -104 136 -182q138 271 424 786q80 146 148 271q-29 39 -45 85q-17 47 -17 94q0 66 34 132q55 104 144 104q6 0 13 -1q45 -4 77 -18q113 228 142 325z"/>
<glyph glyph-name="Ugrave" horiz-adv-x="2429" unicode="Ù" d="M1476 2237q27 -34 27 -58q0 -11 -5 -20q-14 -24 -37 -24q-41 1 -150 89t-109 158q0 15 6 28q16 38 61 38q55 -2 111 -83t96 -128zM1901 400q-108 343 -120 661q-1 32 -1 62q0 300 130 303h3q140 0 171 -325q13 -146 13 -287q0 -176 -21 -345l-2 -2q-10 -66 -23 -126 q165 -509 395 -543q51 0 91 38t55 56h1l1 1q26 26 63 26t63 -26t26 -63q0 -76 -74 -118t-162 -43q-306 8 -516 478q-96 -257 -280 -394q-158 -109 -331 -109q-293 2 -455 228q-133 185 -133 660q0 104 7 222q20 379 20 601q0 164 -11 243q-31 220 -152 300q-72 47 -138 47 q-45 0 -87 -22q-103 -55 -104 -162v-3q0 -67 50 -118q50 -54 58 -86t9 -52q0 -66 -48 -114t-115 -48q-86 0 -150 62t-74 202q-1 14 -1 28q0 128 83 263q91 150 286 185q38 6 75 6q149 0 271 -112q152 -141 174 -409q6 -68 6 -178q0 -230 -24 -641q-8 -132 -8 -243 q0 -405 101 -546q129 -181 336 -184q185 0 318 110q136 111 195 290q29 91 45 171q-9 27 -18 55zM1969 588q-10 658 -39 665h-2q-21 0 -21 -115q0 -29 1 -65q7 -187 61 -485z"/>
<glyph glyph-name="Uacute" horiz-adv-x="2429" unicode="Ú" d="M1426 2365q56 81 110 83q45 0 61 -38q6 -13 6 -28q0 -70 -109 -158t-150 -89q-23 0 -37 24q-5 9 -5 20q0 24 27 58q41 47 97 128zM1901 400q-108 343 -120 661q-1 32 -1 62q0 300 130 303h3q140 0 171 -325q13 -146 13 -287q0 -176 -21 -345l-2 -2q-10 -66 -23 -126 q165 -509 395 -543q51 0 91 38t55 56h1l1 1q26 26 63 26t63 -26t26 -63q0 -76 -74 -118t-162 -43q-306 8 -516 478q-96 -257 -280 -394q-158 -109 -331 -109q-293 2 -455 228q-133 185 -133 660q0 104 7 222q20 379 20 601q0 164 -11 243q-31 220 -152 300q-72 47 -138 47 q-45 0 -87 -22q-103 -55 -104 -162v-3q0 -67 50 -118q50 -54 58 -86t9 -52q0 -66 -48 -114t-115 -48q-86 0 -150 62t-74 202q-1 14 -1 28q0 128 83 263q91 150 286 185q38 6 75 6q149 0 271 -112q152 -141 174 -409q6 -68 6 -178q0 -230 -24 -641q-8 -132 -8 -243 q0 -405 101 -546q129 -181 336 -184q185 0 318 110q136 111 195 290q29 91 45 171q-9 27 -18 55zM1969 588q-10 658 -39 665h-2q-21 0 -21 -115q0 -29 1 -65q7 -187 61 -485z"/>
<glyph glyph-name="Ucircumflex" horiz-adv-x="2429" unicode="Û" d="M1353 2270q-33 -42 -62 -92q-28 -48 -76 -48h-2q-50 2 -64 52q-4 10 -4 20q0 37 44 64q55 35 103 83t56 68t20 33t36 16q4 1 9 1q18 0 30 -11q15 -12 19 -36t52 -72t103 -83q44 -27 44 -64q0 -10 -3 -20q-15 -50 -64 -52h-3q-48 0 -76 48q-29 51 -62 93t-50 63 q-17 -21 -50 -63zM1901 400q-108 343 -120 661q-1 32 -1 62q0 300 130 303h3q140 0 171 -325q13 -146 13 -287q0 -176 -21 -345l-2 -2q-10 -66 -23 -126q165 -509 395 -543q51 0 91 38t55 56h1l1 1q26 26 63 26t63 -26t26 -63q0 -76 -74 -118t-162 -43q-306 8 -516 478 q-96 -257 -280 -394q-158 -109 -331 -109q-293 2 -455 228q-133 185 -133 660q0 104 7 222q20 379 20 601q0 164 -11 243q-31 220 -152 300q-72 47 -138 47q-45 0 -87 -22q-103 -55 -104 -162v-3q0 -67 50 -118q50 -54 58 -86t9 -52q0 -66 -48 -114t-115 -48q-86 0 -150 62 t-74 202q-1 14 -1 28q0 128 83 263q91 150 286 185q38 6 75 6q149 0 271 -112q152 -141 174 -409q6 -68 6 -178q0 -230 -24 -641q-8 -132 -8 -243q0 -405 101 -546q129 -181 336 -184q185 0 318 110q136 111 195 290q29 91 45 171q-9 27 -18 55zM1969 588q-10 658 -39 665 h-2q-21 0 -21 -115q0 -29 1 -65q7 -187 61 -485z"/>
<glyph glyph-name="Udieresis" horiz-adv-x="2429" unicode="Ü" d="M1268 2320q19 10 36 10q12 0 24 -5q27 -13 34 -50q1 -10 1 -20q0 -27 -13 -56q-18 -39 -48 -58q-18 -12 -36 -12q-12 0 -24 6q-30 14 -37 51q-2 10 -2 20q0 27 13 56q19 39 52 58zM1508 2320q19 10 36 10q12 0 24 -5q27 -13 34 -50q1 -10 1 -20q0 -27 -13 -56 q-18 -39 -48 -58q-18 -12 -36 -12q-12 0 -24 6q-30 14 -37 51q-2 10 -2 20q0 27 13 56q19 39 52 58zM1901 400q-108 343 -120 661q-1 32 -1 62q0 300 130 303h3q140 0 171 -325q13 -146 13 -287q0 -176 -21 -345l-2 -2q-10 -66 -23 -126q165 -509 395 -543q51 0 91 38t55 56 h1l1 1q26 26 63 26t63 -26t26 -63q0 -76 -74 -118t-162 -43q-306 8 -516 478q-96 -257 -280 -394q-158 -109 -331 -109q-293 2 -455 228q-133 185 -133 660q0 104 7 222q20 379 20 601q0 164 -11 243q-31 220 -152 300q-72 47 -138 47q-45 0 -87 -22q-103 -55 -104 -162v-3 q0 -67 50 -118q50 -54 58 -86t9 -52q0 -66 -48 -114t-115 -48q-86 0 -150 62t-74 202q-1 14 -1 28q0 128 83 263q91 150 286 185q38 6 75 6q149 0 271 -112q152 -141 174 -409q6 -68 6 -178q0 -230 -24 -641q-8 -132 -8 -243q0 -405 101 -546q129 -181 336 -184 q185 0 318 110q136 111 195 290q29 91 45 171q-9 27 -18 55zM1969 588q-10 658 -39 665h-2q-21 0 -21 -115q0 -29 1 -65q7 -187 61 -485z"/>
<glyph glyph-name="Yacute" horiz-adv-x="2438" unicode="Ý" d="M1312 2365q56 81 111 83q45 0 61 -38q6 -13 6 -28q0 -70 -109 -158t-150 -89q-23 0 -37 24q-5 9 -5 20q0 24 27 58q40 47 96 128zM1714 53q-158 -109 -331 -109q-35 0 -71 5q-212 27 -349 221q-127 178 -127 656q0 20 1 40v147q0 397 -26 585q-31 220 -152 300 q-72 47 -138 47q-45 0 -87 -22q-103 -55 -104 -162v-3q0 -67 50 -118q50 -54 58 -86t9 -52q0 -66 -48 -114t-115 -48q-86 0 -150 62t-74 202q-1 14 -1 28q0 128 83 263q91 150 286 185q38 6 75 6q149 0 271 -112q152 -141 174 -409q17 -211 17 -535q0 -88 -1 -185v-42 q0 -416 116 -568q122 -159 292 -161q3 -1 7 -1q165 0 298 110q136 111 215 282q37 112 49 181q-2 24 -3 45l-2 23q0 192 122 192q56 0 56 -86q0 -40 -12 -98q-15 -73 -15 -173q0 -174 58 -497q126 59 195 156q78 108 83 212t46 105q51 0 51 -86q-11 -147 -83 -281 q-71 -134 -271 -244q10 -99 10 -188q0 -217 -59 -378q-147 -367 -577 -369q-118 0 -231 44q-267 117 -271 355q0 144 113 254q141 138 441 223t441 143q-39 219 -61 372q-111 -216 -258 -317zM1268 -428q-94 -85 -94 -188q4 -145 202 -245q83 -31 173 -31q331 2 449 291 q40 119 40 258q0 94 -18 196q-199 -78 -417 -127t-335 -154z"/>
<glyph glyph-name="Thorn" horiz-adv-x="1786" unicode="Þ" d="M1145 547q24 5 53 13q163 45 229 176q47 92 47 185q0 38 -8 77q-28 132 -128 180q-42 19 -78 19q-49 0 -86 -37q-59 -60 -59 -239q0 -20 1 -41l-5 8q26 -192 34 -341zM1070 1181q22 52 62 86q64 53 146 53q45 0 96 -16q143 -46 200 -222q22 -67 22 -136q0 -113 -58 -232 q-93 -192 -275 -266q-62 -25 -115 -38q0 -99 -11 -172q-37 -240 -72 -306t-66 -106q-109 -136 -283 -165q-65 -11 -124 -11q-101 0 -187 31q-138 50 -196 129q-46 61 -46 108q0 13 4 25q15 54 65 70q17 5 34 5q32 0 61 -19q45 -30 85 -105t185 -90q19 -3 39 -3q122 0 227 87 q59 48 95 118t58 265q5 52 5 126q-27 2 -51 9q-170 48 -172 124v4q0 72 69 88q13 2 26 2q55 0 99 -55q9 -11 23 -18q-12 171 -44 414q-56 421 -56 604q0 34 2 59q9 127 32 210q-95 -52 -361 -172t-341 -298q-52 -124 -52 -221q0 -43 10 -80q33 -124 143 -175q68 -32 131 -32 q39 0 77 12q98 32 109 95q2 10 2 20q0 46 -46 63q-56 20 -84 87q-11 26 -11 52q0 38 24 74q41 60 133 63h4q89 0 148 -97q39 -67 39 -142q0 -37 -9 -76q-30 -119 -142 -202q-98 -73 -228 -73q-19 0 -39 2q-154 12 -256 108t-126 245q-5 31 -5 63q0 126 74 274 q93 188 445 358t388 219q40 55 82 55q16 0 31 -7q22 11 44 11q9 0 19 -2q51 -12 56 -65v-7q0 -51 -66 -121q-71 -74 -96 -221q-7 -38 -7 -99q0 -130 31 -368z"/>
<glyph glyph-name="germandbls" horiz-adv-x="987" unicode="ß" d="M400 1124q51 128 51 240q0 54 -12 105q-37 149 -167 149h-8q-137 -5 -162 -272q-4 -43 -4 -101q0 -276 96 -880q115 -731 130 -856q10 -80 10 -145q0 -93 -20 -154q-28 -84 -84 -84q-14 0 -29 6q-61 20 -61 86q0 19 5 42q19 84 19 233q0 33 -1 69q-5 199 -59 475 q-28 143 -50 282h-13q-53 0 -77 30q-27 34 -27 81q0 48 27 82q23 28 55 33q-23 148 -39 269q-19 202 -19 358q0 168 22 284q43 222 172 279q65 28 124 28q57 0 108 -27q103 -56 155 -210q21 -64 21 -138q0 -106 -43 -234q-59 -174 -59 -283q0 -27 4 -50q17 -115 149 -230 t190 -258q14 -2 28 -2q20 0 39 4q86 16 98 93t56 80h2q28 0 28 -50q0 -24 -7 -61q-21 -113 -130 -163q-45 -21 -92 -21h-4q-6 -72 -58 -144q-73 -101 -187 -101q-26 0 -55 5q-153 29 -171 175q-2 17 -2 33q0 120 121 180q51 26 111 26q20 0 40 -3q0 48 -128 176t-149 250 q-5 26 -5 55q0 108 61 259zM513 267q-60 -30 -60 -86q0 -7 1 -14q8 -66 83 -79q14 -2 27 -2q55 0 87 45q26 37 26 78q0 24 -8 49q-50 24 -93 24q-34 0 -63 -15z"/>
<glyph glyph-name="agrave" horiz-adv-x="1147" unicode="à" d="M478 1121q27 -34 27 -58q0 -11 -5 -20q-14 -24 -37 -24q-41 1 -150 89t-109 158q0 15 6 28q16 38 61 38q55 -2 111 -83t96 -128zM698 179q-109 -195 -323 -195q-163 0 -279 136t-116 327q0 212 116 338t279 126t279 -132q14 71 83 71q45 0 72 -57q20 -45 20 -129 q0 -58 -10 -135q-9 -68 -9 -127q1 -297 142 -297q70 1 118 71t57 186q8 97 56 97q46 0 46 -89q0 -35 -9 -84q-28 -147 -107 -218t-160 -71h-2q-83 1 -153 45t-100 137zM630 613q-93 163 -235 163q-123 0 -197 -92t-74 -240q0 -138 80 -235t191 -97q182 0 265 253 q-27 148 -30 248z"/>
<glyph glyph-name="aacute" horiz-adv-x="1147" unicode="á" d="M428 1249q56 81 110 83q45 0 61 -38q6 -13 6 -28q0 -70 -109 -158t-150 -89q-23 0 -37 24q-5 9 -5 20q0 24 27 58q41 47 97 128zM698 179q-109 -195 -323 -195q-163 0 -279 136t-116 327q0 212 116 338t279 126t279 -132q14 71 83 71q45 0 72 -57q20 -45 20 -129 q0 -58 -10 -135q-9 -68 -9 -127q1 -297 142 -297q70 1 118 71t57 186q8 97 56 97q46 0 46 -89q0 -35 -9 -84q-28 -147 -107 -218t-160 -71h-2q-83 1 -153 45t-100 137zM630 613q-93 163 -235 163q-123 0 -197 -92t-74 -240q0 -138 80 -235t191 -97q182 0 265 253 q-27 148 -30 248z"/>
<glyph glyph-name="acircumflex" horiz-adv-x="1147" unicode="â" d="M355 1154q-33 -42 -62 -92q-28 -48 -76 -48h-2q-50 2 -64 52q-4 10 -4 20q0 37 44 64q55 35 103 83t56 68t20 33t36 16q4 1 9 1q18 0 30 -11q15 -12 19 -36t52 -72t103 -83q44 -27 44 -64q0 -10 -3 -20q-15 -50 -64 -52h-3q-48 0 -76 48q-29 51 -62 93t-50 63 q-17 -21 -50 -63zM698 179q-109 -195 -323 -195q-163 0 -279 136t-116 327q0 212 116 338t279 126t279 -132q14 71 83 71q45 0 72 -57q20 -45 20 -129q0 -58 -10 -135q-9 -68 -9 -127q1 -297 142 -297q70 1 118 71t57 186q8 97 56 97q46 0 46 -89q0 -35 -9 -84 q-28 -147 -107 -218t-160 -71h-2q-83 1 -153 45t-100 137zM630 613q-93 163 -235 163q-123 0 -197 -92t-74 -240q0 -138 80 -235t191 -97q182 0 265 253q-27 148 -30 248z"/>
<glyph glyph-name="atilde" horiz-adv-x="1147" unicode="ã" d="M419 1153q41 -33 62 -33q14 0 19 17q11 40 53 53q12 3 24 3q27 0 50 -20q19 -19 19 -49q0 -18 -7 -41q-20 -61 -89 -69q-9 -1 -17 -1q-63 0 -138 53q-48 33 -73 33q-18 0 -23 -19q-11 -46 -58 -54q-8 -1 -15 -1q-36 0 -53 32q-9 15 -9 34q0 27 19 61q30 56 98 57h2 q66 0 136 -56zM698 179q-109 -195 -323 -195q-163 0 -279 136t-116 327q0 212 116 338t279 126t279 -132q14 71 83 71q45 0 72 -57q20 -45 20 -129q0 -58 -10 -135q-9 -68 -9 -127q1 -297 142 -297q70 1 118 71t57 186q8 97 56 97q46 0 46 -89q0 -35 -9 -84 q-28 -147 -107 -218t-160 -71h-2q-83 1 -153 45t-100 137zM630 613q-93 163 -235 163q-123 0 -197 -92t-74 -240q0 -138 80 -235t191 -97q182 0 265 253q-27 148 -30 248z"/>
<glyph glyph-name="adieresis" horiz-adv-x="1147" unicode="ä" d="M270 1204q19 10 36 10q12 0 24 -5q27 -13 34 -50q1 -10 1 -20q0 -27 -13 -56q-18 -39 -48 -58q-18 -12 -36 -12q-12 0 -24 6q-30 14 -37 51q-2 10 -2 20q0 27 13 56q19 39 52 58zM510 1204q19 10 36 10q12 0 24 -5q27 -13 34 -50q1 -10 1 -20q0 -27 -13 -56 q-18 -39 -48 -58q-18 -12 -36 -12q-12 0 -24 6q-30 14 -37 51q-2 10 -2 20q0 27 13 56q19 39 52 58zM698 179q-109 -195 -323 -195q-163 0 -279 136t-116 327q0 212 116 338t279 126t279 -132q14 71 83 71q45 0 72 -57q20 -45 20 -129q0 -58 -10 -135q-9 -68 -9 -127 q1 -297 142 -297q70 1 118 71t57 186q8 97 56 97q46 0 46 -89q0 -35 -9 -84q-28 -147 -107 -218t-160 -71h-2q-83 1 -153 45t-100 137zM630 613q-93 163 -235 163q-123 0 -197 -92t-74 -240q0 -138 80 -235t191 -97q182 0 265 253q-27 148 -30 248z"/>
<glyph glyph-name="aring" horiz-adv-x="1147" unicode="å" d="M546 868q59 -33 108 -89q14 71 83 71q45 0 72 -57q20 -45 20 -129q0 -58 -10 -135q-9 -68 -9 -127q1 -297 142 -297q70 1 118 71t57 186q8 97 56 97q46 0 46 -89q0 -35 -9 -84q-28 -147 -107 -218t-160 -71h-2q-83 1 -153 45t-100 137q-109 -195 -323 -195 q-163 0 -279 136t-116 327q0 212 116 338q66 72 148 103q-42 52 -42 130q0 92 38 144t62 76q26 25 51 25q26 0 48 -32q87 -1 147 -61t60 -152t-59 -148q-2 -1 -3 -2zM310 1019q0 -41 28 -71t67 -30t67 30t28 71q0 43 -28 75t-64 33q-4 -10 -10 -19q-14 -20 -30 -20t-37 -13 t-21 -56zM630 613q-93 163 -235 163q-123 0 -197 -92t-74 -240q0 -138 80 -235t191 -97q182 0 265 253q-27 148 -30 248z"/>
<glyph glyph-name="ae" horiz-adv-x="1456" unicode="æ" d="M774 800q37 37 83 67q85 44 164 44q52 0 101 -19q125 -47 139 -193q1 -16 1 -31q0 -129 -105 -234q-118 -119 -311 -162q30 -50 75 -87q86 -68 191 -72h11q97 0 176 67q83 70 108 148t35 136q9 53 49 53h6q34 -3 34 -57q0 -16 -2 -35q-13 -87 -64 -193t-129 -170 t-217 -75q-26 -3 -50 -3q-110 0 -204 46q-94 45 -153 141q-7 10 -13 20q-22 -45 -51 -82q-99 -125 -263 -125q-163 0 -279 136t-116 327q0 192 116 328t279 136q118 0 149 -44q17 -25 17 -46q0 -17 -11 -32q-18 -26 -39 -26q-6 0 -12 3q-27 10 -84 10q-111 0 -191 -98 t-80 -234q0 -138 80 -235t191 -97q132 0 217 143q14 150 14 266q0 112 -13 194q-7 41 -7 73q0 94 58 99h10q65 0 90 -87zM803 380q175 27 269 134q66 76 66 147q0 29 -11 57q-27 67 -89 67q-27 0 -59 -12q-111 -41 -156 -181q-29 -90 -29 -152q0 -34 9 -60z"/>
<glyph glyph-name="ccedilla" horiz-adv-x="867" unicode="ç" d="M424 -23q-201 12 -318 128q-122 119 -126 336q0 136 58 254q68 139 187 189q66 28 133 28q51 0 102 -16q167 -59 169 -227q0 -48 -20 -92q-38 -82 -104 -82q-95 3 -102 90q0 31 24 58q31 37 31 73q0 54 -52 73q-13 4 -29 4q-113 1 -185 -103t-72 -240q0 -108 56 -201 q98 -151 294 -160q158 7 258 109t128 267q6 47 46 47q36 -6 36 -54q-25 -186 -146 -331q-103 -124 -286 -146q-13 -33 -40 -86q52 -15 102 -67t49 -130q0 -78 -60 -129q-51 -42 -111 -42q-12 0 -25 2q-75 10 -103 58q-16 26 -16 51q0 21 11 42q22 41 63 41h6q44 -3 61 -47 q11 -30 33 -30q11 0 25 7q33 17 33 55q0 9 -2 20q-11 54 -47 87t-68 43q-19 5 -19 30q0 18 10 47q9 25 16 44z"/>
<glyph glyph-name="egrave" horiz-adv-x="812" unicode="è" d="M402 1121q27 -34 27 -58q0 -11 -5 -20q-14 -24 -37 -24q-41 1 -150 89t-109 158q0 15 6 28q16 38 61 38q55 -2 111 -83t96 -128zM188 867q85 44 164 44q52 0 101 -19q125 -47 139 -193q1 -16 1 -31q0 -129 -105 -234q-112 -113 -329 -158q14 -30 33 -60q77 -127 243 -127 q148 7 253 109t113 267q6 47 46 47q36 -6 36 -54q-5 -186 -131 -332t-340 -150q-190 0 -312 124t-125 341q0 58 10 112q33 204 203 314zM154 592q-29 -90 -29 -152q0 -34 9 -60q175 27 269 134q66 76 66 147q0 29 -11 57q-27 67 -89 67q-27 0 -59 -12q-111 -41 -156 -181z "/>
<glyph glyph-name="eacute" horiz-adv-x="812" unicode="é" d="M352 1249q56 81 111 83q45 0 61 -38q6 -13 6 -28q0 -70 -109 -158t-150 -89q-23 0 -37 24q-5 9 -5 20q0 24 27 58q40 47 96 128zM188 867q85 44 164 44q52 0 101 -19q125 -47 139 -193q1 -16 1 -31q0 -129 -105 -234q-112 -113 -329 -158q14 -30 33 -60q77 -127 243 -127 q148 7 253 109t113 267q6 47 46 47q36 -6 36 -54q-5 -186 -131 -332t-340 -150q-190 0 -312 124t-125 341q0 58 10 112q33 204 203 314zM154 592q-29 -90 -29 -152q0 -34 9 -60q175 27 269 134q66 76 66 147q0 29 -11 57q-27 67 -89 67q-27 0 -59 -12q-111 -41 -156 -181z "/>
<glyph glyph-name="ecircumflex" horiz-adv-x="812" unicode="ê" d="M279 1154q-33 -42 -62 -92q-28 -48 -76 -48h-2q-50 2 -64 52q-4 10 -4 20q0 37 44 64q55 35 103 83t56 68t20 33t36 16q4 1 9 1q18 0 30 -11q15 -12 19 -36t52 -72t103 -83q44 -27 44 -64q0 -10 -3 -20q-15 -50 -64 -52h-3q-48 0 -76 48q-29 51 -62 93t-50 63 q-17 -21 -50 -63zM188 867q85 44 164 44q52 0 101 -19q125 -47 139 -193q1 -16 1 -31q0 -129 -105 -234q-112 -113 -329 -158q14 -30 33 -60q77 -127 243 -127q148 7 253 109t113 267q6 47 46 47q36 -6 36 -54q-5 -186 -131 -332t-340 -150q-190 0 -312 124t-125 341 q0 58 10 112q33 204 203 314zM154 592q-29 -90 -29 -152q0 -34 9 -60q175 27 269 134q66 76 66 147q0 29 -11 57q-27 67 -89 67q-27 0 -59 -12q-111 -41 -156 -181z"/>
<glyph glyph-name="edieresis" horiz-adv-x="812" unicode="ë" d="M194 1204q19 10 36 10q12 0 24 -5q27 -13 34 -50q1 -10 1 -20q0 -27 -13 -56q-18 -39 -48 -58q-18 -12 -36 -12q-12 0 -24 6q-30 14 -37 51q-2 10 -2 20q0 27 13 56q19 39 52 58zM434 1204q19 10 36 10q12 0 24 -5q27 -13 34 -50q1 -10 1 -20q0 -27 -13 -56 q-18 -39 -48 -58q-18 -12 -36 -12q-12 0 -24 6q-30 14 -37 51q-2 10 -2 20q0 27 13 56q19 39 52 58zM188 867q85 44 164 44q52 0 101 -19q125 -47 139 -193q1 -16 1 -31q0 -129 -105 -234q-112 -113 -329 -158q14 -30 33 -60q77 -127 243 -127q148 7 253 109t113 267 q6 47 46 47q36 -6 36 -54q-5 -186 -131 -332t-340 -150q-190 0 -312 124t-125 341q0 58 10 112q33 204 203 314zM154 592q-29 -90 -29 -152q0 -34 9 -60q175 27 269 134q66 76 66 147q0 29 -11 57q-27 67 -89 67q-27 0 -59 -12q-111 -41 -156 -181z"/>
<glyph glyph-name="igrave" horiz-adv-x="484" unicode="ì" d="M129 1121q27 -34 27 -58q0 -11 -5 -20q-14 -24 -37 -24q-41 1 -150 89t-109 158q0 15 6 28q16 38 61 38q54 -2 110 -83t97 -128zM-32 548q0 101 -10 174q-3 21 -3 38q0 87 69 90q69 0 99 -81q16 -43 16 -139q0 -87 -13 -219q-4 -37 -4 -69q0 -212 156 -238q1 0 1 1 q71 -1 129 75t64 242q0 57 37 57q47 0 47 -59q0 -171 -78 -297t-220 -126q-133 1 -220 98q-66 83 -68 233t-2 220z"/>
<glyph glyph-name="iacute" horiz-adv-x="484" unicode="í" d="M78 1249q56 81 111 83q45 0 61 -38q6 -13 6 -28q0 -70 -109 -158t-150 -89q-23 0 -37 24q-5 9 -5 20q0 24 27 58q40 47 96 128zM-32 548q0 101 -10 174q-3 21 -3 38q0 87 69 90q69 0 99 -81q16 -43 16 -139q0 -87 -13 -219q-4 -37 -4 -69q0 -212 156 -238q1 0 1 1 q71 -1 129 75t64 242q0 57 37 57q47 0 47 -59q0 -171 -78 -297t-220 -126q-133 1 -220 98q-66 83 -68 233t-2 220z"/>
<glyph glyph-name="icircumflex" horiz-adv-x="484" unicode="î" d="M6 1154q-33 -42 -62 -92q-28 -48 -76 -48h-2q-50 2 -64 52q-4 10 -4 20q0 37 44 64q56 35 104 83t56 68t18 33q12 13 37 16q4 1 9 1q18 0 30 -11q14 -12 18 -36t53 -72q48 -48 103 -83q44 -27 44 -64q0 -10 -3 -20q-15 -50 -64 -52h-3q-48 0 -76 48q-29 51 -62 93t-50 63 q-17 -21 -50 -63zM-32 548q0 101 -10 174q-3 21 -3 38q0 87 69 90q69 0 99 -81q16 -43 16 -139q0 -87 -13 -219q-4 -37 -4 -69q0 -212 156 -238q1 0 1 1q71 -1 129 75t64 242q0 57 37 57q47 0 47 -59q0 -171 -78 -297t-220 -126q-133 1 -220 98q-66 83 -68 233t-2 220z"/>
<glyph glyph-name="idieresis" horiz-adv-x="484" unicode="ï" d="M-79 1204q19 10 36 10q12 0 24 -5q27 -13 34 -50q1 -10 1 -20q0 -27 -13 -56q-18 -39 -48 -58q-18 -12 -36 -12q-12 0 -24 6q-30 14 -37 51q-2 10 -2 20q0 27 13 56q19 39 52 58zM161 1204q19 10 36 10q12 0 24 -5q27 -13 34 -50q1 -10 1 -20q0 -27 -13 -56 q-18 -39 -48 -58q-18 -12 -36 -12q-12 0 -24 6q-30 14 -37 51q-2 10 -2 20q0 27 13 56q19 39 52 58zM-32 548q0 101 -10 174q-3 21 -3 38q0 87 69 90q69 0 99 -81q16 -43 16 -139q0 -87 -13 -219q-4 -37 -4 -69q0 -212 156 -238q1 0 1 1q71 -1 129 75t64 242q0 57 37 57 q47 0 47 -59q0 -171 -78 -297t-220 -126q-133 1 -220 98q-66 83 -68 233t-2 220z"/>
<glyph glyph-name="eth" horiz-adv-x="954" unicode="ð" d="M590 984q-99 247 -291 402l-178 -99q-15 -8 -30 -8q-10 0 -19 3q-26 8 -38 32q-8 15 -8 31q0 9 3 18q7 25 37 40l117 66q-46 31 -95 66q-47 32 -58 58q-3 7 -3 15q0 10 6 21q10 19 25 25q6 2 13 2q14 0 34 -9q109 -47 202 -109l192 108q20 10 38 10q9 0 17 -2 q25 -8 37 -32q8 -15 8 -31q0 -9 -2 -18q-8 -26 -32 -39l-146 -81q195 -170 299 -428q95 -239 95 -470v-41q-10 -252 -129 -388t-287 -136q-169 0 -288 136t-119 330t119 330t288 136q137 0 242 -92q-9 40 -22 80q-12 37 -27 74zM397 795q-118 1 -201 -99t-83 -241t83 -241 t201 -99q117 -1 200 99t83 241t-83 241t-200 99z"/>
<glyph glyph-name="ntilde" horiz-adv-x="1026" unicode="ñ" d="M451 1153q41 -33 62 -33q14 0 19 17q11 40 53 53q12 3 24 3q27 0 50 -20q19 -19 19 -49q0 -18 -7 -41q-20 -61 -89 -69q-9 -1 -17 -1q-63 0 -138 53q-48 33 -73 33q-18 0 -23 -19q-11 -46 -58 -54q-8 -1 -15 -1q-36 0 -53 32q-9 15 -9 34q0 27 19 61q30 56 98 57h2 q66 0 136 -56zM128 378q7 -50 55 -196q18 -58 18 -99q0 -61 -43 -83q-23 -11 -44 -11q-46 0 -85 52q-53 70 -53 294q0 23 1 49q2 99 2 172q0 120 -6 166q-3 21 -3 38q0 87 69 90q69 0 105 -113q123 152 311 174q177 0 254 -114q65 -98 65 -322q0 -38 -2 -79q-2 -34 -2 -64 q0 -223 87 -227q61 -1 109 75t54 242q0 57 37 57q47 0 47 -59q0 -171 -78 -297t-200 -126q-93 1 -154 92q-51 74 -51 292q0 46 2 99q1 19 1 36q0 266 -203 273q-229 -25 -293 -411z"/>
<glyph glyph-name="ograve" horiz-adv-x="1051" unicode="ò" d="M529 1121q27 -34 27 -58q0 -11 -5 -20q-14 -24 -37 -24q-41 1 -150 89t-109 158q0 15 6 28q16 38 61 38q54 -2 110 -83t97 -128zM966 424q65 41 79 102q16 49 48 49q38 0 38 -42q-1 -77 -88 -161t-244 -91q-121 -297 -396 -297q-175 0 -299 136t-123 327q-1 192 123 328 t299 136t299 -136t124 -328q0 -33 -4 -64q79 0 144 41zM670 284q-190 16 -317 103q-147 100 -173 246q-46 -83 -46 -189q0 -143 83 -244t200 -101q168 0 253 185zM697 387q4 27 4 57q0 144 -83 244t-201 100q-111 -6 -111 -99q5 -168 233 -263q79 -30 158 -39z"/>
<glyph glyph-name="oacute" horiz-adv-x="1051" unicode="ó" d="M480 1249q56 81 110 83q45 0 61 -38q6 -13 6 -28q0 -70 -109 -158t-150 -89q-23 0 -37 24q-5 9 -5 20q0 24 27 58q41 47 97 128zM966 424q65 41 79 102q16 49 48 49q38 0 38 -42q-1 -77 -88 -161t-244 -91q-121 -297 -396 -297q-175 0 -299 136t-123 327q-1 192 123 328 t299 136t299 -136t124 -328q0 -33 -4 -64q79 0 144 41zM670 284q-190 16 -317 103q-147 100 -173 246q-46 -83 -46 -189q0 -143 83 -244t200 -101q168 0 253 185zM697 387q4 27 4 57q0 144 -83 244t-201 100q-111 -6 -111 -99q5 -168 233 -263q79 -30 158 -39z"/>
<glyph glyph-name="ocircumflex" horiz-adv-x="1051" unicode="ô" d="M406 1154q-33 -42 -62 -92q-28 -48 -76 -48h-2q-50 2 -64 52q-4 10 -4 20q0 37 44 64q56 35 104 83t56 68t18 33q12 13 37 16q4 1 9 1q18 0 30 -11q14 -12 18 -36t53 -72q48 -48 103 -83q44 -27 44 -64q0 -10 -3 -20q-15 -50 -64 -52h-3q-48 0 -76 48q-29 51 -62 93 t-50 63q-17 -21 -50 -63zM966 424q65 41 79 102q16 49 48 49q38 0 38 -42q-1 -77 -88 -161t-244 -91q-121 -297 -396 -297q-175 0 -299 136t-123 327q-1 192 123 328t299 136t299 -136t124 -328q0 -33 -4 -64q79 0 144 41zM670 284q-190 16 -317 103q-147 100 -173 246 q-46 -83 -46 -189q0 -143 83 -244t200 -101q168 0 253 185zM697 387q4 27 4 57q0 144 -83 244t-201 100q-111 -6 -111 -99q5 -168 233 -263q79 -30 158 -39z"/>
<glyph glyph-name="otilde" horiz-adv-x="1051" unicode="õ" d="M470 1153q41 -33 62 -33q14 0 19 17q11 40 53 53q12 3 24 3q27 0 50 -20q19 -19 19 -49q0 -18 -7 -41q-20 -61 -89 -69q-9 -1 -17 -1q-63 0 -138 53q-48 33 -73 33q-18 0 -23 -19q-11 -46 -58 -54q-8 -1 -15 -1q-36 0 -53 32q-9 15 -9 34q0 27 19 61q30 56 98 57h2 q66 0 136 -56zM966 424q65 41 79 102q16 49 48 49q38 0 38 -42q-1 -77 -88 -161t-244 -91q-121 -297 -396 -297q-175 0 -299 136t-123 327q-1 192 123 328t299 136t299 -136t124 -328q0 -33 -4 -64q79 0 144 41zM670 284q-190 16 -317 103q-147 100 -173 246 q-46 -83 -46 -189q0 -143 83 -244t200 -101q168 0 253 185zM697 387q4 27 4 57q0 144 -83 244t-201 100q-111 -6 -111 -99q5 -168 233 -263q79 -30 158 -39z"/>
<glyph glyph-name="odieresis" horiz-adv-x="1051" unicode="ö" d="M321 1204q19 10 36 10q12 0 24 -5q27 -13 34 -50q1 -10 1 -20q0 -27 -13 -56q-18 -39 -48 -58q-18 -12 -36 -12q-12 0 -24 6q-30 14 -37 51q-2 10 -2 20q0 27 13 56q19 39 52 58zM561 1204q19 10 36 10q12 0 24 -5q27 -13 34 -50q1 -10 1 -20q0 -27 -13 -56 q-18 -39 -48 -58q-18 -12 -36 -12q-12 0 -24 6q-30 14 -37 51q-2 10 -2 20q0 27 13 56q19 39 52 58zM966 424q65 41 79 102q16 49 48 49q38 0 38 -42q-1 -77 -88 -161t-244 -91q-121 -297 -396 -297q-175 0 -299 136t-123 327q-1 192 123 328t299 136t299 -136t124 -328 q0 -33 -4 -64q79 0 144 41zM670 284q-190 16 -317 103q-147 100 -173 246q-46 -83 -46 -189q0 -143 83 -244t200 -101q168 0 253 185zM697 387q4 27 4 57q0 144 -83 244t-201 100q-111 -6 -111 -99q5 -168 233 -263q79 -30 158 -39z"/>
<glyph glyph-name="divide" d="M478 808q26 14 50 14q17 0 32 -7q37 -17 46 -67q3 -14 3 -28q0 -37 -18 -75q-25 -54 -66 -80q-25 -15 -48 -15q-17 0 -34 8q-40 18 -49 68q-3 14 -3 28q0 37 18 76q25 52 69 78zM478 256q26 14 50 14q17 0 32 -7q37 -17 46 -67q3 -14 3 -28q0 -37 -18 -75 q-25 -54 -66 -80q-25 -15 -48 -15q-17 0 -34 8q-40 18 -49 68q-3 14 -3 28q0 37 18 76q25 52 69 78zM467 472q35 -3 66 -3q103 0 149 28q60 35 104 35t65 -24q17 -20 17 -53q0 -7 -1 -15q-5 -44 -59 -74q-36 -20 -145 -20q-55 0 -206 1h-12q-142 0 -185 -13 q-62 -18 -104 -18t-58 21t-16 54q0 32 28 55t98 33q17 3 39 3q65 0 220 -10z" unicode="÷"/>
<glyph glyph-name="oslash" horiz-adv-x="1031" unicode="ø" d="M438 479q1 4 3 8q54 147 90 278q-48 23 -105 23q-21 0 -41 -3q-26 -10 -46 -30q-24 -23 -24 -66q0 -36 17 -87q24 -71 106 -123zM493 322q-45 -129 -70 -223h3q118 0 201 101q32 39 52 84q-102 9 -186 38zM313 126q43 124 84 239q-18 11 -35 22q-147 100 -173 246 q-46 -83 -46 -189q0 -143 83 -244q40 -48 87 -74zM671 815q20 -19 40 -40q124 -136 124 -328q0 -33 -4 -64q6 0 13 1v2h4q42 0 90 36q57 43 76 104q16 51 46 51q6 0 12 -2q28 -8 28 -42q0 -14 -5 -33q-16 -64 -87 -136q-53 -55 -178 -80l-1 -2q-10 0 -21 -1 q-31 -88 -97 -161q-124 -136 -299 -136h-16q-2 -13 -4 -25q-19 -139 -19 -241q0 -103 -57 -113q-7 -1 -14 -1q-48 0 -80 66q-11 22 -11 60q0 91 61 274q1 2 1 4q-88 33 -159 112q-124 136 -124 327q0 192 124 328t298 136q80 0 150 -29l2 10q24 102 24 168q0 53 -15 82 q-12 24 -12 46q0 39 37 71q29 25 59 25q31 0 64 -26q59 -47 59 -97q0 -5 -1 -10q-7 -56 -77 -249q-15 -41 -31 -87zM625 690q-41 -114 -93 -258l16 -6q79 -30 158 -39q4 27 4 57q0 143 -83 244z"/>
<glyph glyph-name="ugrave" horiz-adv-x="1074" unicode="ù" d="M421 1121q27 -34 27 -58q0 -11 -5 -20q-14 -24 -37 -24q-41 1 -150 89t-109 158q0 15 6 28q16 38 61 38q54 -2 110 -83t97 -128zM887 105q71 1 119 71t56 186q8 97 56 97q46 0 46 -89q0 -35 -9 -84q-28 -147 -107 -218t-160 -71h-2q-116 0 -191 80q-28 30 -54 85l-32 -38 q-1 1 -1 2q-95 -107 -192 -130q-50 -12 -96 -12q-73 0 -139 30q-109 48 -157 171q-49 123 -51 261t-28 254q-14 43 -14 73q0 50 38 67q22 10 43 10q37 0 69 -32q49 -51 55 -158q2 -30 2 -60q0 -80 -12 -164q-4 -32 -4 -62q0 -79 31 -142q60 -120 190 -120l1 -1 q129 0 193 111q19 32 33 94t13 104q0 129 -18 247q-6 37 -6 67q0 94 58 111q17 5 32 5q53 0 80 -62q23 -55 23 -135q0 -37 -5 -79q-8 -56 -8 -124q0 -77 10 -170q18 -175 138 -175z"/>
<glyph glyph-name="uacute" horiz-adv-x="1074" unicode="ú" d="M370 1249q56 81 111 83q45 0 61 -38q6 -13 6 -28q0 -70 -109 -158t-150 -89q-23 0 -37 24q-5 9 -5 20q0 24 27 58q40 47 96 128zM887 105q71 1 119 71t56 186q8 97 56 97q46 0 46 -89q0 -35 -9 -84q-28 -147 -107 -218t-160 -71h-2q-116 0 -191 80q-28 30 -54 85l-32 -38 q-1 1 -1 2q-95 -107 -192 -130q-50 -12 -96 -12q-73 0 -139 30q-109 48 -157 171q-49 123 -51 261t-28 254q-14 43 -14 73q0 50 38 67q22 10 43 10q37 0 69 -32q49 -51 55 -158q2 -30 2 -60q0 -80 -12 -164q-4 -32 -4 -62q0 -79 31 -142q60 -120 190 -120l1 -1 q129 0 193 111q19 32 33 94t13 104q0 129 -18 247q-6 37 -6 67q0 94 58 111q17 5 32 5q53 0 80 -62q23 -55 23 -135q0 -37 -5 -79q-8 -56 -8 -124q0 -77 10 -170q18 -175 138 -175z"/>
<glyph glyph-name="ucircumflex" horiz-adv-x="1074" unicode="û" d="M298 1154q-33 -42 -62 -92q-28 -48 -76 -48h-2q-50 2 -64 52q-4 10 -4 20q0 37 44 64q56 35 104 83t56 68t18 33q12 13 37 16q4 1 9 1q18 0 30 -11q14 -12 18 -36t53 -72q48 -48 103 -83q44 -27 44 -64q0 -10 -3 -20q-15 -50 -64 -52h-3q-48 0 -76 48q-29 51 -62 93 t-50 63q-17 -21 -50 -63zM887 105q71 1 119 71t56 186q8 97 56 97q46 0 46 -89q0 -35 -9 -84q-28 -147 -107 -218t-160 -71h-2q-116 0 -191 80q-28 30 -54 85l-32 -38q-1 1 -1 2q-95 -107 -192 -130q-50 -12 -96 -12q-73 0 -139 30q-109 48 -157 171q-49 123 -51 261 t-28 254q-14 43 -14 73q0 50 38 67q22 10 43 10q37 0 69 -32q49 -51 55 -158q2 -30 2 -60q0 -80 -12 -164q-4 -32 -4 -62q0 -79 31 -142q60 -120 190 -120l1 -1q129 0 193 111q19 32 33 94t13 104q0 129 -18 247q-6 37 -6 67q0 94 58 111q17 5 32 5q53 0 80 -62 q23 -55 23 -135q0 -37 -5 -79q-8 -56 -8 -124q0 -77 10 -170q18 -175 138 -175z"/>
<glyph glyph-name="udieresis" horiz-adv-x="1074" unicode="ü" d="M213 1204q19 10 36 10q12 0 24 -5q27 -13 34 -50q1 -10 1 -20q0 -27 -13 -56q-18 -39 -48 -58q-18 -12 -36 -12q-12 0 -24 6q-30 14 -37 51q-2 10 -2 20q0 27 13 56q19 39 52 58zM453 1204q19 10 36 10q12 0 24 -5q27 -13 34 -50q1 -10 1 -20q0 -27 -13 -56 q-18 -39 -48 -58q-18 -12 -36 -12q-12 0 -24 6q-30 14 -37 51q-2 10 -2 20q0 27 13 56q19 39 52 58zM887 105q71 1 119 71t56 186q8 97 56 97q46 0 46 -89q0 -35 -9 -84q-28 -147 -107 -218t-160 -71h-2q-116 0 -191 80q-28 30 -54 85l-32 -38q-1 1 -1 2q-95 -107 -192 -130 q-50 -12 -96 -12q-73 0 -139 30q-109 48 -157 171q-49 123 -51 261t-28 254q-14 43 -14 73q0 50 38 67q22 10 43 10q37 0 69 -32q49 -51 55 -158q2 -30 2 -60q0 -80 -12 -164q-4 -32 -4 -62q0 -79 31 -142q60 -120 190 -120l1 -1q129 0 193 111q19 32 33 94t13 104 q0 129 -18 247q-6 37 -6 67q0 94 58 111q17 5 32 5q53 0 80 -62q23 -55 23 -135q0 -37 -5 -79q-8 -56 -8 -124q0 -77 10 -170q18 -175 138 -175z"/>
<glyph glyph-name="yacute" horiz-adv-x="1020" unicode="ý" d="M344 1249q56 81 110 83q45 0 61 -38q6 -13 6 -28q0 -70 -109 -158t-150 -89q-23 0 -37 24q-5 9 -5 20q0 24 27 58q41 47 97 128zM608 126q-95 -107 -192 -130q-50 -12 -96 -12q-73 0 -139 30q-109 48 -157 171q-49 123 -51 261t-28 254q-14 43 -14 73q0 50 38 67 q22 10 43 10q37 0 69 -32q49 -51 55 -158q2 -30 2 -60q0 -80 -12 -164q-4 -32 -4 -62q0 -79 31 -142q60 -120 190 -120l1 -1q129 0 193 111q19 32 33 94t13 104q0 129 -18 247q-6 37 -6 67q0 94 58 111q17 5 32 5q53 0 80 -62q23 -55 23 -135q0 -37 -5 -79q-11 -84 -15 -197 q0 -162 45 -287q108 64 173 145q66 81 68 185t42 105q50 0 50 -80q0 -133 -62 -243t-219 -211q159 -297 159 -496q-2 -412 -383 -418q-413 4 -414 321q1 323 458 609q-29 57 -35 87t-6 32zM309 -605q1 -203 275 -203q255 9 264 303q0 176 -142 412q-390 -252 -397 -512z"/>
<glyph glyph-name="thorn" horiz-adv-x="1100" unicode="þ" d="M0 449l-7 -3q-1 4 -2 9q-37 188 -54 483q-4 73 -4 144q0 213 39 403q51 251 152 279q16 4 32 4q82 0 150 -122q63 -116 63 -355q0 -62 -4 -133q-14 -157 -52 -293q86 46 183 46q175 0 299 -136t124 -328q0 -83 -24 -156q8 -1 16 -1q71 0 124 49q67 61 68 177v6 q0 57 34 60h2q33 0 39 -64v-7q0 -171 -105 -256q-85 -69 -191 -69q-17 0 -35 2q-23 -36 -52 -68q-124 -136 -299 -136q-43 0 -111 17t-107 82q-25 41 -25 89q0 29 9 60q32 123 194 151q24 4 49 4q109 0 255 -69q14 39 14 110q0 23 -2 51q-6 108 -94 209t-211 101t-210 -101 l-14 -18q-22 -47 -47 -91q-1 -3 -2 -5q-15 -119 -15 -216v-22q13 -143 54 -327q46 -205 70 -450q10 -101 10 -177q0 -111 -20 -172q-28 -84 -84 -84q-14 0 -29 6q-61 20 -61 86q0 19 5 42q19 84 19 267q0 40 -1 85q-5 249 -78 522q-46 170 -64 315zM727 214q-136 68 -233 68 h-8q-112 -5 -129 -70q-5 -20 -5 -37q0 -30 17 -51q27 -32 81 -46q15 -4 34 -4q27 0 62 7q72 7 117 49t64 84zM110 641q168 300 168 590q0 39 -3 77q-25 320 -93 320h-3q-71 -7 -91 -328q-7 -104 -7 -210q0 -221 29 -449z"/>
<glyph glyph-name="OE" horiz-adv-x="2317" unicode="Œ" d="M1342 1927q-108 28 -264 28h-31q-287 -5 -513 -221t-286 -658q-14 -102 -14 -199q0 -322 156 -584q202 -341 543 -405q91 -17 175 -17q171 0 313 72q-21 59 -21 121q0 19 2 38q12 145 157 274q26 24 54 44q-305 67 -475 292q-180 238 -180 516v13q4 285 188 504 q91 108 196 182zM1477 -165q-164 -100 -376 -100q-121 0 -258 33q-431 102 -612 494q-137 297 -137 626q0 105 14 213q58 447 322 706t607 270q26 1 51 1q236 0 393 -69q44 20 90 36q203 68 424 68q41 0 83 -2q266 -15 454 -101t276 -226q77 -124 77 -259q0 -19 -1 -39 q-14 -156 -114 -270t-291 -152q-63 -13 -124 -13q-125 0 -244 53q-178 77 -230 225q-26 73 -26 137q0 67 28 125q54 113 143 128q17 2 34 2q64 0 105 -45q37 -43 37 -88q0 -15 -4 -31q-18 -61 -79 -104q-41 -29 -41 -81q0 -26 11 -59q32 -96 207 -122q44 -6 84 -6 q122 0 217 59q125 78 148 221q4 26 4 52q0 114 -81 217q-98 125 -248 181t-363 67q-31 2 -61 2q-182 0 -359 -57q-207 -66 -363 -250t-164 -444q-1 -13 -1 -25q0 -245 162 -425q170 -189 368 -231q78 -17 135 -17q86 0 121 39q53 59 108 59h9q59 -5 69 -73q1 -10 1 -18 q0 -56 -54 -86q-69 -41 -191 -48q-87 -22 -176 -110q-113 -111 -113 -228q0 -8 1 -16q8 -125 117 -199q86 -60 184 -60q26 0 52 5q127 19 167 59t85 70q30 19 61 19q17 0 34 -5q50 -16 66 -70q3 -12 3 -23q0 -41 -46 -75q-58 -44 -195 -94q-79 -29 -173 -29q-70 0 -149 17 q-184 37 -275 163z"/>
<glyph glyph-name="oe" horiz-adv-x="1531" unicode="œ" d="M770 199q-25 -41 -59 -79q-124 -136 -299 -136q-174 0 -298 136t-124 327q0 192 124 328t298 136q175 0 299 -136q35 -39 60 -82q55 105 161 174q85 44 164 44q52 0 101 -19q125 -47 139 -193q1 -16 1 -31q0 -129 -105 -234q-118 -119 -311 -162q30 -50 75 -87 q86 -68 191 -72h11q97 0 176 67q83 70 108 148t35 136q9 53 49 53h6q34 -3 34 -57q0 -16 -2 -35q-13 -87 -64 -193q-52 -106 -130 -170t-216 -75q-26 -3 -50 -3q-110 0 -204 46q-94 45 -153 141q-9 14 -17 28zM679 284q-190 16 -317 103q-147 100 -173 246q-46 -83 -46 -189 q0 -143 83 -244t200 -101q118 0 201 101q32 39 52 84zM706 387q4 27 4 57q0 144 -83 244t-201 100q-21 0 -41 -3q-26 -10 -46 -30q-24 -23 -24 -66q0 -36 17 -87q38 -111 216 -176q79 -30 158 -39zM878 380q175 27 269 134q66 76 66 147q0 29 -11 57q-27 67 -89 67 q-27 0 -59 -12q-111 -41 -156 -181q-29 -90 -29 -152q0 -34 9 -60z"/>
<glyph glyph-name="Scaron" horiz-adv-x="1392" unicode="Š" d="M1046 2263q17 21 50 63t62 93q28 48 76 48h3q49 -2 64 -52q3 -10 3 -20q0 -37 -44 -64q-55 -35 -103 -83q-49 -48 -53 -72t-18 -36q-12 -11 -30 -11q-5 0 -9 1q-25 3 -37 16t-18 33q-8 20 -56 68t-104 83q-44 27 -44 64q0 10 4 20q14 50 64 52h2q48 0 76 -48 q29 -50 62 -92t50 -63zM202 1270q6 -266 270 -478t556 -402t292 -413q-7 -148 -93 -234t-250 -90q-275 9 -312 192q2 102 81 102q64 0 102 -82t146 -90q75 -1 131 55t56 143q-7 175 -251 331t-541 394t-308 565q0 392 304 603t749 211q585 -8 794 -277q83 -121 83 -275 q-1 -194 -155 -321t-372 -127t-372 117q-128 128 -128 272q0 67 28 125q54 123 177 130q64 0 105 -45q37 -43 37 -88q-2 -82 -83 -135q-41 -29 -41 -81q26 -179 295 -179q158 0 268 93t110 239q0 120 -64 211q-171 214 -675 223q-411 0 -675 -180t-264 -509z"/>
<glyph glyph-name="scaron" horiz-adv-x="744" unicode="š" d="M208 1147q17 21 50 63t62 93q28 48 76 48h3q49 -2 64 -52q3 -10 3 -20q0 -37 -44 -64q-55 -35 -103 -83q-49 -48 -53 -72t-18 -36q-12 -11 -30 -11q-5 0 -9 1q-25 3 -37 16t-18 33q-8 20 -56 68t-104 83q-44 27 -44 64q0 10 4 20q14 50 64 52h2q48 0 76 -48 q29 -50 62 -92t50 -63zM564 333q133 0 155 86t68 89q28 0 28 -50q-28 -234 -233 -245q-31 -245 -265 -245q-198 24 -208 203q0 130 121 190q51 26 111 26q20 0 40 -3q-50 39 -136 81q-236 113 -244 252q0 96 54 141q50 42 110 42q90 -2 130 -70q14 -28 14 -52q0 -26 -17 -46 q-29 -35 -65 -35q-52 0 -68 42q-10 27 -29 27q-25 0 -25 -25q9 -95 215 -185t244 -223zM213 181q9 -90 111 -95q105 0 113 123q0 24 -8 49q-50 24 -93 24q-123 -5 -123 -101z"/>
<glyph glyph-name="Ydieresis" horiz-adv-x="2438" unicode="Ÿ" d="M1155 2320q19 10 36 10q12 0 24 -5q27 -13 34 -50q1 -10 1 -20q0 -27 -13 -56q-18 -39 -48 -58q-18 -12 -36 -12q-12 0 -24 6q-30 14 -37 51q-2 10 -2 20q0 27 13 56q19 39 52 58zM1395 2320q19 10 36 10q12 0 24 -5q27 -13 34 -50q1 -10 1 -20q0 -27 -13 -56 q-18 -39 -48 -58q-18 -12 -36 -12q-12 0 -24 6q-30 14 -37 51q-2 10 -2 20q0 27 13 56q19 39 52 58zM1714 53q-158 -109 -331 -109q-35 0 -71 5q-212 27 -349 221q-127 178 -127 656q0 20 1 40v147q0 397 -26 585q-31 220 -152 300q-72 47 -138 47q-45 0 -87 -22 q-103 -55 -104 -162v-3q0 -67 50 -118q50 -54 58 -86t9 -52q0 -66 -48 -114t-115 -48q-86 0 -150 62t-74 202q-1 14 -1 28q0 128 83 263q91 150 286 185q38 6 75 6q149 0 271 -112q152 -141 174 -409q17 -211 17 -535q0 -88 -1 -185v-42q0 -416 116 -568q122 -159 292 -161 q3 -1 7 -1q165 0 298 110q136 111 215 282q37 112 49 181q-2 24 -3 45l-2 23q0 192 122 192q56 0 56 -86q0 -40 -12 -98q-15 -73 -15 -173q0 -174 58 -497q126 59 195 156q78 108 83 212t46 105q51 0 51 -86q-11 -147 -83 -281q-71 -134 -271 -244q10 -99 10 -188 q0 -217 -59 -378q-147 -367 -577 -369q-118 0 -231 44q-267 117 -271 355q0 144 113 254q141 138 441 223t441 143q-39 219 -61 372q-111 -216 -258 -317zM1268 -428q-94 -85 -94 -188q4 -145 202 -245q83 -31 173 -31q331 2 449 291q40 119 40 258q0 94 -18 196 q-199 -78 -417 -127t-335 -154z"/>
<glyph glyph-name="circumflex" horiz-adv-x="816" unicode="ˆ" d="M358 1154q-33 -42 -62 -92q-28 -48 -76 -48h-2q-50 2 -64 52q-4 10 -4 20q0 37 44 64q56 35 104 83t56 68t18 33q12 13 37 16q4 1 9 1q18 0 30 -11q14 -12 18 -36t53 -72q48 -48 103 -83q44 -27 44 -64q0 -10 -3 -20q-15 -50 -64 -52h-3q-48 0 -76 48q-29 51 -62 93 t-50 63q-17 -21 -50 -63z"/>
<glyph glyph-name="tilde" horiz-adv-x="782" unicode="˜" d="M405 1153q41 -33 62 -33q14 0 19 17q11 40 53 53q12 3 24 3q27 0 50 -20q19 -19 19 -49q0 -18 -7 -41q-20 -61 -89 -69q-9 -1 -17 -1q-63 0 -138 53q-48 33 -73 33q-18 0 -23 -19q-11 -46 -58 -54q-8 -1 -15 -1q-36 0 -53 32q-9 15 -9 34q0 27 19 61q30 56 98 57h2 q66 0 136 -56z"/>
<glyph glyph-name="Alpha" horiz-adv-x="2858" unicode="Α" d="M741 -728q305 2 531 314t389 1137q-67 14 -134 14q-69 0 -138 -15q-135 -30 -197 -141t-164 -111q-46 0 -78 34t-31 81q10 123 145 193t341 77q56 2 103 2q124 0 181 -15q75 312 136 568t169 458q108 201 242 201q36 0 70 -41q16 -21 16 -43q0 -21 -17 -44 q-31 -55 -39 -142q0 -65 36 -385t196 -794q158 -476 243 -564t153 -120q64 -30 64 -89q-5 -72 -69 -92q-28 -9 -56 -9q-37 0 -73 16q-64 26 -106 85t-243 407q-202 348 -631 436q-174 -877 -436 -1214t-628 -337q-245 11 -415 157q-179 154 -187 382q12 246 168 384t370 146 q309 -3 434 -211q51 -88 51 -180q-1 -162 -104 -240q-44 -25 -89 -25q-54 0 -94 40t-40 95q0 86 78 123l2 2q39 39 39 95q-1 51 -65 115t-216 64q-160 0 -274 -113t-114 -284q0 -177 129 -297q122 -115 352 -120zM1807 812q321 -72 600 -379q-260 713 -260 1415 q-137 -150 -205 -439t-135 -597z"/>
<glyph glyph-name="Beta" horiz-adv-x="2180" unicode="Β" d="M548 1819q-49 35 -147 40q-101 0 -130 -90q-31 -98 -108 -98q-99 0 -99 107q0 63 60 124q74 76 235 77q136 0 268 -92q232 200 538 200q201 0 360 -110q271 -185 271 -586q0 -300 -163 -495q388 -72 388 -522q0 -132 -55 -284q-178 -403 -628 -403q-186 0 -362 85 q-108 -74 -275 -74q-584 8 -584 989q0 662 431 1132zM1466 901q214 207 214 480q0 222 -122 389q-140 190 -398 190q-287 -14 -452 -159q507 -506 512 -1297q0 -445 -149 -631q74 -72 310 -72q168 0 300 100q179 136 201 477q0 215 -128 319q-85 61 -149 61q-46 0 -81 -31 q-83 -75 -156 -75q-71 2 -71 76q0 73 101 143q30 20 68 30zM705 59q-14 49 -14 85q0 48 24 74q28 31 71 31q78 0 84 -96t84 -201q119 136 119 485q0 845 -436 1267q-372 -307 -373 -1056q1 -789 489 -789q49 0 90 13q-106 73 -138 187z"/>
<glyph glyph-name="Gamma" horiz-adv-x="1593" unicode="Γ" d="M317 1396q-112 -94 -177 -94q-53 0 -74 63q-6 17 -6 33q0 110 293 132q72 208 263 380q267 223 637 237q415 0 445 -304q0 -207 -218 -327t-637 -119q-135 2 -281 2q-58 0 -111 -1q-25 -118 -25 -269q0 -148 24 -327q60 -453 84 -663q10 -86 10 -155q0 -98 -20 -159 q-28 -84 -84 -84q-14 0 -29 6q-61 20 -61 86q0 19 5 42q19 84 19 243q0 35 -1 74q-5 214 -52 611q-24 200 -24 353q0 139 20 240zM500 1530q96 0 290 -3q436 1 594 99t158 209q-9 178 -294 178q-350 -36 -566 -231q-123 -122 -182 -252z"/>
<glyph glyph-name="uni0394" horiz-adv-x="1732" unicode="Δ" d="M1547 -176q-10 11 -18 23q-31 43 -269 689t-239 1312q-137 -150 -204 -439q-65 -275 -201 -935q-56 -274 -159 -601q168 -98 466 -105q70 -2 133 -2q338 0 459 46zM337 -26q114 298 168 553q133 627 194 883t169 458q108 201 242 201q36 0 70 -41q16 -21 16 -43 q0 -21 -17 -44q-31 -55 -39 -142q0 -65 36 -385t196 -794q158 -476 243 -564t153 -120q64 -30 64 -89q-2 -22 -9 -40v-7q0 -81 -127 -115q-145 -39 -431 -59q-99 -8 -200 -8q-191 0 -389 26q-303 39 -432 119q-91 55 -91 127q0 30 16 63q25 41 70 53q14 4 29 4q28 0 54 -16 q7 -10 15 -20z"/>
<glyph glyph-name="Epsilon" horiz-adv-x="1413" unicode="Ε" d="M1092 1984q-366 -3 -622 -217t-265 -559q0 -245 162 -425q230 -239 503 -248q86 0 121 39q53 59 108 59q69 -5 79 -81q0 -66 -54 -96q-69 -41 -191 -48q-87 -22 -176 -110q-113 -111 -113 -228q9 -241 292 -275q129 0 199 52t115 82q30 19 71 19q93 -1 93 -88 q0 -92 -130 -150t-284 -58q-273 4 -424 180q-80 110 -80 235q14 220 213 353q-305 67 -475 292q-180 238 -180 529q4 335 278 593t740 279q318 -1 531 -95t301 -234q77 -124 77 -259q-3 -217 -139 -345t-391 -129q-492 20 -500 395q12 268 205 275q64 0 105 -45 q37 -43 37 -88q0 -82 -83 -135q-41 -29 -41 -81q0 -26 11 -59q72 -126 291 -128q142 1 252 89t117 243q0 114 -81 217q-98 125 -268 186t-404 64z"/>
<glyph glyph-name="Zeta" horiz-adv-x="1473" unicode="Ζ" d="M745 150q-106 -264 -253 -348q-98 -57 -177 -57q-46 0 -85 19q-109 51 -119 188q0 148 127 253q127 103 407 103q405 1058 483 1288q-134 0 -292 163q-178 186 -328 186q-60 0 -108 -35q-84 -62 -84 -162q2 -61 21 -102q36 -41 36 -96q-1 -61 -43 -104t-103 -43t-103 43 q-48 48 -52 171q12 325 313 433q70 17 133 17q185 0 386 -179q125 -112 209 -112q51 0 87 41q95 108 156 109q96 0 104 -92q0 -39 -37 -71q-53 -46 -126 -160t-515 -1334q261 -61 457 -375q221 -356 407 -624t459 -269q246 3 370 180q65 111 65 229q0 126 -76 228t-230 107 q-147 0 -155 -119q0 -39 38 -66q61 -44 65 -95q0 -55 -34 -89q-29 -30 -96 -30q-177 15 -177 207q13 179 165 276q81 44 176 44q191 -5 319 -128t130 -328q0 -141 -73 -280q-152 -238 -479 -246q-335 -1 -549 281t-415 611q-188 308 -404 367zM603 194q-189 -3 -293 -88 q-76 -63 -76 -126q0 -96 78 -96q36 0 88 31q115 69 203 279z"/>
<glyph glyph-name="Eta" horiz-adv-x="2341" unicode="Η" d="M168 1210q-95 120 -95 284q5 260 200 442q135 115 319 115q296 -8 494 -294t200 -846q0 -52 -2 -108q163 61 384 155q-17 157 -17 336q0 762 336 785q262 0 264 -451q-11 -440 -440 -714q121 -568 243 -744t195 -209q66 -32 66 -113q-8 -110 -112 -111q-103 0 -251 237 q-146 232 -269 870q-221 -112 -404 -181q-32 -490 -205 -756t-482 -266q-341 30 -379 366q0 62 20 127q56 183 245 321t653 292q5 89 5 170q-9 473 -170 732t-373 264q-298 -9 -359 -338q0 -104 81 -152q45 -26 100 -26q80 16 159 16q76 0 129 -53t53 -128q0 -76 -73 -129 q-67 -48 -208 -48q-189 15 -307 155zM1793 1026q316 216 334 604q-4 302 -158 302q-162 -1 -194 -642q0 -133 18 -264zM1121 609q-317 -85 -539 -225t-228 -341q0 -245 276 -256q234 3 385 331q77 195 106 491z"/>
<glyph glyph-name="Theta" horiz-adv-x="2321" unicode="Θ" d="M1245 783q77 -9 136 -9q82 0 133 17q88 30 157 44q14 2 26 2q47 0 63 -41q8 -21 8 -42q0 -29 -16 -55q-29 -45 -125 -56q-39 -4 -91 -4q-77 0 -183 10q-73 6 -136 6q-92 0 -165 -14q-124 -24 -193 -37q-14 -3 -26 -3q-47 0 -63 41q-8 21 -8 42q0 29 17 55q28 45 157 56 q41 3 88 3q98 0 221 -15zM2025 736q0 237 -94 418q-116 -132 -322 -137q-348 13 -368 330q0 66 35 132q55 103 160 103q145 0 151 -134q0 -68 -80 -115q-49 -33 -49 -78q21 -97 185 -100q119 0 211 94q-71 53 -73 131q10 72 76 80q38 0 63 -17q1 17 1 33q0 102 -48 197 q-162 279 -586 282q-351 -5 -597 -281t-260 -797q10 -521 234 -763t649 -244h6q649 0 706 866zM1306 -265q-508 15 -757 319t-259 834q12 560 296 869t709 320q569 -2 722 -399q36 -107 36 -200q0 -105 -33 -174q85 -160 108 -490q-5 -1028 -822 -1079z"/>
<glyph glyph-name="Iota" horiz-adv-x="1361" unicode="Ι" d="M949 1838q-97 -50 -357 -176t-355 -314q-42 -84 -42 -201q3 -164 153 -255q68 -32 131 -32q185 4 188 127q0 46 -46 63q-86 50 -95 139q0 38 24 74q41 60 133 63q93 0 152 -97q39 -67 39 -142q-9 -175 -151 -278q-98 -73 -248 -73q-153 4 -275 114t-131 304q0 146 64 254 q111 196 459 372t384 225q40 55 82 55q16 0 31 -7q22 11 44 11q70 -4 75 -74q0 -51 -66 -121q-101 -104 -103 -318q1 -279 55 -594t54 -636q-8 -373 -163 -522t-393 -149q-245 1 -383 160q-46 51 -46 118q19 89 103 90q32 0 61 -19q45 -30 105 -110t204 -88q172 0 275 137 t110 447q0 205 -53 553t-53 631q1 166 34 269z"/>
<glyph glyph-name="Kappa" horiz-adv-x="2435" unicode="Κ" d="M1286 903q115 24 178 25q242 218 373 543q202 580 512 610q108 0 112 -94q0 -24 -16 -48q-44 -65 -192 -71t-334 -516q-103 -281 -285 -455q174 -59 259 -204q88 -151 200 -519t397 -376q98 0 136 70t102 69q69 -10 70 -77q0 -35 -30 -79q-86 -109 -248 -110 q-416 6 -558 443t-281 573q-89 87 -155 87q-139 -78 -247 -115q-33 -487 -205 -752q-173 -266 -482 -266q-341 30 -379 366q0 62 20 127q56 183 245 321t653 292q5 89 5 170q-9 473 -170 732t-373 264q-298 -9 -359 -338q0 -104 81 -152q45 -26 100 -26q80 16 159 16 q76 0 129 -53t53 -128q0 -76 -73 -129q-67 -48 -208 -48q-189 15 -307 155q-95 120 -95 284q5 260 200 442q135 115 319 115q296 -8 494 -294t200 -846v-8zM1121 609q-317 -85 -539 -225t-228 -341q0 -245 276 -256q234 3 385 331q77 195 106 491z"/>
<glyph glyph-name="Lambda" horiz-adv-x="2858" unicode="Λ" d="M1825 1410q61 256 169 458q108 201 242 201q36 0 70 -41q16 -21 16 -43q0 -21 -17 -44q-31 -55 -39 -142q0 -65 36 -385t196 -794q158 -476 243 -564t153 -120q64 -30 64 -89q-5 -72 -69 -92q-28 -9 -56 -9q-37 0 -73 16q-64 26 -105 85q-31 43 -269 689t-239 1312 q-137 -150 -204 -439q-65 -275 -201 -935t-398 -998q-262 -337 -628 -337q-245 11 -415 157q-179 154 -187 382q12 246 168 384t370 146q309 -3 434 -211q51 -88 51 -180q-1 -162 -104 -240q-44 -25 -89 -25q-54 0 -94 40t-40 95q0 86 78 123l2 2q39 39 39 95q-1 51 -65 115 t-216 64q-160 0 -274 -113t-114 -284q0 -177 129 -297q122 -115 352 -120q305 2 531 314t358 940q134 628 195 884z"/>
<glyph glyph-name="Mu" horiz-adv-x="3101" unicode="Μ" d="M1270 2062q327 -4 514 -379q137 365 461 367q245 0 396 -272q130 -235 130 -692q0 -108 -7 -228q-10 -162 -10 -297q0 -388 82 -547q109 -216 274 -216q90 5 128 72t102 67q69 -5 70 -77q0 -35 -30 -79q-86 -109 -251 -110q-265 13 -397 264q-100 188 -100 568 q0 123 11 267q12 159 12 296q0 367 -84 577q-115 287 -343 287q-263 -3 -367 -433q-23 -119 -23 -209q19 -184 53 -260q17 -40 17 -98q-3 -108 -110 -108t-114 232q0 74 11 274q0 203 -65 362q-131 236 -381 240q-174 0 -315 -136q490 -536 495 -1300q0 -796 -499 -796 q-554 8 -583 846q0 629 432 1227q-80 54 -158 58q-101 0 -130 -90q-31 -98 -108 -98q-99 0 -99 107q0 63 60 124q74 76 235 77q134 0 263 -89q214 202 428 202zM866 1694q-367 -483 -367 -1188q15 -637 424 -677q379 0 379 668q-49 775 -436 1197z"/>
<glyph glyph-name="Nu" horiz-adv-x="2726" unicode="Ν" d="M686 -728q246 2 447 195q291 346 314 1087q-7 531 -73 785t-136 342q-30 38 -30 69q10 79 113 85q49 0 88 -48q53 -65 225 -395t734 -1202q-96 416 -96 730q5 584 313 906q305 319 760 319q209 -4 343 -59q176 -73 253 -215q68 -126 68 -264q-2 -177 -125 -310t-294 -138 q-125 0 -206 45q-162 86 -165 265q3 175 145 210q20 4 38 4q46 0 80 -26q44 -35 44 -94q-4 -57 -65 -100q-38 -28 -38 -67q0 -23 14 -50q34 -69 141 -69q134 5 220 97t86 240q0 115 -60 213q-69 111 -221 169q-106 39 -258 43q-429 -17 -681 -303q-256 -289 -270 -864 q0 -236 53 -506t147 -412q64 -81 64 -132q-10 -69 -102 -79q-49 0 -88 48q-48 59 -208 301t-750 1249q83 -333 83 -823q-43 -816 -392 -1170q-242 -209 -539 -209q-245 11 -415 157q-179 154 -187 382q12 246 168 384t370 146q309 -3 434 -211q51 -88 51 -180 q-1 -162 -104 -240q-44 -25 -89 -25q-54 0 -94 40t-40 95q0 86 78 123l2 2q39 39 39 95q-1 51 -65 115t-216 64q-160 0 -274 -113t-114 -284q0 -177 129 -297q122 -114 351 -120z"/>
<glyph glyph-name="Xi" horiz-adv-x="1830" unicode="Ξ" d="M775 648q-22 -3 -43 -7q-124 -24 -193 -37q-14 -3 -26 -3q-47 0 -63 41q-8 21 -8 42q0 29 17 55q28 45 157 56q41 3 88 3q58 0 126 -5q240 631 298 803q-134 0 -292 163q-178 186 -328 186q-60 0 -108 -35q-84 -62 -84 -162q2 -61 21 -102q36 -41 36 -96q-1 -61 -43 -104 t-103 -43t-103 43q-48 48 -52 171q12 325 313 433q70 17 133 17q185 0 386 -179q125 -112 209 -112q51 0 87 41q95 108 156 109q96 0 104 -92q0 -39 -37 -71q-53 -46 -126 -160q-56 -87 -329 -824q51 -5 93 -5q82 0 133 17q88 30 157 44q14 2 26 2q47 0 63 -41q8 -21 8 -42 q0 -29 -16 -55q-29 -45 -125 -56q-39 -4 -91 -4q-77 0 -183 10q-58 5 -110 6q-65 -177 -141 -386q261 -61 457 -375q221 -356 407 -624t459 -269q246 3 370 180q65 111 65 229q0 126 -76 228t-230 107q-147 0 -155 -119q0 -39 38 -66q61 -44 65 -95q0 -55 -34 -89 q-29 -30 -96 -30q-177 15 -177 207q13 179 165 276q81 44 176 44q191 -5 319 -128t130 -328q0 -141 -73 -280q-152 -238 -479 -246q-335 -1 -549 281t-415 611q-188 308 -404 367q-106 -264 -253 -348q-98 -57 -177 -57q-46 0 -85 19q-109 51 -119 188q0 148 127 253 q127 103 407 103q70 182 130 340zM603 194q-189 -3 -293 -88q-76 -63 -76 -126q0 -96 78 -96q36 0 88 31q115 69 203 279z"/>
<glyph glyph-name="Omicron" horiz-adv-x="2321" unicode="Ο" d="M2025 736q0 237 -94 418q-116 -132 -322 -137q-348 13 -368 330q0 66 35 132q55 103 160 103q145 0 151 -134q0 -68 -80 -115q-49 -33 -49 -78q21 -97 185 -100q119 0 211 94q-71 53 -73 131q10 72 76 80q38 0 63 -17q1 17 1 33q0 102 -48 197q-162 279 -586 282 q-351 -5 -597 -281t-260 -797q10 -521 234 -763t649 -244h6q649 0 706 866zM1306 -265q-508 15 -757 319t-259 834q12 560 296 869t709 320q569 -2 722 -399q36 -107 36 -200q0 -105 -33 -174q85 -160 108 -490q-5 -1028 -822 -1079z"/>
<glyph glyph-name="Pi" horiz-adv-x="2743" unicode="Π" d="M1297 1807q274 -448 274 -1147q0 -47 -1 -94q-20 -764 -266 -1096t-642 -331q-245 11 -415 157q-179 154 -187 382q12 246 168 384t370 146q309 -3 434 -211q51 -88 51 -180q-1 -162 -104 -240q-44 -25 -89 -25q-54 0 -94 40t-40 95q0 86 78 123l2 2q39 39 39 95 q-1 51 -65 115t-216 64q-160 0 -274 -113t-114 -284q0 -177 129 -297q122 -114 351 -120q346 2 542 322t204 951v63q0 587 -141 935q-150 366 -398 370q-298 -9 -359 -338q0 -104 81 -152q45 -26 100 -26q80 16 159 16q76 0 129 -53t53 -128q0 -76 -73 -129 q-67 -48 -208 -48q-189 15 -307 155q-95 120 -95 284q5 260 200 442q135 115 319 115h5q170 0 434 -146q263 -147 761 -147h13q21 191 125 268q69 51 146 51q39 0 80 -13q122 -38 127 -155v-10q0 -111 -107 -196q-86 -68 -262 -81q-23 -214 -23 -408q0 -280 48 -520 q93 -460 223 -612t131 -234q-8 -110 -112 -111q-103 0 -288 593q-117 375 -117 858q0 209 22 439h-2q-560 2 -799 180zM2239 1747q125 8 178 73q30 35 30 65q0 24 -19 44q-21 22 -49 22q-27 0 -60 -21q-67 -43 -80 -183z"/>
<glyph glyph-name="Rho" horiz-adv-x="1475" unicode="Ρ" d="M989 1094q-44 -11 -89 -11q-280 7 -302 147q0 82 95 90q65 0 99 -55q35 -45 113 -45q20 0 39 2q-107 275 -288 472q-367 -483 -367 -1188q15 -637 424 -677q379 0 379 668q-21 331 -103 597zM1064 1264q51 30 96 83q108 126 108 286q0 263 -249 268q-162 -7 -291 -125 q107 -105 211 -272q71 -116 125 -240zM1109 1147q107 -304 110 -653q0 -796 -499 -796q-554 8 -583 846q0 629 432 1227q-80 54 -158 58q-101 0 -130 -90q-31 -98 -108 -98q-99 0 -99 107q0 63 60 124q74 76 235 77q144 0 284 -108q158 179 381 181q323 -8 350 -366 q0 -248 -156 -410q-58 -61 -119 -99z"/>
<glyph glyph-name="Sigma" horiz-adv-x="1413" unicode="Σ" d="M661 -67q105 -13 163 -37t142 -35q23 -3 46 -3q41 0 83 8q116 34 181 47q18 4 32 4h6q37 -4 57 -37q12 -20 12 -42v-6q-3 -27 -25 -56q-44 -54 -212 -56q-45 1 -113 7q-62 7 -191 20q-67 6 -116 6q-47 0 -79 -6q-55 -10 -98 -10q-9 0 -17 1q-49 2 -80 89q-9 24 -9 46 q0 55 56 93q79 52 415 579q-48 122 -400 726t-408 639q-42 43 -42 86q0 11 3 22q11 48 62 48q7 0 14 -1l2 -2q431 17 738 17q582 0 720 -61q213 -95 301 -235q77 -124 77 -259q-3 -217 -139 -345t-391 -129q-492 20 -500 395q12 268 205 275q64 0 105 -45q37 -43 37 -88 q0 -82 -83 -135q-41 -29 -41 -81q0 -26 11 -59q72 -126 291 -128q142 1 252 89t117 243q0 114 -81 217q-99 125 -268 186q-113 41 -689 41q-249 0 -583 -8q240 -343 494 -795t308 -497q34 -28 34 -63q0 -22 -14 -47q-35 -65 -385 -618z"/>
<glyph glyph-name="Tau" horiz-adv-x="1362" unicode="Τ" d="M877 1396q-325 -6 -424 -23q-257 -38 -260 -155q10 -63 101 -67q43 0 58 39q31 75 106 79q81 -6 91 -79q-4 -148 -215 -162q-235 0 -246 200q3 223 337 277q153 22 488 25q72 208 263 380q267 223 637 237q415 0 445 -304q0 -207 -218 -327t-637 -119q-135 2 -281 2 q-58 0 -111 -1q-25 -118 -25 -269q0 -148 24 -327q60 -453 84 -663q10 -86 10 -155q0 -98 -20 -159q-28 -84 -84 -84q-14 0 -29 6q-61 20 -61 86q0 19 5 42q19 84 19 243q0 35 -1 74q-5 214 -52 611q-24 200 -24 353q0 139 20 240zM1060 1530q96 0 290 -3q436 1 594 99 t158 209q-9 178 -294 178q-350 -36 -566 -231q-123 -122 -182 -252z"/>
<glyph glyph-name="Upsilon" horiz-adv-x="1839" unicode="Υ" d="M944 759q-200 511 -344 707t-292 302t-192 171q-16 24 -16 48q4 94 112 94q310 -230 477 -482q157 -240 331 -643q173 403 331 643q166 252 476 482q108 0 112 -94q0 -24 -16 -48q-44 -65 -192 -171q-149 -106 -293 -302t-361 -733q53 -400 75 -594q10 -86 10 -155 q0 -98 -20 -159q-28 -84 -84 -84q-14 0 -29 6q-61 20 -61 86q0 19 5 42q19 84 19 243q0 35 -1 74q-5 202 -47 567z"/>
<glyph glyph-name="Phi" horiz-adv-x="1565" unicode="Φ" d="M806 1394q12 -203 44 -459q32 -267 41 -508q152 26 248 114q131 119 131 343v5q-50 21 -64 135t-44 196q-29 83 -114 131q-73 40 -242 43zM743 415v24q0 243 -35 530q-30 248 -48 419q-162 -23 -280 -127q-145 -127 -145 -365q0 -6 1 -11q3 -247 151 -361 q138 -108 356 -109zM800 1517q223 -5 357 -75q150 -79 203 -182t56 -215v-23q0 -93 -23 -116q-9 -277 -188 -443q-132 -124 -311 -158v-87q-3 -332 -23 -393q-28 -84 -84 -84q-14 0 -29 6q-61 20 -61 86q0 19 5 42q19 84 37 393q1 12 1 24q-251 2 -429 141 q-186 144 -191 444q-1 9 -1 18q0 287 176 450q148 137 352 165q-2 26 -4 49q-17 198 -17 267q0 98 20 159q28 84 84 84q14 0 29 -6q61 -20 61 -86q0 -19 -5 -42q-16 -73 -16 -281v-68q0 -34 1 -69z"/>
<glyph glyph-name="Chi" horiz-adv-x="2633" unicode="Χ" d="M1956 717q-431 -1021 -690 -1300t-577 -279q-263 4 -442 158t-187 382q12 246 168 384t370 146q309 -3 434 -211q51 -88 51 -180q-1 -162 -104 -240q-44 -25 -89 -25q-54 0 -94 40t-40 95q0 86 78 123l2 2q39 39 39 95q-1 51 -65 115t-216 64q-160 0 -274 -113t-114 -284 q0 -177 128 -297t375 -120q271 9 499 277t672 1318q-178 389 -328 605t-282 291q-37 32 -37 81q8 82 95 82q86 -1 258 -238t364 -669q232 477 562 796t804 330q229 0 372 -59q176 -73 253 -215q68 -126 68 -264q-2 -177 -125 -310t-294 -138q-125 0 -206 45 q-162 86 -165 265q3 175 145 210q20 4 38 4q46 0 80 -26q44 -35 44 -94q-4 -57 -65 -100q-38 -28 -38 -67q0 -23 14 -50q34 -69 141 -69q134 5 220 97t86 240q0 115 -60 213q-69 111 -221 169q-119 44 -297 44q-410 -10 -720 -326t-562 -842q162 -324 252 -473t169 -245 q132 -159 204 -193q66 -42 66 -113q-8 -110 -102 -111q-113 0 -261 237q-66 104 -142 248t-254 495z"/>
<glyph glyph-name="Psi" horiz-adv-x="2153" unicode="Ψ" d="M1352 917q323 27 501 581t488 583q108 0 112 -94q0 -24 -16 -48q-44 -65 -192 -71t-304 -502t-567 -635q20 -263 20 -474v-39q-3 -332 -23 -393q-28 -84 -84 -84q-14 0 -29 6q-61 20 -61 86q0 19 5 42q19 84 37 393q4 83 4 171q0 123 -9 294q-161 12 -318 175 q-158 162 -302 558t-292 402t-192 71q-16 24 -16 48q4 94 112 94q310 -29 532 -573t456 -591q-54 444 -71 642t-17 267q0 98 20 159q28 84 84 84q14 0 29 -6q61 -20 61 -86q0 -19 -5 -42q-16 -73 -16 -281q3 -334 53 -737z"/>
<glyph glyph-name="alpha" horiz-adv-x="1147" unicode="α" d="M840 412q43 -303 116 -303h3q87 3 134 92t48 188q0 81 34 81q8 0 17 -4q35 -15 35 -80q0 -30 -7 -69q-23 -127 -85 -216t-152 -107q-23 -5 -44 -5q-60 0 -100 39q-54 51 -93 193q-34 -89 -124 -164q-89 -74 -230 -74h-8q-148 1 -276 121t-133 330v16q0 199 124 324 q128 129 300 131h7q167 0 263 -98q97 -101 112 -205q9 67 12 112q9 142 71 156l9 1q5 1 10 1q47 0 61 -58l2 -14q1 -11 1 -23q0 -72 -44 -202q-30 -87 -63 -163zM632 669q-74 113 -196 117h-9q-116 0 -200 -96q-83 -95 -83 -239v-17q5 -156 93 -246q72 -74 188 -74 q25 0 51 3q152 19 237 270q-7 169 -81 282z"/>
<glyph glyph-name="beta" horiz-adv-x="951" unicode="β" d="M622 721q128 -145 146 -388q14 -2 28 -2q20 0 39 4q86 16 98 93t56 80h2q28 0 28 -50q0 -24 -7 -61q-21 -113 -130 -163q-45 -21 -92 -21h-4q-6 -72 -58 -144q-73 -101 -187 -101q-26 0 -55 5q-153 29 -171 175q-2 17 -2 33q0 120 121 180q51 26 111 26q20 0 86 3 q-6 142 -114 280q-96 121 -249 173q-12 -2 -24 -2h-3q-101 0 -112 75q-1 8 -1 15q0 53 65 53q7 0 16 -1h9q80 0 137 131q60 138 60 250q0 54 -12 105q-37 149 -167 149h-8q-137 -5 -162 -272q-4 -43 -4 -101q0 -276 96 -880q115 -731 130 -856q10 -80 10 -145 q0 -93 -20 -154q-28 -84 -84 -84q-14 0 -29 6q-61 20 -61 86q0 19 5 42q19 84 19 233q0 33 -1 69q-5 199 -59 475q-28 143 -50 282h-13q-53 0 -77 30q-27 34 -27 81q0 48 27 82q23 28 55 33q-23 148 -39 269q-19 202 -19 358q0 168 22 284q43 222 172 279q65 28 124 28 q57 0 108 -27q103 -56 155 -210q21 -64 21 -138q1 -106 -35 -249t-108 -232q136 -72 238 -186zM477 267q-60 -30 -60 -86q0 -7 1 -14q8 -66 83 -79q14 -2 27 -2q55 0 87 45q26 37 26 78q0 24 -8 49q-50 24 -93 24q-34 0 -63 -15z"/>
<glyph glyph-name="gamma" horiz-adv-x="1141" unicode="γ" d="M607 -3q19 -184 19 -341v-37q-3 -173 -11 -249q-13 -110 -40 -168q-34 -74 -84 -74h-8q-14 1 -29 9q-52 24 -52 78q0 7 1 14q3 19 10 42q29 81 53 316q12 114 12 227q0 117 -13 231l-4 2q-119 197 -255 416q-56 91 -128 109t-110 56t-38 93t38 93t93 38q45 0 101 -41 t150 -257t227 -413q90 97 154 200q-178 111 -183 317q0 63 34 114q62 92 181 92q175 -4 184 -238q-1 -131 -58 -229q23 -9 47 -9q44 0 116 28t95 78q24 50 55 53q33 0 33 -37q-20 -82 -99 -154t-228 -73q-41 0 -85 14q-42 -71 -178 -300zM759 452q32 42 32 157 q-5 140 -54 140q-80 0 -80 -97q0 -109 102 -200z"/>
<glyph glyph-name="delta" horiz-adv-x="1066" unicode="δ" d="M419 911q165 -6 283 -136q124 -136 124 -328q0 -33 -4 -64q79 0 144 41t79 102q16 49 48 49q38 0 38 -42q-1 -77 -88 -161t-244 -91q-121 -297 -396 -297q-175 0 -299 136t-123 327q0 192 124 328q80 88 182 119q-61 41 -105 86q-126 127 -126 270q2 134 92 210t175 78 t184 9h16q83 0 86 -63q0 -69 -62 -92q-32 -12 -77 -12q-40 0 -91 10q-36 7 -66 7q-57 0 -89 -26q-49 -41 -61 -141q0 -1 1 -1q0 -71 76 -178q49 -70 179 -140zM670 284q-190 16 -317 103q-147 100 -173 246q-46 -83 -46 -189q0 -143 83 -244t200 -101q168 0 253 185z M697 387q4 27 4 57q0 144 -83 244t-201 100q-111 -6 -111 -99q5 -168 233 -263q79 -30 158 -39z"/>
<glyph glyph-name="epsilon" horiz-adv-x="867" unicode="ε" d="M262 901q59 15 115 15q65 0 125 -20q112 -39 112 -105q-3 -95 -62 -98q-7 -1 -13 -1q-50 0 -78 25q-32 27 -63 51q-28 21 -87 21h-15q-72 -3 -129 -97q-48 -79 -48 -216q0 -29 2 -60q119 8 186 40t131 51q20 7 37 7q37 0 61 -31q16 -21 16 -46q0 -27 -19 -58 q-39 -59 -135 -70t-238 -15q68 -192 310 -205q158 7 258 109t128 267q6 47 46 47q36 -6 36 -54q-25 -186 -146 -332t-355 -150q-209 8 -331 128t-126 337q-1 16 -1 32q0 157 74 271q80 124 209 157z"/>
<glyph glyph-name="zeta" horiz-adv-x="1626" unicode="ζ" d="M1461 -316q98 -82 141 -207q19 -59 19 -114q0 -63 -25 -121q-48 -111 -158 -140q-41 -11 -74 -11q-58 0 -96 32q-39 32 -39 74q0 24 13 52q34 75 134 87t101 93v3q0 79 -79 143q-80 65 -390 337t-454 588q-142 318 -146 596q-319 106 -319 433q0 27 2 56q20 122 74 163 q40 31 88 31q9 0 19 -1q61 -8 98 -56q29 -39 29 -87q0 -11 -1 -22q-7 -54 -48 -91q-24 -38 -34 -98q-1 -15 -1 -28q0 -126 99 -169q57 349 296 603t561 283q69 6 134 6q235 0 406 -85q218 -110 306 -250q77 -124 77 -259q-4 -215 -240 -349t-634 -150q-91 -4 -181 -4 q-301 0 -583 42v-9q0 -221 95 -448q96 -233 404 -537t406 -386zM1841 1268q210 94 217 249q0 114 -81 217q-99 125 -273 201q-139 60 -311 60q-46 0 -93 -4q-230 -20 -452 -229t-285 -574q262 -34 524 -34q94 0 188 5q356 15 566 109z"/>
<glyph glyph-name="eta" horiz-adv-x="1003" unicode="η" d="M558 486q-1 248 -137 294q-39 12 -73 12q-87 0 -147 -80q-46 -61 -64 -149q-14 -70 -14 -131q0 -16 1 -30q4 -74 52 -225q18 -60 18 -102q0 -63 -43 -85q-27 -13 -50 -13q-39 0 -68 38q-47 61 -55 289t-20 373q-2 21 -2 40q0 108 61 128q13 4 25 4q55 0 89 -85 q28 46 56 70q91 74 195 74q24 0 49 -3q132 -21 209 -124q52 -70 52 -178q0 -16 -1 -32q-3 -37 -3 -74q0 -90 15 -175q21 -120 62 -222q108 74 163 145t60 175t45 105h1q51 0 51 -86q0 -14 -1 -30q-10 -117 -60 -217t-207 -201q16 -34 92 -174q67 -123 67 -302q0 -24 -1 -50 q-11 -212 -141 -314q-83 -65 -189 -65q-32 0 -66 6q-148 25 -224 158q-44 77 -44 181q0 75 23 164q54 213 303 432q-78 211 -79 459zM480 -370q-41 -85 -41 -174q0 -53 14 -107q38 -147 181 -147q0 -1 1 -1q142 0 191 204q10 43 10 90q0 176 -142 412q-150 -142 -214 -277z "/>
<glyph glyph-name="theta" horiz-adv-x="1318" unicode="θ" d="M303 898q22 4 48 7q38 3 83 3q105 0 247 -16q86 -10 147 -10q83 0 122 18q47 22 93 38q-10 454 -118 691q-114 247 -232 247h-5q-20 -48 -80 -62t-110 -42t-124 -231q-71 -195 -71 -631v-12zM1042 753q-31 -4 -73 -4q-88 0 -221 16q-85 10 -154 10q-88 0 -147 -17 q-83 -25 -139 -43q18 -353 112 -568q113 -260 260 -260h3q149 3 258 266q91 221 101 600zM1184 837q-5 -482 -140 -773q-145 -311 -355 -316q-4 -1 -7 -1q-206 0 -361 301q-158 306 -162 836v37q0 503 105 769q109 275 182 328t133 59h17q48 0 74 -26q177 -9 344 -313 q164 -300 170 -818q11 -18 11 -39t-11 -44z"/>
<glyph glyph-name="iota" horiz-adv-x="484" unicode="ι" d="M-32 548q0 101 -10 174q-3 21 -3 38q0 87 69 90q69 0 99 -81q16 -43 16 -139q0 -87 -13 -219q-4 -37 -4 -69q0 -212 156 -238q1 0 1 1q71 -1 129 75t64 242q0 57 37 57q47 0 47 -59q0 -171 -78 -297t-220 -126q-133 1 -220 98q-66 83 -68 233t-2 220z"/>
<glyph glyph-name="kappa" horiz-adv-x="985" unicode="κ" d="M151 747q71 87 156 113q68 21 126 21q82 0 141 -44q99 -75 99 -181q0 -105 -74 -180q-35 -35 -77 -54q82 -54 120 -165q53 -157 139 -157q69 2 117 82t57 191q8 92 48 92q8 0 17 -4q37 -15 37 -85q0 -35 -9 -84q-28 -147 -110 -225q-79 -76 -172 -78q-5 -1 -9 -1 q-88 0 -153 45q-69 46 -117 200q-38 122 -152 146q-17 -1 -32 -1q-103 0 -124 58q-10 26 -10 48q0 42 36 67q20 13 40 13q35 0 73 -42q34 -40 79 -40q5 0 10 1q51 5 79 33q43 43 43 104t-43 104t-104 43t-127 -53q-50 -40 -104 -143q-2 -31 -4 -66q-5 -38 -5 -73 q0 -16 1 -30q4 -74 52 -225q18 -60 18 -102q0 -63 -43 -85q-27 -13 -50 -13q-39 0 -68 38q-47 61 -55 289t-20 373q-2 21 -2 40q0 108 61 128q13 4 25 4q55 0 79 -49q8 -16 11 -53z"/>
<glyph glyph-name="lambda" horiz-adv-x="1203" unicode="λ" d="M524 739q-9 26 -18 54q-195 595 -306 635t-144 83q-27 35 -27 78q0 10 1 19q7 53 51 86q35 27 78 27q10 0 19 -1q44 -6 133 -112t315 -764t341 -695q33 -11 62 -11q68 0 107 63q54 89 55 188q0 81 34 81q8 0 17 -4q35 -15 35 -80q0 -30 -7 -69q-23 -127 -93 -232 q-65 -97 -213 -97q-12 0 -25 1q-144 7 -359 592q-58 -123 -116 -269q-93 -229 -143 -277t-94 -54q-9 -1 -19 -1q-43 0 -78 27q-44 33 -51 86q-1 9 -1 19q0 43 27 78q33 43 101 71t145 97q70 62 173 381z"/>
<glyph glyph-name="uni03BC" horiz-adv-x="1082" unicode="μ" d="M17 219q-2 8 -4 15l1 1q-48 210 -50 379v10q0 199 75 221q19 6 36 6q48 0 70 -51q20 -50 20 -141q0 -33 -2 -72q-9 -123 -9 -216v-35q5 -58 15 -123q60 -101 180 -101h2q129 0 192 110q22 39 51 104q-3 29 -3 60q0 16 1 32q2 35 2 69q0 96 -13 180q-6 38 -6 68 q0 93 58 110q17 5 32 5q53 0 80 -62q23 -55 23 -135q0 -37 -5 -79q-14 -112 -18 -226q5 -73 26 -131q43 -113 113 -113q1 0 1 1q71 1 123 71t62 176q8 106 50 108q35 0 35 -94q0 -19 -1 -41q-9 -136 -88 -232t-171 -96h-1q-93 1 -163 45q-69 43 -98 129q-85 -145 -211 -175 q-50 -12 -97 -12q-60 0 -116 20q45 -203 69 -445q10 -101 10 -177q0 -111 -20 -172q-28 -84 -84 -84q-14 0 -29 6q-61 20 -61 86q0 19 5 42q19 84 19 267q0 40 -1 85q-5 249 -78 522q-12 43 -22 85z"/>
<glyph glyph-name="nu" horiz-adv-x="957" unicode="ν" d="M737 397q23 -9 47 -9q44 0 90 28t61 78q14 50 45 53q33 0 33 -37q0 -82 -79 -154t-178 -73q-41 0 -85 14q-44 -75 -205 -295q-28 -38 -59 -38q-14 0 -29 9q-36 20 -36 48q0 9 5 26q1 41 -211 203t-212 393q0 86 34 150q30 57 82 57q90 -1 90 -99q0 -29 -8 -68 q-11 -48 -11 -92q2 -197 314 -450q90 97 154 200q-218 111 -223 317q0 63 34 114q62 92 181 92q215 -4 224 -238q-1 -131 -58 -229zM645 452q32 42 32 157q-5 140 -94 140q-80 0 -80 -97q0 -109 142 -200z"/>
<glyph glyph-name="xi" horiz-adv-x="1626" unicode="ξ" d="M1395 -306q154 -72 197 -197q19 -59 19 -114q0 -63 -25 -121q-48 -111 -158 -140q-41 -11 -74 -11q-58 0 -96 32q-39 32 -39 74q0 24 13 52q34 75 134 87t101 93v2q0 80 -139 138q-108 45 -264 75t-256 155q-92 115 -92 273v23q7 172 206 305q-305 68 -410 286t-107 390 q-319 106 -319 433q0 27 2 56q20 122 74 163q40 31 88 31q9 0 19 -1q61 -8 98 -56q29 -39 29 -87q0 -11 -1 -22q-7 -54 -48 -91q-24 -38 -34 -98q-1 -15 -1 -28q0 -126 99 -169q57 349 281 607t590 279q318 -1 531 -95t301 -234q77 -124 77 -259q-3 -215 -239 -349 t-635 -150q-91 -4 -181 -4q-301 0 -583 42v-2q0 -147 128 -332q129 -186 402 -195q86 0 121 39q53 59 108 59q69 -5 79 -81q0 -66 -54 -96q-69 -41 -191 -48q-87 -22 -176 -110q-106 -80 -106 -205q0 -36 9 -74q38 -177 223 -225t299 -100zM2055 1517q0 114 -81 217 q-98 125 -268 186t-404 64q-266 -3 -472 -217t-270 -579q262 -34 524 -34q94 0 188 5q356 15 566 109t217 249z"/>
<glyph glyph-name="omicron" horiz-adv-x="1051" unicode="ο" d="M966 424q65 41 79 102q16 49 48 49q38 0 38 -42q-1 -77 -88 -161t-244 -91q-121 -297 -396 -297q-175 0 -299 136t-123 327q-1 192 123 328t299 136t299 -136t124 -328q0 -33 -4 -64q79 0 144 41zM670 284q-190 16 -317 103q-147 100 -173 246q-46 -83 -46 -189 q0 -143 83 -244t200 -101q168 0 253 185zM697 387q4 27 4 57q0 144 -83 244t-201 100q-111 -6 -111 -99q5 -168 233 -263q79 -30 158 -39z"/>
<glyph glyph-name="pi" horiz-adv-x="1169" unicode="π" d="M822 691q2 -27 2 -61q0 -87 -13 -219q-4 -37 -4 -69q0 -212 156 -238q1 0 1 1q70 -1 128 75t65 242q0 57 37 57q47 0 47 -59q1 -171 -77 -297t-221 -126q-133 1 -220 98q-66 83 -68 233t-2 220q0 91 -8 159q-6 0 -12 1q-85 10 -152 10h-23q15 -74 19 -195q8 -229 20 -374 q2 -21 2 -40q0 -108 -61 -128q-13 -4 -25 -4q-55 0 -79 49q-11 23 -11 57q0 37 14 87q26 94 26 261t-64 259q-78 -25 -143 -52q-33 -14 -58 -14q-36 0 -56 30q-13 21 -13 43q0 34 29 72q49 64 156 81q43 6 97 6q77 0 174 -13q101 -15 179 -15q51 0 92 6q106 15 184 36 q25 7 45 7q42 0 62 -30q15 -22 15 -47q0 -24 -14 -50q-29 -53 -125 -59q-20 -1 -45 -1q-26 0 -56 1z"/>
<glyph glyph-name="rho" horiz-adv-x="1075" unicode="ρ" d="M30 166q-39 154 -39 278q0 161 66 272q117 194 353 195h2q234 0 358 -136t124 -328q0 -83 -24 -156q8 -1 16 -1q71 0 131 60t61 166q0 63 36 66q33 0 39 -64q0 -168 -85 -250t-211 -82q-17 0 -35 2q-96 -204 -371 -204q-219 14 -223 188q11 213 252 215q109 0 255 -69 q14 39 14 110q-7 159 -95 260t-230 111h-22q-127 0 -199 -104q-65 -94 -65 -216q0 -26 3 -52q16 -155 70 -411q78 -377 83 -602q0 -152 -24 -220t-90 -68q-60 6 -85 49q-12 20 -12 50q0 32 14 76q27 83 27 192q-5 318 -94 673zM702 214q-136 68 -241 68q-132 -5 -134 -107 q4 -93 132 -101q94 4 159 46t84 94z"/>
<glyph glyph-name="sigma1" horiz-adv-x="894" unicode="ς" d="M291 797q123 31 197 41t152 32q25 7 45 7q42 0 62 -30q15 -22 15 -47q0 -24 -14 -50q-29 -53 -125 -59q-20 -1 -45 -1q-92 0 -218 -4q-104 -3 -170 -100t-68 -284q-1 -3 -1 -6q0 -184 207 -336q321 -238 364 -363q19 -59 19 -114q0 -63 -25 -121q-48 -111 -158 -140 q-41 -11 -74 -11q-58 0 -96 32q-39 32 -39 74q0 24 13 52q34 75 134 87t101 93v2q0 81 -198 203t-302 332q-48 96 -48 233q0 9 1 19q2 149 80 290t191 169z"/>
<glyph glyph-name="sigma" horiz-adv-x="1129" unicode="σ" d="M756 723q60 -95 60 -254q0 -85 -17 -188q-121 -297 -396 -297q-175 0 -299 136t-123 327q-1 192 123 328t299 136q120 0 224 -66l-1 4q61 -18 117 -18q10 0 21 1q64 4 144 35q21 3 38 3q87 0 90 -69q0 -69 -81 -99q-19 -7 -48 -7q-36 0 -88 11q-32 6 -63 17zM402 781 q-119 0 -203 -98t-84 -236q0 -137 84 -235t203 -98q187 0 269 214q11 74 11 134q0 147 -66 219q-95 100 -214 100z"/>
<glyph glyph-name="tau" horiz-adv-x="826" unicode="τ" d="M377 716q2 -32 2 -60q0 -57 -8 -95q-4 -18 -4 -48q0 -67 19 -196q28 -187 184 -213q1 0 1 1q121 -1 179 75t64 242q0 57 37 57q47 0 47 -59q0 -171 -78 -297t-270 -126q-172 1 -254 142q-75 128 -75 292q0 16 1 32q2 55 2 100q0 107 -13 163q-65 -4 -127 -28 q-21 -3 -38 -3q-87 0 -90 69q0 69 81 99q17 6 49 6q47 0 126 -14q119 -22 165 -22q4 0 9 1q42 2 92 19t68 17q87 0 90 -69q0 -69 -81 -99q-15 -6 -41 -6q-49 0 -137 20z"/>
<glyph glyph-name="upsilon" horiz-adv-x="1003" unicode="υ" d="M640 335q-7 3 -15 6q-218 111 -223 317q0 63 34 114q62 92 181 92q185 -4 194 -238q-1 -131 -28 -229q23 -9 47 -9q44 0 90 28t61 78q14 50 45 53q33 0 33 -37q0 -82 -79 -154t-178 -73q-16 0 -48 9q-115 -278 -279 -316q-55 -13 -105 -13q-110 0 -193 63 q-122 92 -140 284t-47 311q-15 56 -15 100q0 47 17 79q32 60 102 60h1q71 -1 88 -124q12 -94 12 -176q0 -25 -1 -49t-1 -49q0 -85 13 -189q16 -137 86 -180q34 -21 80 -21q47 0 106 22q105 39 162 241zM691 452q2 42 2 157q-5 140 -64 140q-80 0 -80 -97q0 -109 142 -200z "/>
<glyph glyph-name="phi" horiz-adv-x="1241" unicode="φ" d="M638 -23q28 4 56 12q181 53 234 159q48 96 48 248v33q-6 174 -131 307q-84 87 -243 100q-20 -76 -20 -200q0 -129 22 -310q22 -182 34 -349zM1034 681q57 -105 57 -269q0 -72 -11 -155q-37 -273 -326 -347q-57 -15 -111 -23q1 -103 1 -191q0 -440 -17 -491 q-28 -84 -84 -84q-14 0 -29 6q-61 20 -61 86q0 19 5 42q43 315 43 525q0 52 -3 97q-131 4 -238 56q-204 98 -263 331q-22 83 -22 162q0 146 44 277t170 182q42 17 73 17q63 0 82 -69q6 -23 6 -43q0 -73 -79 -117q-102 -58 -152 -175q-26 -60 -26 -122q0 -60 25 -123 q49 -127 180 -201q102 -56 197 -73q-10 184 -41 405q-24 166 -24 290q0 115 21 192q16 60 107 60q61 0 156 -27q236 -67 320 -218z"/>
<glyph glyph-name="chi" horiz-adv-x="1023" unicode="χ" d="M551 -19q106 -286 184 -450q84 -178 145 -239q16 -17 26 -33q17 -26 17 -51q0 -28 -22 -54q-10 -13 -22 -21q-16 -10 -36 -10q-35 0 -80 36q-49 41 -133 246q-66 160 -150 387q-89 -227 -174 -387q-109 -205 -159 -246q-44 -36 -80 -36q-19 0 -36 10q-12 8 -21 21 q-22 26 -22 55q0 24 16 50q10 16 27 33q61 61 170 239q101 164 209 450q-103 274 -204 427t-141 164q-73 18 -111 56t-38 93t38 93t93 38q45 0 101 -41q38 -28 142 -223t191 -420q90 242 128 382t41 226q1 24 6 42q16 65 80 68q6 1 12 1q10 0 18 -2q54 -14 61 -102v-8 q0 -64 -43 -192q-46 -137 -116 -307t-117 -295z"/>
<glyph glyph-name="psi" horiz-adv-x="1276" unicode="ψ" d="M912 335q-7 3 -15 6q-218 111 -223 317q0 63 34 114q62 92 181 92q185 -4 194 -238q-1 -131 -28 -229q23 -9 47 -9q44 0 90 28t61 78q14 50 45 53q33 0 33 -37q0 -82 -79 -154t-178 -73q-16 0 -48 9q-118 -278 -329 -316q-31 -5 -60 -8q11 -172 11 -331v-39 q-3 -332 -23 -393q-28 -84 -84 -84q-14 0 -29 6q-61 20 -61 86q0 19 5 42q19 84 37 393q4 83 4 171q0 72 -3 149q-117 12 -228 65q-204 97 -246 247t-44 305q-1 15 -1 29q0 131 29 186q32 60 102 60h1q71 -1 88 -124q6 -49 6 -94q0 -70 -15 -131q-11 -43 -11 -89 q0 -63 20 -130q34 -118 186 -180q52 -21 107 -30q-9 128 -26 267q-48 392 -65 590t-17 267q0 98 20 159q28 84 84 84q14 0 29 -6q61 -20 61 -86q0 -19 -5 -42q-16 -73 -16 -281v-68q3 -266 51 -651q15 -120 24 -235q36 4 72 14q150 39 212 241zM963 452q2 42 2 157 q-5 140 -64 140q-80 0 -80 -97q0 -109 142 -200z"/>
<glyph glyph-name="endash" horiz-adv-x="1057" unicode="–" d="M661 436q-100 9 -182 9q-89 0 -156 -10q-124 -20 -217 -20h-9q-96 1 -97 87v2q0 74 101 94q55 10 155 10q83 0 196 -7q145 -9 239 -9q67 0 108 5q54 6 104 6q40 0 78 -4q77 -8 77 -76q0 -7 -1 -15v-2q0 -74 -94 -81q-27 -3 -63 -3q-91 0 -239 14z"/>
<glyph glyph-name="emdash" horiz-adv-x="2107" unicode="—" d="M1057 455q-94 2 -179 2q-303 0 -481 -29q-148 -24 -230 -24q-54 0 -84 11q-82 28 -83 97v2q0 66 75 96q46 17 152 17q57 0 135 -4q210 -14 642 -28q155 -5 289 -5q233 0 395 16q135 12 217 12t120 -13q81 -28 82 -97v-2q0 -66 -75 -96q-33 -13 -100 -13q-79 0 -210 17 q-232 30 -665 41z"/>
<glyph glyph-name="quoteleft" horiz-adv-x="449" unicode="‘" d="M223 1362l29 37q10 8 20 15q30 19 60 19q21 0 42 -10q50 -23 62 -86q3 -17 3 -35q0 -46 -22 -94q-31 -66 -87 -98q-32 -18 -62 -18q-82 0 -128 62t-51 196v16q0 123 59 219q64 102 111 113q23 13 40 13q15 0 25 -9q7 -6 11 -13q5 -9 5 -17q0 -23 -33 -43q-45 -28 -69 -81 t-27 -110v-16q0 -43 12 -60z"/>
<glyph glyph-name="quotesinglbase" horiz-adv-x="449" unicode="‚" d="M305 41l-29 -37q-10 -8 -20 -15q-30 -19 -60 -19q-21 0 -42 10q-50 23 -62 86q-3 17 -3 35q0 46 22 94q31 66 87 98q32 18 62 18q82 -1 128 -63t51 -195v-16q0 -123 -59 -219q-64 -102 -111 -113q-23 -13 -40 -13q-15 0 -25 9q-7 6 -11 13q-5 9 -5 17q0 23 33 43 q45 28 69 81t27 110v16q0 43 -12 60z"/>
<glyph glyph-name="quotedblleft" horiz-adv-x="939" unicode="“" d="M713 1362l29 37q10 8 20 15q30 19 60 19q21 0 42 -10q50 -23 62 -86q3 -17 3 -35q0 -46 -22 -94q-31 -66 -87 -98q-32 -18 -62 -18q-82 0 -128 62t-51 196v16q0 123 59 219q64 102 111 113q23 13 40 13q15 0 25 -9q7 -6 11 -13q5 -9 5 -17q0 -23 -33 -43q-45 -28 -69 -81 t-27 -110v-16q0 -43 12 -60zM223 1362l29 37q10 8 20 15q30 19 60 19q21 0 42 -10q50 -23 62 -86q3 -17 3 -35q0 -46 -22 -94q-31 -66 -87 -98q-32 -18 -62 -18q-82 0 -128 62t-51 196v16q0 123 59 219q64 102 111 113q23 13 40 13q15 0 25 -9q7 -6 11 -13q5 -9 5 -17 q0 -23 -33 -43q-45 -28 -69 -81t-27 -110v-16q0 -43 12 -60z"/>
<glyph glyph-name="quotedblright" horiz-adv-x="939" unicode="”" d="M795 1441l-29 -37q-10 -8 -20 -15q-30 -19 -60 -19q-21 0 -42 10q-50 23 -62 86q-3 17 -3 35q0 46 22 94q31 66 87 98q32 18 62 18q82 -1 128 -63t51 -195v-16q0 -123 -59 -219q-64 -102 -111 -113q-23 -13 -40 -13q-15 0 -25 9q-7 6 -11 13q-5 9 -5 17q0 23 33 43 q45 28 69 81t27 110v16q0 43 -12 60zM305 1441l-29 -37q-10 -8 -20 -15q-30 -19 -60 -19q-21 0 -42 10q-50 23 -62 86q-3 17 -3 35q0 46 22 94q31 66 87 98q32 18 62 18q82 -1 128 -63t51 -195v-16q0 -123 -59 -219q-64 -102 -111 -113q-23 -13 -40 -13q-15 0 -25 9 q-7 6 -11 13q-5 9 -5 17q0 23 33 43q45 28 69 81t27 110v16q0 43 -12 60z"/>
<glyph glyph-name="dagger" horiz-adv-x="972" unicode="†" d="M436 1697q-1 15 -2 28q-21 163 -40 223q-6 20 -6 36q0 34 26 55q18 14 39 14q25 0 54 -18q49 -31 49 -201q0 -22 -1 -46q-2 -41 -4 -102q18 -1 36 -1q68 0 117 13q46 12 78 12q43 0 60 -21q14 -19 14 -40q0 -25 -18 -53q-19 -31 -100 -31q-66 0 -172 20q-9 2 -18 3 q-7 -267 -19 -789q-8 -337 -8 -557q0 -288 14 -377q23 -157 43 -217q6 -20 6 -37q0 -33 -25 -53q-19 -15 -40 -15q-25 0 -54 19q-52 32 -52 212q0 11 1 24q3 201 22 982q8 362 8 592q0 141 -3 232q-49 5 -89 5q-70 0 -108 -16q-41 -18 -69 -18q-30 0 -45 20q-14 18 -14 39 q0 25 18 54q20 32 106 32q57 0 142 -14q28 -5 54 -9z"/>
<glyph glyph-name="daggerdbl" horiz-adv-x="972" unicode="‡" d="M436 1697q-1 15 -2 28q-21 163 -40 223q-6 20 -6 36q0 34 26 55q18 14 39 14q25 0 54 -18q49 -31 49 -201q0 -22 -1 -46q-2 -41 -4 -102q18 -1 36 -1q68 0 117 13q46 12 78 12q43 0 60 -21q14 -19 14 -40q0 -25 -18 -53q-19 -31 -100 -31q-66 0 -172 20q-9 2 -18 3 q-7 -267 -19 -789q-8 -329 -8 -547q0 -151 4 -248q20 3 41 7q106 20 172 20q81 0 100 -30q18 -29 18 -54q0 -21 -14 -39q-17 -22 -60 -22q-32 0 -78 12q-48 13 -117 13q-27 0 -57 -2q2 -26 5 -44q23 -157 43 -217q6 -20 6 -37q0 -33 -25 -53q-19 -15 -40 -15q-25 0 -54 19 q-51 32 -51 209v27q0 38 1 98q-16 -3 -33 -5q-87 -15 -144 -15q-84 0 -104 33q-18 28 -18 53q0 21 14 40q16 19 46 19q27 0 68 -17q38 -17 109 -17q29 0 64 3q6 263 19 790q8 362 8 592q0 141 -3 232q-49 5 -89 5q-70 0 -108 -16q-41 -18 -69 -18q-30 0 -45 20 q-14 18 -14 39q0 25 18 54q20 32 106 32q57 0 142 -14q28 -5 54 -9z"/>
<glyph glyph-name="ellipsis" horiz-adv-x="2048" unicode="…" d="M1564 293q32 18 62 18q21 0 40 -9q46 -21 58 -84q3 -18 3 -35q0 -46 -22 -94q-32 -67 -83 -100q-31 -19 -60 -19q-21 0 -42 10q-50 23 -62 86q-3 17 -3 35q0 46 22 94q31 66 87 98zM881 293q32 18 62 18q21 0 40 -9q46 -21 58 -84q3 -18 3 -35q0 -46 -22 -94 q-32 -67 -83 -100q-31 -19 -60 -19q-21 0 -42 10q-50 23 -62 86q-3 17 -3 35q0 46 22 94q31 66 87 98zM198 293q32 18 62 18q21 0 40 -9q46 -21 58 -84q3 -18 3 -35q0 -46 -22 -94q-32 -67 -83 -100q-31 -19 -60 -19q-21 0 -42 10q-50 23 -62 86q-3 17 -3 35q0 46 22 94 q31 66 87 98z"/>
<glyph glyph-name="perthousand" horiz-adv-x="1738" unicode="‰" d="M1419 415q111 1 185 -95t74 -231t-74 -231t-180 -95q-106 -1 -180 95t-74 231t47 219t79 116t63 31q32 0 60 -40zM1275 89q-1 -86 43 -147t106 -61q60 0 104 61t44 147q0 87 -43 148q-42 59 -100 61q-6 -16 -15 -29q-23 -32 -48 -32q-25 -1 -58 -31t-33 -117zM819 415 q111 1 185 -95t74 -231t-74 -231t-180 -95q-106 -1 -180 95t-74 231t47 219t79 116t63 31q32 0 60 -40zM675 89q-1 -86 43 -147t106 -61q60 0 104 61t44 147q0 87 -43 148q-42 59 -100 61q-6 -16 -15 -29q-23 -32 -48 -32q-25 -1 -58 -31t-33 -117zM319 1315q111 1 185 -95 t74 -231t-74 -231t-180 -95q-106 -1 -180 95t-74 231t47 219t79 116t63 31q32 0 60 -40zM175 989q-1 -86 43 -147t106 -61q60 0 104 61t44 147q0 87 -43 148q-42 59 -100 61q-6 -16 -15 -29q-23 -32 -48 -32q-25 -1 -58 -31t-33 -117zM333 -18q-67 -154 -127 -192 q-31 -20 -58 -20q-25 0 -46 17q-30 23 -30 61q0 17 6 37q20 63 114 169t326 532t324 592q92 165 153 203q31 19 58 19q25 0 46 -16q30 -24 30 -62q0 -17 -6 -36q-21 -64 -141 -176t-351 -544q-231 -430 -298 -584z"/>
<glyph glyph-name="minute" horiz-adv-x="432" unicode="′" d="M282 1756q0 -67 -25 -171q-19 -78 -19 -153q0 -27 2 -53q1 -11 1 -20q0 -80 -67 -80h-1q-73 1 -73 98v31q0 93 -21 182q-24 99 -24 166q-1 66 33 104t81 37q45 1 79 -37t34 -104z"/>
<glyph glyph-name="second" horiz-adv-x="706" unicode="″" d="M586 1756q0 -67 -25 -171q-19 -78 -19 -153q0 -27 2 -53q1 -11 1 -20q0 -80 -67 -80h-1q-73 1 -73 98v31q0 93 -21 182q-24 99 -24 166q-1 66 33 104t81 37q45 1 79 -37t34 -104zM282 1756q0 -67 -25 -171q-19 -78 -19 -153q0 -27 2 -53q1 -11 1 -20q0 -80 -67 -80h-1 q-73 1 -73 98v31q0 93 -21 182q-24 99 -24 166q-1 66 33 104t81 37q45 1 79 -37t34 -104z"/>
<glyph glyph-name="guilsinglleft" horiz-adv-x="552" unicode="‹" d="M95 332q-40 19 -40 67v5q2 51 40 78q16 8 108 169q91 160 161 160h1q70 -1 82 -75q1 -9 1 -17q0 -62 -82 -95q-92 -38 -202 -217q110 -179 202 -216q86 -36 86 -101v-9q-6 -72 -87 -82q-5 -1 -10 -1q-76 0 -147 154q-76 163 -113 180z"/>
<glyph glyph-name="guilsinglright" horiz-adv-x="547" unicode="›" d="M457 332q-37 -17 -113 -180q-71 -154 -147 -154q-5 0 -10 1q-81 10 -87 82v9q0 65 86 101q91 37 201 216q-110 179 -201 217q-82 33 -82 95q0 8 2 17q11 74 82 75q70 0 162 -160q91 -161 107 -169q37 -27 40 -78v-6q0 -47 -40 -66z"/>
<glyph glyph-name="uni203E" horiz-adv-x="884" unicode="‾" d="M-36 2199q-28 0 -46 19t-18 46q0 28 18 46t52 18h944q34 0 52 -18t18 -46q0 -27 -18 -46t-46 -19h-956z"/>
<glyph glyph-name="Euro" horiz-adv-x="1200" unicode="€" d="M60 822q19 117 67 214q81 164 248 267q140 85 324 85q35 0 73 -3q230 -20 325 -132q84 -99 84 -210q0 -14 -1 -28q-12 -126 -103 -145q-22 -5 -42 -5q-63 0 -109 47q-40 41 -40 93q0 26 11 56t11 57q0 50 -38 88q-51 51 -187 51q-20 0 -41 -1q-171 -9 -318 -157 q-106 -107 -136 -286q57 -5 102 -5q102 0 143 26q29 18 56 18q31 0 59 -25q25 -24 25 -52t-23 -58q-31 -41 -123 -41q-53 0 -125 13q-69 12 -124 17q-1 -21 -1 -41t6 -73q48 -4 87 -4q101 0 143 26q29 18 56 18q31 0 59 -25q25 -24 25 -52t-23 -58q-31 -41 -123 -41 q-53 0 -125 13q-41 7 -77 11q36 -127 119 -210q147 -148 318 -156q21 -2 41 -2q136 0 187 51q38 38 38 88q0 27 -11 57t-11 56q0 52 40 93q46 47 109 47q20 0 42 -4q91 -20 103 -146q1 -14 1 -28q0 -111 -84 -210q-95 -112 -325 -132q-38 -3 -73 -3q-184 0 -324 86 q-167 102 -248 267q-35 71 -55 154q-43 -2 -71 -11q-35 -12 -60 -12q-34 0 -50 22q-13 15 -13 33q0 24 23 51q26 31 129 31h24q-5 49 -5 63v39q-15 -3 -28 -7q-35 -12 -60 -12q-34 0 -50 22q-13 15 -13 33q0 24 23 51q26 31 126 31h13z"/>
<glyph glyph-name="trademark" horiz-adv-x="2241" unicode="™" d="M1085 1700q-8 -8 -17 -16q-32 -28 -96 -47q-60 -115 -60 -273v-20q6 -252 159 -264q7 -1 13 -1q124 0 124 203q0 26 -2 54q-16 231 -121 364zM1088 1905q90 64 167 64q15 0 29 -2q139 -24 174 -97q30 73 179 95q20 2 39 2q122 0 197 -120q80 -130 80 -304v-24 q-3 -108 -3 -188q0 -60 2 -104q4 -103 40 -132q34 -29 59 -29q1 0 2 1q25 1 41 25t59 30h11q33 0 54 -33q10 -17 10 -34q0 -23 -18 -47q-32 -42 -104 -58q-20 -4 -41 -4q-54 0 -113 29q-83 41 -119 133q-25 62 -25 192q0 60 5 136q4 53 4 99q0 158 -45 231q-52 83 -115 83 q-8 0 -15 -1q-73 -12 -113 -146q-10 -43 -10 -74q0 -14 2 -25q6 -38 24 -74q7 -16 7 -33q0 -22 -12 -46q-22 -44 -74 -44t-72 44q-14 30 -14 91q0 26 3 57q1 23 1 44q0 76 -23 127q-30 66 -112 79q-24 3 -43 3q-50 0 -77 -23q213 -210 216 -543v-6q0 -323 -261 -323h-6 q-270 4 -296 307q-3 37 -3 72q0 151 59 278q-90 -10 -211 -10q-30 0 -62 1q-14 -54 -14 -116q0 -61 14 -128q28 -136 39 -225q4 -36 4 -66q0 -46 -9 -81q-17 -59 -87 -62h-5q-66 0 -89 72q-10 32 -10 65q0 45 19 92q18 45 18 99q0 43 -12 91q-14 60 -14 133q0 58 9 125 q-50 -1 -84 -19t-68 -73q-34 -53 -89 -53h-2q-56 1 -93 54q-16 23 -16 49q0 33 25 71q46 67 162 83q71 9 200 10q28 70 121 145q120 96 294 102h19q131 0 191 -67zM611 1725h57q245 0 286 32q29 24 29 46q0 11 -7 22q-16 24 -80 24q-22 0 -50 -3q-108 -11 -235 -121z"/>
<glyph glyph-name="arrowleft" horiz-adv-x="1352" unicode="←" d="M355 298q86 -36 86 -101v-9q-6 -72 -87 -82q-5 -1 -10 -1q-76 0 -147 154q-76 163 -113 180q-40 19 -40 66v6q3 51 40 78q16 8 107 169q92 160 162 160q71 -1 82 -75q2 -9 2 -17q0 -62 -82 -95q-77 -32 -167 -165h11q111 0 231 5q332 14 543 28q77 4 133 4q101 0 141 -15 q61 -24 61 -78v-2q-1 -56 -68 -79q-25 -9 -74 -9q-80 0 -225 24q-181 29 -425 29q-68 0 -141 -2q-99 -3 -188 -8q91 -134 168 -165z"/>
<glyph glyph-name="arrowup" horiz-adv-x="1213" unicode="↑" d="M393 833q-36 -86 -101 -86h-9q-72 6 -82 87q-1 5 -1 10q0 76 154 147q163 76 180 113q19 40 66 40h6q51 -3 78 -40q8 -16 169 -107q160 -92 160 -162q-1 -71 -75 -82q-9 -2 -17 -2q-62 0 -95 82q-32 76 -165 167v-11q0 -111 5 -231q14 -332 28 -543q4 -77 4 -133 q0 -101 -15 -141q-24 -61 -78 -61h-2q-56 1 -79 68q-9 25 -9 74q0 80 24 225q29 181 29 425q0 68 -2 141q-3 98 -8 188q-134 -91 -165 -168z"/>
<glyph glyph-name="arrowright" horiz-adv-x="1352" unicode="→" d="M1165 463q-89 5 -188 8q-73 2 -141 2q-244 0 -425 -29q-145 -24 -225 -24q-49 0 -74 9q-67 23 -68 79v2q0 54 61 78q40 15 141 15q56 0 133 -4q211 -14 543 -28q120 -5 231 -5h11q-90 133 -167 165q-82 33 -82 95q0 8 2 17q11 74 82 75q70 0 162 -160q91 -161 107 -169 q37 -27 40 -78v-6q0 -47 -40 -66q-37 -17 -113 -180q-71 -154 -147 -154q-5 0 -10 1q-81 10 -87 82v9q0 65 86 101q77 31 168 165z"/>
<glyph glyph-name="arrowdown" horiz-adv-x="1213" unicode="↓" d="M558 22q5 90 8 189q2 73 2 141q0 244 -29 425q-24 145 -24 225q0 49 9 74q23 67 79 68h2q54 0 78 -61q15 -40 15 -141q0 -56 -4 -133q-14 -211 -28 -543q-5 -120 -5 -231v-12q133 91 165 168q33 82 95 82q8 0 17 -2q74 -11 75 -82q0 -70 -160 -162q-161 -91 -169 -107 q-27 -37 -78 -40h-6q-47 0 -66 40q-17 37 -180 113q-154 71 -154 147q0 5 1 10q10 81 82 87h9q65 0 101 -86q31 -78 165 -169z"/>
<glyph glyph-name="minus" d="M467 472q35 -3 66 -3q103 0 149 28q60 35 104 35t65 -24q17 -20 17 -53q0 -7 -1 -15q-5 -44 -59 -74q-36 -20 -145 -20q-55 0 -206 1h-12q-142 0 -185 -13q-62 -18 -104 -18t-58 21t-16 54q0 32 28 55t98 33q17 3 39 3q65 0 220 -10z" unicode="−"/>
<glyph glyph-name="approxequal" horiz-adv-x="919" unicode="≈" d="M569 393q8 -1 15 -1q43 0 61 48q21 55 73 73q17 6 33 6q34 0 66 -26q25 -20 25 -53q0 -30 -21 -71q-43 -87 -150 -100q-19 -3 -36 -3q-85 0 -150 54q-80 64 -135 79q-11 3 -21 3q-38 0 -55 -44q-21 -56 -73 -74q-17 -6 -33 -6q-34 0 -66 26q-25 20 -25 53q0 30 21 72 q43 86 150 89h10q101 0 177 -56q79 -60 134 -69zM569 746q8 -2 15 -2q43 0 61 48q21 55 73 73q17 6 33 6q34 0 66 -26q25 -20 25 -53q0 -30 -21 -71q-43 -87 -150 -100q-18 -2 -35 -2q-85 0 -151 53q-80 64 -135 79q-11 3 -21 3q-38 0 -55 -44q-21 -56 -73 -74 q-17 -6 -33 -6q-34 0 -66 26q-25 20 -25 53q0 30 21 72q43 86 150 90h12q99 0 175 -56q79 -60 134 -69z"/>
<glyph glyph-name="notequal" d="M639 590q5 2 11 4q65 20 110 20q53 0 78 -28q28 -32 28 -66q0 -22 -11 -44q-23 -49 -96 -49q-16 0 -35 3q-85 11 -142 11q-13 0 -24 -1h-8q-22 -38 -45 -79q-30 -55 -57 -104h16q97 0 201 36q59 20 100 20q48 0 73 -27q28 -32 28 -66q0 -22 -11 -44q-23 -49 -96 -49 q-16 0 -35 3q-85 11 -142 11q-13 0 -24 -1q-51 -2 -180 -11q-110 -201 -121 -236q-17 -52 -77 -71q-31 -10 -58 -10q-25 0 -46 9q-30 11 -30 30q0 9 6 19q20 31 64 59q27 18 132 193q-120 1 -144 44q-13 23 -13 45q0 30 23 57q26 32 69 32q21 0 45 -8q45 -14 106 -23 q27 47 58 102q17 31 34 61q-48 -3 -111 -7q-32 -3 -59 -3q-128 0 -157 49q-16 28 -16 54q0 30 21 58q24 33 62 33q23 0 50 -12q72 -31 182 -42q23 -3 47 -3q27 0 55 3q135 237 167 280q42 57 102 76q31 9 58 9q25 0 46 -8q30 -12 30 -31q0 -8 -6 -18q-20 -32 -90 -63 q-48 -21 -168 -217z" unicode="≠"/>
<glyph glyph-name="equivalence" d="M467 904q35 -3 66 -3q103 0 149 28q60 35 104 35t65 -24q17 -20 17 -53q0 -7 -1 -15q-5 -44 -59 -74q-36 -20 -145 -20q-55 0 -206 1h-12q-142 0 -185 -13q-62 -18 -104 -18t-58 21t-16 54q0 32 28 55t98 33q17 3 39 3q65 0 220 -10zM467 40q35 -3 66 -3q103 0 149 28 q60 35 104 35t65 -24q17 -20 17 -53q0 -7 -1 -15q-5 -44 -59 -74q-36 -20 -145 -20q-55 0 -206 1h-12q-142 0 -185 -13q-62 -18 -104 -18t-58 21t-16 54q0 32 28 55t98 33q17 3 39 3q65 0 220 -10zM467 472q35 -3 66 -3q103 0 149 28q60 35 104 35t65 -24q17 -20 17 -53 q0 -7 -1 -15q-5 -44 -59 -74q-36 -20 -145 -20q-55 0 -206 1h-12q-142 0 -185 -13q-62 -18 -104 -18t-58 21t-16 54q0 32 28 55t98 33q17 3 39 3q65 0 220 -10z" unicode="≡"/>
<glyph glyph-name="lessequal" d="M467 -228q35 -3 66 -3q103 0 149 28q60 35 104 35t65 -24q17 -20 17 -53q0 -7 -1 -15q-5 -44 -59 -74q-36 -20 -145 -20q-55 0 -206 1h-12q-142 0 -185 -13q-62 -18 -104 -18t-58 21t-16 54q0 32 28 55t98 33q17 3 39 3q65 0 220 -10zM180 576q282 108 383 206t139 167 q29 54 81 54q8 0 19 -2q65 -10 81 -86q1 -7 1 -14q0 -74 -156 -195t-522 -241q366 -120 522 -241t156 -195q0 -7 -1 -14q-16 -76 -81 -86q-11 -2 -19 -2q-52 0 -81 54q-38 69 -139 167t-384 206q-114 29 -114 109v7q5 85 115 106z" unicode="≤"/>
<glyph glyph-name="greaterequal" d="M467 -228q35 -3 66 -3q103 0 149 28q60 35 104 35t65 -24q17 -20 17 -53q0 -7 -1 -15q-5 -44 -59 -74q-36 -20 -145 -20q-55 0 -206 1h-12q-142 0 -185 -13q-62 -18 -104 -18t-58 21t-16 54q0 32 28 55t98 33q17 3 39 3q65 0 220 -10zM884 470v-7q0 -80 -114 -109 q-283 -108 -384 -206t-139 -167q-29 -54 -81 -54q-8 0 -18 2q-66 10 -82 86q-1 7 -1 14q1 74 157 195t522 241q-366 120 -522 241t-157 195q0 7 1 14q16 76 82 86q10 2 18 2q52 0 81 -54q38 -69 139 -167t383 -206q110 -21 115 -106z" unicode="≥"/>
</font>
</defs>
</svg>
